{
copyright = "Copyright (c) 2022 by Thanos Poulakidas. All rights reserved.";
familyName = "Geom ";
customParameters = (
{
name = glyphOrder;
value = (
.notdef,
null,
nonmarkingreturn,
space,
exclam,
quotedbl,
numbersign,
dollar,
percent,
ampersand,
quotesingle,
parenleft,
parenright,
asterisk,
plus,
comma,
hyphen,
period,
slash,
zero,
one,
two,
three,
four,
five,
six,
seven,
eight,
nine,
colon,
semicolon,
less,
equal,
greater,
question,
at,
A,
B,
C,
D,
E,
F,
G,
H,
J,
K,
L,
M,
N,
O,
P,
Q,
R,
S,
T,
U,
V,
W,
X,
Y,
Z,
bracketleft,
backslash,
bracketright,
asciicircum,
underscore,
grave,
a,
b,
c,
d,
e,
f,
g,
h,
i,
j,
k,
l,
m,
n,
o,
p,
q,
r,
s,
t,
u,
v,
w,
x,
y,
z,
braceleft,
bar,
braceright,
asciitilde,
uni00A0,
exclamdown,
cent,
sterling,
currency,
yen,
brokenbar,
section,
dieresis,
copyright,
ordfeminine,
guillemotleft,
logicalnot,
uni00AD,
registered,
degree,
plusminus,
twosuperior,
threesuperior,
acute,
uni00B5,
paragraph,
periodcentered,
cedilla,
onesuperior,
ordmasculine,
guillemotright,
onequarter,
onehalf,
threequarters,
questiondown,
Agrave,
Aacute,
Acircumflex,
Atilde,
Adieresis,
Aring,
AE,
Ccedilla,
Egrave,
Eacute,
Ecircumflex,
Edieresis,
Eth,
Ntilde,
Ograve,
Oacute,
Ocircumflex,
Otilde,
Odieresis,
multiply,
Oslash,
Ugrave,
Uacute,
Ucircumflex,
Udieresis,
Yacute,
Thorn,
germandbls,
agrave,
aacute,
acircumflex,
atilde,
adieresis,
aring,
ae,
ccedilla,
egrave,
eacute,
ecircumflex,
edieresis,
igrave,
iacute,
icircumflex,
idieresis,
eth,
ntilde,
ograve,
oacute,
ocircumflex,
otilde,
odieresis,
divide,
oslash,
ugrave,
uacute,
ucircumflex,
udieresis,
yacute,
thorn,
ydieresis,
Amacron,
amacron,
Abreve,
abreve,
Aogonek,
aogonek,
Cacute,
cacute,
Ccircumflex,
ccircumflex,
Cdotaccent,
cdotaccent,
Ccaron,
ccaron,
Dcaron,
dcaron,
Dcroat,
dcroat,
Emacron,
emacron,
Ebreve,
ebreve,
Edotaccent,
edotaccent,
Eogonek,
eogonek,
Ecaron,
ecaron,
Gcircumflex,
gcircumflex,
Gbreve,
gbreve,
Gdotaccent,
gdotaccent,
uni0122,
uni0123,
Hcircumflex,
hcircumflex,
itilde,
imacron,
ibreve,

glyphs = (
{
glyphname = .notdef;
layers = (
{
hints = (
{
horizontal = 1;
place = "{0, 57}";
type = Stem;
},
{
horizontal = 1;
place = "{663, 57}";
type = Stem;
},
{
place = "{26, 68}";
type = Stem;
},
{
place = "{485, 69}";
type = Stem;
}
);
layerId = "5589ED66-9AD9-444D-B825-B0F286D52CD7";
paths = (
{
closed = 1;
nodes = (
"26 0 LINE",
"554 0 LINE",
"554 720 LINE",
"26 720 LINE"
);
},
{
closed = 1;
nodes = (
"290 420 LINE",
"126 663 LINE",
"452 663 LINE"
);
},
{
closed = 1;
nodes = (
"94 596 LINE",
"251 360 LINE",
"94 126 LINE"
);
},
{
closed = 1;
nodes = (
"329 360 LINE",
"485 595 LINE",
"485 126 LINE"
);
},
{
closed = 1;
nodes = (
"126 57 LINE",
"290 301 LINE",
"452 57 LINE"
);
}
);
width = 572;
}
);
},
{
glyphname = exclam;
layers = (
{
hints = (
{
place = "{70, 183}";
type = Stem;
},
{
place = "{74, 175}";
type = Stem;
},
{
horizontal = 1;
place = "{-12, 168}";
type = Stem;
},
{
horizontal = 1;
place = "{702, -20}";
target = down;
type = TopGhost;
}
);
layerId = "5589ED66-9AD9-444D-B825-B0F286D52CD7";
paths = (
{
closed = 1;
nodes = (
"73 702 LINE",
"75 617 LINE",
"119 220 LINE",
"204 220 LINE",
"249 617 LINE",
"250 702 LINE"
);
},
{
closed = 1;
nodes = (
"70 18 OFFCURVE",
"110 -12 OFFCURVE",
"161 -12 CURVE SMOOTH",
"212 -12 OFFCURVE",
"253 18 OFFCURVE",
"253 73 CURVE SMOOTH",
"253 126 OFFCURVE",
"212 156 OFFCURVE",
"161 156 CURVE SMOOTH",
"111 156 OFFCURVE",
"70 126 OFFCURVE",
"70 73 CURVE SMOOTH"
);
}
);
width = 324;
}
);
unicode = 0021;
},
{
glyphname = quotedbl;
layers = (
{
hints = (
{
place = "{83, 420}";
type = Stem;
},
{
horizontal = 1;
place = "{375, 328}";
type = Stem;
},
{
horizontal = 1;
place = "{703, -20}";
target = down;
type = TopGhost;
}
);
layerId = "5589ED66-9AD9-444D-B825-B0F286D52CD7";
paths = (
{
closed = 1;
nodes = (
"167 375 LINE",
"268 683 LINE",
"272 702 LINE",
"272 703 LINE",
"106 703 LINE",
"83 375 LINE"
);
},
{
closed = 1;
nodes = (
"313 375 LINE",
"398 375 LINE",
"499 683 LINE",
"503 702 LINE",
"503 703 LINE",
"337 703 LINE"
);
}
);
width = 586;
}
);
unicode = 0022;
},
{
glyphname = numbersign;
layers = (
{
hints = (
{
horizontal = 1;
place = "{0, 21}";
target = up;
type = BottomGhost;
},
{
horizontal = 1;
place = "{155, 131}";
type = Stem;
},
{
horizontal = 1;
place = "{421, 131}";
type = Stem;
},
{
horizontal = 1;
place = "{702, -20}";
target = down;
type = TopGhost;
},
{
place = "{30, 619}";
type = Stem;
}
);
layerId = "5589ED66-9AD9-444D-B825-B0F286D52CD7";
paths = (
{
closed = 1;
nodes = (
"91 0 LINE",
"212 0 LINE",
"237 155 LINE",
"376 155 LINE",
"351 0 LINE",
"472 0 LINE",
"497 155 LINE",
"616 155 LINE",
"616 286 LINE",
"519 286 LINE",
"541 421 LINE",
"649 421 LINE",
"649 552 LINE",
"564 552 LINE",
"587 702 LINE",
"466 702 LINE",
"443 552 LINE",
"304 552 LINE",
"328 702 LINE",
"207 702 LINE",
"183 552 LINE",
"63 552 LINE",
"63 421 LINE",
"161 421 LINE",
"139 286 LINE",
"30 286 LINE",
"30 155 LINE",
"117 155 LINE"
);
},
{
closed = 1;
nodes = (
"423 423 LINE",
"400 283 LINE",
"256 283 LINE",
"280 423 LINE"
);
}
);
width = 677;
}
);
unicode = 0023;
},
{
glyphname = dollar;
layers = (
{
hints = (
{
place = "{47, 145}";
type = Stem;
},
{
place = "{270, 91}";
type = Stem;
},
{
place = "{274, 84}";
type = Stem;
},
{
place = "{442, 143}";
type = Stem;
},
{
horizontal = 1;
place = "{0, 118}";
type = Stem;
},
{
horizontal = 1;
place = "{-1, 21}";
target = up;
type = BottomGhost;
},
{
horizontal = 1;
place = "{583, 181}";
type = Stem;
},
{
horizontal = 1;
place = "{702, -20}";
target = down;
type = TopGhost;
},
{
horizontal = 1;
place = "{704, -20}";
target = down;
type = TopGhost;
}
);
layerId = "5589ED66-9AD9-444D-B825-B0F286D52CD7";
paths = (
{
closed = 1;
nodes = (
"270 -97 LINE",
"361 -97 LINE",
"361 -1 LINE",
"494 12 OFFCURVE",
"585 88 OFFCURVE",
"585 205 CURVE SMOOTH",
"585 318 OFFCURVE",
"511 375 OFFCURVE",
"359 416 CURVE",
"359 583 LINE",
"404 576 OFFCURVE",
"443 556 OFFCURVE",
"472 518 CURVE",
"554 607 LINE",
"513 656 OFFCURVE",
"447 694 OFFCURVE",
"362 702 CURVE",
"362 764 LINE",
"271 764 LINE",
"271 704 LINE",
"134 693 OFFCURVE",
"47 614 OFFCURVE",
"47 502 CURVE SMOOTH",
"47 385 OFFCURVE",
"127 328 OFFCURVE",
"274 289 CURVE",
"274 118 LINE",
"212 124 OFFCURVE",
"153 160 OFFCURVE",
"112 206 CURVE",
"22 109 LINE",
"90 41 OFFCURVE",
"179 0 OFFCURVE",
"270 0 CURVE"
);
},
{
closed = 1;
nodes = (
"192 550 OFFCURVE",
"218 578 OFFCURVE",
"275 583 CURVE",
"275 435 LINE",
"215 456 OFFCURVE",
"192 479 OFFCURVE",
"192 515 CURVE SMOOTH"
);
},
{
closed = 1;
nodes = (
"442 155 OFFCURVE",
"417 127 OFFCURVE",
"358 119 CURVE",
"358 271 LINE",
"426 250 OFFCURVE",
"442 221 OFFCURVE",
"442 192 CURVE SMOOTH"
);
}
);
width = 619;
}
);
unicode = 0024;
},
{
glyphname = percent;
layers = (
{
hints = (
{
place = "{40, 104}";
type = Stem;
},
{
place = "{287, 104}";
type = Stem;
},
{
place = "{492, 104}";
type = Stem;
},
{
place = "{739, 104}";
type = Stem;
},
{
horizontal = 1;
place = "{-10, 93}";
type = Stem;
},
{
horizontal = 1;
place = "{-6, 21}";
target = up;
type = BottomGhost;
},
{
horizontal = 1;
place = "{-1, 21}";
target = up;
type = BottomGhost;
},
{
horizontal = 1;
place = "{267, 94}";
type = Stem;
},
{
horizontal = 1;
place = "{342, 94}";
type = Stem;
},
{
horizontal = 1;
place = "{621, 93}";
type = Stem;
},
{
horizontal = 1;
place = "{708, -20}";
target = down;
type = TopGhost;
}
);
layerId = "5589ED66-9AD9-444D-B825-B0F286D52CD7";
paths = (
{
closed = 1;
nodes = (
"391 631 OFFCURVE",
"321 714 OFFCURVE",
"216 714 CURVE SMOOTH",
"111 714 OFFCURVE",
"40 631 OFFCURVE",
"40 529 CURVE SMOOTH",
"40 426 OFFCURVE",
"110 342 OFFCURVE",
"215 342 CURVE SMOOTH",
"320 342 OFFCURVE",
"391 427 OFFCURVE",
"391 530 CURVE SMOOTH"
);
},
{
closed = 1;
nodes = (
"757 703 LINE",
"645 708 LINE",
"124 -1 LINE",
"236 -6 LINE"
);
},
{
closed = 1;
nodes = (
"287 476 OFFCURVE",
"260 436 OFFCURVE",
"216 436 CURVE SMOOTH",
"174 436 OFFCURVE",
"144 475 OFFCURVE",
"144 530 CURVE SMOOTH",
"144 582 OFFCURVE",
"172 621 OFFCURVE",
"215 621 CURVE SMOOTH",
"257 621 OFFCURVE",
"287 582 OFFCURVE",
"287 528 CURVE SMOOTH"
);
},
{
closed = 1;
nodes = (
"843 279 OFFCURVE",
"773 361 OFFCURVE",
"668 361 CURVE SMOOTH",
"563 361 OFFCURVE",
"492 278 OFFCURVE",
"492 175 CURVE SMOOTH",
"492 74 OFFCURVE",
"561 -10 OFFCURVE",
"667 -10 CURVE SMOOTH",
"772 -10 OFFCURVE",
"843 76 OFFCURVE",
"843 176 CURVE SMOOTH"
);
},
{
closed = 1;
nodes = (
"739 123 OFFCURVE",
"711 83 OFFCURVE",
"668 83 CURVE SMOOTH",
"627 83 OFFCURVE",
"596 122 OFFCURVE",
"596 176 CURVE SMOOTH",
"596 230 OFFCURVE",
"623 267 OFFCURVE",
"667 267 CURVE SMOOTH",
"710 267 OFFCURVE",
"739 229 OFFCURVE",
"739 175 CURVE SMOOTH"
);
}
);
width = 882;
}
);
unicode = 0025;
},
{
glyphname = ampersand;
layers = (
{
hints = (
{
place = "{46, 159}";
type = Stem;
},
{
place = "{144, 136}";
type = Stem;
},
{
place = "{415, 129}";
type = Stem;
},
{
horizontal = 1;
place = "{-12, 118}";
type = Stem;
},
{
horizontal = 1;
place = "{-5, 21}";
target = up;
type = BottomGhost;
},
{
horizontal = 1;
place = "{608, 111}";
type = Stem;
}
);
layerId = "5589ED66-9AD9-444D-B825-B0F286D52CD7";
paths = (
{
closed = 1;
nodes = (
"575 380 LINE",
"553 335 OFFCURVE",
"530 294 OFFCURVE",
"504 255 CURVE",
"400 366 LINE",
"487 405 OFFCURVE",
"544 461 OFFCURVE",
"544 547 CURVE SMOOTH",
"544 644 OFFCURVE",
"467 719 OFFCURVE",
"349 719 CURVE SMOOTH",
"224 719 OFFCURVE",
"144 639 OFFCURVE",
"144 540 CURVE SMOOTH",
"144 490 OFFCURVE",
"163 442 OFFCURVE",
"198 394 CURVE",
"98 352 OFFCURVE",
"46 285 OFFCURVE",
"46 192 CURVE SMOOTH",
"46 65 OFFCURVE",
"150 -12 OFFCURVE",
"287 -12 CURVE SMOOTH",
"371 -12 OFFCURVE",
"437 18 OFFCURVE",
"498 70 CURVE",
"569 -5 LINE",
"716 27 LINE",
"588 168 LINE",
"623 218 OFFCURVE",
"660 285 OFFCURVE",
"690 343 CURVE"
);
},
{
closed = 1;
nodes = (
"387 608 OFFCURVE",
"415 582 OFFCURVE",
"415 541 CURVE SMOOTH",
"415 499 OFFCURVE",
"382 466 OFFCURVE",
"326 441 CURVE",
"296 477 OFFCURVE",
"280 504 OFFCURVE",
"280 535 CURVE SMOOTH",
"280 579 OFFCURVE",
"309 608 OFFCURVE",
"348 608 CURVE SMOOTH"
);
},
{
closed = 1;
nodes = (
"416 157 LINE",
"383 127 OFFCURVE",
"347 106 OFFCURVE",
"306 106 CURVE SMOOTH",
"246 106 OFFCURVE",
"205 146 OFFCURVE",
"205 199 CURVE SMOOTH",
"205 243 OFFCURVE",
"230 277 OFFCURVE",
"280 303 CURVE"
);
}
);
width = 727;
}
);
unicode = 0026;
},
{
glyphname = quotesingle;
layers = (
{
hints = (
{
horizontal = 1;
place = "{703, -20}";
target = down;
type = TopGhost;
},
{
place = "{83, 192}";
type = Stem;
}
);
layerId = "5589ED66-9AD9-444D-B825-B0F286D52CD7";
paths = (
{
closed = 1;
nodes = (
"83 375 LINE",
"170 375 LINE",
"271 683 LINE",
"275 702 LINE",
"275 703 LINE",
"106 703 LINE"
);
}
);
width = 358;
}
);
unicode = 0027;
},
{
glyphname = parenleft;
layers = (
{
hints = (
{
horizontal = 1;
place = "{716, -20}";
target = down;
type = TopGhost;
},
{
place = "{72, 151}";
type = Stem;
}
);
layerId = "5589ED66-9AD9-444D-B825-B0F286D52CD7";
paths = (
{
closed = 1;
nodes = (
"223 426 OFFCURVE",
"281 527 OFFCURVE",
"409 627 CURVE",
"331 716 LINE",
"172 612 OFFCURVE",
"72 482 OFFCURVE",
"72 286 CURVE SMOOTH",
"72 89 OFFCURVE",
"168 -44 OFFCURVE",
"329 -141 CURVE",
"409 -53 LINE",
"281 46 OFFCURVE",
"223 146 OFFCURVE",
"223 286 CURVE SMOOTH"
);
}
);
width = 448;
}
);
unicode = 0028;
},
{
glyphname = parenright;
layers = (
{
hints = (
{
horizontal = 1;
place = "{716, -20}";
target = down;
type = TopGhost;
},
{
place = "{226, 151}";
type = Stem;
}
);
layerId = "5589ED66-9AD9-444D-B825-B0F286D52CD7";
paths = (
{
closed = 1;
nodes = (
"226 148 OFFCURVE",
"170 46 OFFCURVE",
"40 -53 CURVE",
"120 -141 LINE",
"284 -41 OFFCURVE",
"377 90 OFFCURVE",
"377 286 CURVE SMOOTH",
"377 480 OFFCURVE",
"284 611 OFFCURVE",
"118 716 CURVE",
"40 627 LINE",
"170 527 OFFCURVE",
"226 425 OFFCURVE",
"226 286 CURVE SMOOTH"
);
}
);
width = 449;
}
);
unicode = 0029;
},
{
glyphname = asterisk;
layers = (
{
hints = (
{
horizontal = 1;
place = "{531, -20}";
target = down;
type = TopGhost;
},
{
horizontal = 1;
place = "{715, -20}";
target = down;
type = TopGhost;
},
{
place = "{162, 75}";
type = Stem;
}
);
layerId = "5589ED66-9AD9-444D-B825-B0F286D52CD7";
paths = (
{
closed = 1;
nodes = (
"139 572 LINE",
"21 531 LINE",
"44 462 LINE",
"162 502 LINE",
"162 373 LINE",
"237 373 LINE",
"237 500 LINE",
"352 462 LINE",
"375 531 LINE",
"261 570 LINE",
"331 673 LINE",
"270 715 LINE",
"199 616 LINE",
"126 715 LINE",
"66 672 LINE"
);
}
);
width = 396;
}
);
unicode = 002A;
},
{
glyphname = plus;
layers = (
{
hints = (
{
horizontal = 1;
place = "{281, 137}";
type = Stem;
},
{
place = "{251, 142}";
type = Stem;
}
);
layerId = "5589ED66-9AD9-444D-B825-B0F286D52CD7";
paths = (
{
closed = 1;
nodes = (
"393 602 LINE",
"251 602 LINE",
"251 418 LINE",
"70 418 LINE",
"70 281 LINE",
"251 281 LINE",
"251 97 LINE",
"393 97 LINE",
"393 281 LINE",
"575 281 LINE",
"575 418 LINE",
"393 418 LINE"
);
}
);
width = 644;
}
);
unicode = 002B;
},
{
glyphname = comma;
layers = (
{
hints = (
{
horizontal = 1;
place = "{-156, 327}";
type = Stem;
},
{
place = "{16, 203}";
type = Stem;
}
);
layerId = "5589ED66-9AD9-444D-B825-B0F286D52CD7";
paths = (
{
closed = 1;
nodes = (
"219 171 LINE",
"72 171 LINE",
"16 -156 LINE",
"126 -156 LINE"
);
}
);
width = 271;
}
);
unicode = 002C;
},
{
glyphname = hyphen;
layers = (
{
hints = (
{
horizontal = 1;
place = "{204, 137}";
type = Stem;
},
{
place = "{25, 309}";
type = Stem;
}
);
layerId = "5589ED66-9AD9-444D-B825-B0F286D52CD7";
paths = (
{
closed = 1;
nodes = (
"334 341 LINE",
"25 341 LINE",
"25 204 LINE",
"334 204 LINE"
);
}
);
width = 358;
}
);
unicode = 002D;
},
{
glyphname = period;
layers = (
{
hints = (
{
place = "{70, 190}";
type = Stem;
},
{
horizontal = 1;
place = "{-12, 186}";
type = Stem;
},
{
horizontal = 1;
place = "{-12, 21}";
target = up;
type = BottomGhost;
}
);
layerId = "5589ED66-9AD9-444D-B825-B0F286D52CD7";
paths = (
{
closed = 1;
nodes = (
"70 23 OFFCURVE",
"112 -12 OFFCURVE",
"165 -12 CURVE SMOOTH",
"218 -12 OFFCURVE",
"260 23 OFFCURVE",
"260 81 CURVE SMOOTH",
"260 140 OFFCURVE",
"218 174 OFFCURVE",
"165 174 CURVE SMOOTH",
"112 174 OFFCURVE",
"70 140 OFFCURVE",
"70 81 CURVE SMOOTH"
);
}
);
width = 330;
}
);
unicode = 002E;
},
{
glyphname = slash;
layers = (
{
hints = (
{
horizontal = 1;
place = "{-115, 908}";
type = Stem;
},
{
place = "{0, 564}";
type = Stem;
}
);
layerId = "5589ED66-9AD9-444D-B825-B0F286D52CD7";
paths = (
{
closed = 1;
nodes = (
"564 788 LINE",
"438 793 LINE",
"0 -111 LINE",
"125 -115 LINE"
);
}
);
width = 564;
}
);
unicode = 002F;
},
{
glyphname = zero;
layers = (
{
hints = (
{
horizontal = 1;
place = "{-14, 140}";
type = Stem;
},
{
horizontal = 1;
place = "{576, 140}";
type = Stem;
},
{
place = "{40, 159}";
type = Stem;
},
{
place = "{490, 159}";
type = Stem;
}
);
layerId = "5589ED66-9AD9-444D-B825-B0F286D52CD7";
paths = (
{
closed = 1;
nodes = (
"155 716 OFFCURVE",
"40 554 OFFCURVE",
"40 351 CURVE SMOOTH",
"40 145 OFFCURVE",
"153 -14 OFFCURVE",
"344 -14 CURVE SMOOTH",
"536 -14 OFFCURVE",
"649 150 OFFCURVE",
"649 352 CURVE SMOOTH",
"649 557 OFFCURVE",
"536 716 OFFCURVE",
"345 716 CURVE SMOOTH"
);
},
{
closed = 1;
nodes = (
"433 576 OFFCURVE",
"490 482 OFFCURVE",
"490 351 CURVE SMOOTH",
"490 221 OFFCURVE",
"436 126 OFFCURVE",
"346 126 CURVE SMOOTH",
"255 126 OFFCURVE",
"199 219 OFFCURVE",
"199 354 CURVE SMOOTH",
"199 483 OFFCURVE",
"254 576 OFFCURVE",
"344 576 CURVE SMOOTH"
);
}
);
width = 688;
}
);
unicode = 0030;
},
{
glyphname = one;
layers = (
{
hints = (
{
horizontal = 1;
place = "{0, 21}";
target = up;
type = BottomGhost;
},
{
horizontal = 1;
place = "{559, 147}";
type = Stem;
},
{
place = "{151, 156}";
type = Stem;
}
);
layerId = "5589ED66-9AD9-444D-B825-B0F286D52CD7";
paths = (
{
closed = 1;
nodes = (
"307 706 LINE",
"12 706 LINE",
"12 559 LINE",
"151 559 LINE",
"151 0 LINE",
"307 0 LINE"
);
}
);
width = 393;
}
);
unicode = 0031;
},
{
glyphname = two;
layers = (
{
hints = (
{
horizontal = 1;
place = "{0, 131}";
type = Stem;
},
{
horizontal = 1;
place = "{576, 138}";
type = Stem;
},
{
place = "{371, 160}";
type = Stem;
}
);
layerId = "5589ED66-9AD9-444D-B825-B0F286D52CD7";
paths = (
{
closed = 1;
nodes = (
"139 714 OFFCURVE",
"26 633 OFFCURVE",
"18 473 CURVE",
"167 473 LINE",
"172 541 OFFCURVE",
"219 576 OFFCURVE",
"278 576 CURVE SMOOTH",
"339 576 OFFCURVE",
"371 540 OFFCURVE",
"371 493 CURVE SMOOTH",
"371 451 OFFCURVE",
"346 397 OFFCURVE",
"283 322 CURVE SMOOTH",
"12 0 LINE",
"540 0 LINE",
"540 131 LINE",
"309 131 LINE",
"404 250 LINE SMOOTH",
"489 357 OFFCURVE",
"531 423 OFFCURVE",
"531 502 CURVE SMOOTH",
"531 626 OFFCURVE",
"430 714 OFFCURVE",
"281 714 CURVE SMOOTH"
);
}
);
width = 591;
}
);
unicode = 0032;
},
{
glyphname = three;
layers = (
{
hints = (
{
place = "{425, 155}";
type = Stem;
},
{
horizontal = 1;
place = "{-14, 136}";
type = Stem;
},
{
horizontal = 1;
place = "{576, 130}";
type = Stem;
},
{
horizontal = 1;
place = "{589, 117}";
type = Stem;
}
);
layerId = "5589ED66-9AD9-444D-B825-B0F286D52CD7";
paths = (
{
closed = 1;
nodes = (
"561 589 LINE",
"561 706 LINE",
"86 706 LINE",
"86 576 LINE",
"367 576 LINE",
"189 404 LINE",
"211 321 LINE",
"229 323 OFFCURVE",
"273 324 OFFCURVE",
"290 324 CURVE SMOOTH",
"372 324 OFFCURVE",
"425 291 OFFCURVE",
"425 224 CURVE SMOOTH",
"425 162 OFFCURVE",
"379 122 OFFCURVE",
"310 122 CURVE SMOOTH",
"246 122 OFFCURVE",
"194 155 OFFCURVE",
"153 215 CURVE",
"40 125 LINE",
"98 41 OFFCURVE",
"192 -14 OFFCURVE",
"317 -14 CURVE SMOOTH",
"473 -14 OFFCURVE",
"580 84 OFFCURVE",
"580 222 CURVE SMOOTH",
"580 347 OFFCURVE",
"494 411 OFFCURVE",
"384 426 CURVE"
);
}
);
width = 631;
}
);
unicode = 0033;
},
{
glyphname = four;
layers = (
{
hints = (
{
horizontal = 1;
place = "{0, 21}";
target = up;
type = BottomGhost;
},
{
horizontal = 1;
place = "{142, 121}";
type = Stem;
},
{
horizontal = 1;
place = "{707, -20}";
target = down;
type = TopGhost;
},
{
place = "{396, 153}";
type = Stem;
}
);
layerId = "5589ED66-9AD9-444D-B825-B0F286D52CD7";
paths = (
{
closed = 1;
nodes = (
"376 707 LINE",
"19 259 LINE",
"46 142 LINE",
"396 142 LINE",
"396 0 LINE",
"549 0 LINE",
"549 142 LINE",
"641 142 LINE",
"641 263 LINE",
"549 263 LINE",
"549 707 LINE"
);
},
{
closed = 1;
nodes = (
"396 263 LINE",
"187 263 LINE",
"396 532 LINE"
);
}
);
width = 670;
}
);
unicode = 0034;
},
{
glyphname = five;
layers = (
{
hints = (
{
horizontal = 1;
place = "{-14, 135}";
type = Stem;
},
{
horizontal = 1;
place = "{334, 120}";
type = Stem;
},
{
horizontal = 1;
place = "{570, 132}";
type = Stem;
},
{
place = "{410, 154}";
type = Stem;
}
);
layerId = "5589ED66-9AD9-444D-B825-B0F286D52CD7";
paths = (
{
closed = 1;
nodes = (
"175 304 LINE",
"207 321 OFFCURVE",
"242 334 OFFCURVE",
"282 334 CURVE SMOOTH",
"356 334 OFFCURVE",
"410 293 OFFCURVE",
"410 229 CURVE SMOOTH",
"410 165 OFFCURVE",
"363 121 OFFCURVE",
"286 121 CURVE SMOOTH",
"223 121 OFFCURVE",
"169 150 OFFCURVE",
"115 198 CURVE",
"24 92 LINE",
"94 27 OFFCURVE",
"172 -14 OFFCURVE",
"288 -14 CURVE SMOOTH",
"452 -14 OFFCURVE",
"564 81 OFFCURVE",
"564 232 CURVE SMOOTH",
"564 379 OFFCURVE",
"452 454 OFFCURVE",
"324 454 CURVE SMOOTH",
"280 454 OFFCURVE",
"248 445 OFFCURVE",
"214 431 CURVE",
"225 570 LINE",
"534 570 LINE",
"536 702 LINE",
"100 702 LINE",
"76 357 LINE"
);
}
);
width = 611;
}
);
unicode = 0035;
},
{
glyphname = six;
layers = (
{
hints = (
{
horizontal = 1;
place = "{-14, 125}";
type = Stem;
},
{
horizontal = 1;
place = "{333, 115}";
type = Stem;
},
{
horizontal = 1;
place = "{706, -20}";
target = down;
type = TopGhost;
},
{
place = "{39, 159}";
type = Stem;
},
{
place = "{435, 154}";
type = Stem;
}
);
layerId = "5589ED66-9AD9-444D-B825-B0F286D52CD7";
paths = (
{
closed = 1;
nodes = (
"300 706 LINE",
"158 492 LINE SMOOTH",
"70 359 OFFCURVE",
"39 296 OFFCURVE",
"39 223 CURVE SMOOTH",
"39 81 OFFCURVE",
"152 -14 OFFCURVE",
"321 -14 CURVE SMOOTH",
"473 -14 OFFCURVE",
"589 83 OFFCURVE",
"589 232 CURVE SMOOTH",
"589 369 OFFCURVE",
"504 448 OFFCURVE",
"381 448 CURVE SMOOTH",
"322 448 OFFCURVE",
"295 436 OFFCURVE",
"259 409 CURVE",
"467 706 LINE"
);
},
{
closed = 1;
nodes = (
"198 284 OFFCURVE",
"244 333 OFFCURVE",
"316 333 CURVE SMOOTH",
"388 333 OFFCURVE",
"435 286 OFFCURVE",
"435 224 CURVE SMOOTH",
"435 159 OFFCURVE",
"389 111 OFFCURVE",
"318 111 CURVE SMOOTH",
"247 111 OFFCURVE",
"198 161 OFFCURVE",
"198 223 CURVE SMOOTH"
);
}
);
width = 629;
}
);
unicode = 0036;
},
{
glyphname = seven;
layers = (
{
hints = (
{
horizontal = 1;
place = "{0, 21}";
target = up;
type = BottomGhost;
},
{
horizontal = 1;
place = "{568, 134}";
type = Stem;
},
{
place = "{32, 519}";
type = Stem;
}
);
layerId = "5589ED66-9AD9-444D-B825-B0F286D52CD7";
paths = (
{
closed = 1;
nodes = (
"551 579 LINE",
"551 702 LINE",
"32 702 LINE",
"32 568 LINE",
"378 568 LINE",
"58 0 LINE",
"232 0 LINE"
);
}
);
width = 543;
}
);
unicode = 0037;
},
{
glyphname = eight;
layers = (
{
hints = (
{
place = "{51, 154}";
type = Stem;
},
{
place = "{76, 147}";
type = Stem;
},
{
place = "{429, 147}";
type = Stem;
},
{
place = "{447, 153}";
type = Stem;
},
{
horizontal = 1;
place = "{-12, 121}";
type = Stem;
},
{
horizontal = 1;
place = "{304, 108}";
type = Stem;
},
{
horizontal = 1;
place = "{593, 121}";
type = Stem;
}
);
layerId = "5589ED66-9AD9-444D-B825-B0F286D52CD7";
paths = (
{
closed = 1;
nodes = (
"576 632 OFFCURVE",
"470 714 OFFCURVE",
"326 714 CURVE SMOOTH",
"181 714 OFFCURVE",
"76 632 OFFCURVE",
"76 521 CURVE SMOOTH",
"76 446 OFFCURVE",
"117 397 OFFCURVE",
"177 365 CURVE",
"97 332 OFFCURVE",
"51 274 OFFCURVE",
"51 193 CURVE SMOOTH",
"51 73 OFFCURVE",
"167 -12 OFFCURVE",
"326 -12 CURVE SMOOTH",
"484 -12 OFFCURVE",
"600 70 OFFCURVE",
"600 195 CURVE SMOOTH",
"600 273 OFFCURVE",
"551 332 OFFCURVE",
"474 365 CURVE",
"534 397 OFFCURVE",
"576 445 OFFCURVE",
"576 520 CURVE SMOOTH"
);
},
{
closed = 1;
nodes = (
"223 554 OFFCURVE",
"265 593 OFFCURVE",
"326 593 CURVE SMOOTH",
"387 593 OFFCURVE",
"429 554 OFFCURVE",
"429 504 CURVE SMOOTH",
"429 453 OFFCURVE",
"386 412 OFFCURVE",
"326 412 CURVE SMOOTH",
"266 412 OFFCURVE",
"223 454 OFFCURVE",
"223 504 CURVE SMOOTH"
);
},
{
closed = 1;
nodes = (
"205 264 OFFCURVE",
"255 304 OFFCURVE",
"326 304 CURVE SMOOTH",
"396 304 OFFCURVE",
"447 264 OFFCURVE",
"447 208 CURVE SMOOTH",
"447 155 OFFCURVE",
"401 109 OFFCURVE",
"326 109 CURVE SMOOTH",
"250 109 OFFCURVE",
"205 155 OFFCURVE",
"205 208 CURVE SMOOTH"
);
}
);
width = 652;
}
);
unicode = 0038;
},
{
glyphname = nine;
layers = (
{
hints = (
{
horizontal = 1;
place = "{-1, 21}";
target = up;
type = BottomGhost;
},
{
horizontal = 1;
place = "{256, 117}";
type = Stem;
},
{
horizontal = 1;
place = "{595, 125}";
type = Stem;
},
{
place = "{39, 155}";
type = Stem;
},
{
place = "{430, 159}";
type = Stem;
}
);
layerId = "5589ED66-9AD9-444D-B825-B0F286D52CD7";
paths = (
{
closed = 1;
nodes = (
"328 -1 LINE",
"503 267 LINE SMOOTH",
"562 358 OFFCURVE",
"589 419 OFFCURVE",
"589 482 CURVE SMOOTH",
"589 624 OFFCURVE",
"479 720 OFFCURVE",
"305 720 CURVE SMOOTH",
"157 720 OFFCURVE",
"39 623 OFFCURVE",
"39 475 CURVE SMOOTH",
"39 339 OFFCURVE",
"125 256 OFFCURVE",
"248 256 CURVE SMOOTH",
"302 256 OFFCURVE",
"333 269 OFFCURVE",
"369 297 CURVE",
"161 -1 LINE"
);
},
{
closed = 1;
nodes = (
"430 422 OFFCURVE",
"383 373 OFFCURVE",
"312 373 CURVE SMOOTH",
"241 373 OFFCURVE",
"194 422 OFFCURVE",
"194 484 CURVE SMOOTH",
"194 546 OFFCURVE",
"239 595 OFFCURVE",
"310 595 CURVE SMOOTH",
"380 595 OFFCURVE",
"430 546 OFFCURVE",
"430 484 CURVE SMOOTH"
);
}
);
width = 628;
}
);
unicode = 0039;
},
{
glyphname = colon;
layers = (
{
hints = (
{
place = "{70, 190}";
type = Stem;
},
{
horizontal = 1;
place = "{-12, 186}";
type = Stem;
},
{
horizontal = 1;
place = "{-12, 21}";
target = up;
type = BottomGhost;
},
{
horizontal = 1;
place = "{345, 187}";
type = Stem;
},
{
horizontal = 1;
place = "{532, -20}";
target = down;
type = TopGhost;
}
);
layerId = "5589ED66-9AD9-444D-B825-B0F286D52CD7";
paths = (
{
closed = 1;
nodes = (
"70 379 OFFCURVE",
"110 345 OFFCURVE",
"165 345 CURVE SMOOTH",
"218 345 OFFCURVE",
"260 379 OFFCURVE",
"260 439 CURVE SMOOTH",
"260 498 OFFCURVE",
"218 532 OFFCURVE",
"165 532 CURVE SMOOTH",
"110 532 OFFCURVE",
"70 498 OFFCURVE",
"70 439 CURVE SMOOTH"
);
},
{
closed = 1;
nodes = (
"70 23 OFFCURVE",
"110 -12 OFFCURVE",
"165 -12 CURVE SMOOTH",
"218 -12 OFFCURVE",
"260 23 OFFCURVE",
"260 82 CURVE SMOOTH",
"260 141 OFFCURVE",
"218 174 OFFCURVE",
"165 174 CURVE SMOOTH",
"110 174 OFFCURVE",
"70 141 OFFCURVE",
"70 82 CURVE SMOOTH"
);
}
);
width = 330;
}
);
unicode = 003A;
},
{
glyphname = semicolon;
layers = (
{
hints = (
{
place = "{42, 190}";
type = Stem;
},
{
horizontal = 1;
place = "{345, 187}";
type = Stem;
},
{
horizontal = 1;
place = "{532, -20}";
target = down;
type = TopGhost;
}
);
layerId = "5589ED66-9AD9-444D-B825-B0F286D52CD7";
paths = (
{
closed = 1;
nodes = (
"42 379 OFFCURVE",
"83 345 OFFCURVE",
"137 345 CURVE SMOOTH",
"190 345 OFFCURVE",
"232 379 OFFCURVE",
"232 439 CURVE SMOOTH",
"232 498 OFFCURVE",
"190 532 OFFCURVE",
"137 532 CURVE SMOOTH",
"83 532 OFFCURVE",
"42 498 OFFCURVE",
"42 439 CURVE SMOOTH"
);
},
{
closed = 1;
nodes = (
"220 171 LINE",
"72 171 LINE",
"16 -156 LINE",
"126 -156 LINE"
);
}
);
width = 283;
}
);
unicode = 003B;
},
{
glyphname = less;
layers = (
{
hints = (
{
horizontal = 1;
place = "{70, 557}";
type = Stem;
},
{
place = "{76, 491}";
type = Stem;
}
);
layerId = "5589ED66-9AD9-444D-B825-B0F286D52CD7";
paths = (
{
closed = 1;
nodes = (
"567 627 LINE",
"76 419 LINE",
"76 278 LINE",
"567 70 LINE",
"567 215 LINE",
"220 349 LINE",
"567 483 LINE"
);
}
);
width = 642;
}
);
unicode = 003C;
},
{
glyphname = equal;
layers = (
{
hints = (
{
horizontal = 1;
place = "{155, 136}";
type = Stem;
},
{
horizontal = 1;
place = "{415, 136}";
type = Stem;
},
{
place = "{70, 485}";
type = Stem;
}
);
layerId = "5589ED66-9AD9-444D-B825-B0F286D52CD7";
paths = (
{
closed = 1;
nodes = (
"70 551 LINE",
"70 415 LINE",
"555 415 LINE",
"555 551 LINE"
);
},
{
closed = 1;
nodes = (
"70 291 LINE",
"70 155 LINE",
"555 155 LINE",
"555 291 LINE"
);
}
);
width = 625;
}
);
unicode = 003D;
},
{
glyphname = greater;
layers = (
{
hints = (
{
horizontal = 1;
place = "{70, 557}";
type = Stem;
},
{
place = "{76, 490}";
type = Stem;
}
);
layerId = "5589ED66-9AD9-444D-B825-B0F286D52CD7";
paths = (
{
closed = 1;
nodes = (
"76 482 LINE",
"423 348 LINE",
"76 215 LINE",
"76 70 LINE",
"566 277 LINE",
"566 420 LINE",
"76 627 LINE"
);
}
);
width = 642;
}
);
unicode = 003E;
},
{
glyphname = question;
layers = (
{
hints = (
{
place = "{138, 184}";
type = Stem;
},
{
place = "{151, 144}";
type = Stem;
},
{
place = "{299, 155}";
type = Stem;
},
{
horizontal = 1;
place = "{-12, 168}";
type = Stem;
},
{
horizontal = 1;
place = "{578, 134}";
type = Stem;
}
);
layerId = "5589ED66-9AD9-444D-B825-B0F286D52CD7";
paths = (
{
closed = 1;
nodes = (
"260 578 OFFCURVE",
"299 551 OFFCURVE",
"299 511 CURVE SMOOTH",
"299 475 OFFCURVE",
"271 446 OFFCURVE",
"241 421 CURVE SMOOTH",
"197 384 OFFCURVE",
"151 341 OFFCURVE",
"151 258 CURVE SMOOTH",
"151 209 LINE",
"295 209 LINE",
"295 240 LINE SMOOTH",
"295 289 OFFCURVE",
"310 308 OFFCURVE",
"349 341 CURVE",
"410 390 OFFCURVE",
"454 436 OFFCURVE",
"454 521 CURVE SMOOTH",
"454 641 OFFCURVE",
"356 712 OFFCURVE",
"238 712 CURVE SMOOTH",
"159 712 OFFCURVE",
"88 683 OFFCURVE",
"43 625 CURVE",
"43 487 LINE",
"86 536 OFFCURVE",
"147 578 OFFCURVE",
"211 578 CURVE SMOOTH"
);
},
{
closed = 1;
nodes = (
"138 18 OFFCURVE",
"179 -12 OFFCURVE",
"229 -12 CURVE SMOOTH",
"280 -12 OFFCURVE",
"322 18 OFFCURVE",
"322 73 CURVE SMOOTH",
"322 126 OFFCURVE",
"280 156 OFFCURVE",
"229 156 CURVE SMOOTH",
"179 156 OFFCURVE",
"138 126 OFFCURVE",
"138 73 CURVE SMOOTH"
);
}
);
width = 497;
}
);
unicode = 003F;
},
{
glyphname = at;
layers = (
{
hints = (
{
place = "{42, 52}";
type = Stem;
},
{
place = "{221, 133}";
type = Stem;
},
{
place = "{841, 51}";
type = Stem;
},
{
horizontal = 1;
place = "{-139, 48}";
type = Stem;
},
{
horizontal = 1;
place = "{74, 60}";
type = Stem;
},
{
horizontal = 1;
place = "{76, 112}";
type = Stem;
},
{
horizontal = 1;
place = "{409, 112}";
type = Stem;
},
{
horizontal = 1;
place = "{669, 47}";
type = Stem;
}
);
layerId = "5589ED66-9AD9-444D-B825-B0F286D52CD7";
paths = (
{
closed = 1;
nodes = (
"725 -28 LINE",
"649 -74 OFFCURVE",
"576 -91 OFFCURVE",
"481 -91 CURVE SMOOTH",
"247 -91 OFFCURVE",
"94 70 OFFCURVE",
"94 287 CURVE SMOOTH",
"94 503 OFFCURVE",
"251 669 OFFCURVE",
"474 669 CURVE SMOOTH",
"691 669 OFFCURVE",
"841 522 OFFCURVE",
"841 332 CURVE SMOOTH",
"841 206 OFFCURVE",
"794 134 OFFCURVE",
"730 134 CURVE SMOOTH",
"680 134 OFFCURVE",
"663 180 OFFCURVE",
"669 230 CURVE",
"712 490 LINE",
"585 508 LINE",
"574 446 LINE",
"547 488 OFFCURVE",
"506 521 OFFCURVE",
"440 521 CURVE SMOOTH",
"322 521 OFFCURVE",
"221 409 OFFCURVE",
"221 272 CURVE SMOOTH",
"221 154 OFFCURVE",
"299 76 OFFCURVE",
"401 76 CURVE SMOOTH",
"466 76 OFFCURVE",
"512 108 OFFCURVE",
"549 153 CURVE",
"572 107 OFFCURVE",
"613 74 OFFCURVE",
"689 74 CURVE SMOOTH",
"796 74 OFFCURVE",
"892 163 OFFCURVE",
"892 336 CURVE SMOOTH",
"892 545 OFFCURVE",
"712 716 OFFCURVE",
"474 716 CURVE SMOOTH",
"229 716 OFFCURVE",
"42 523 OFFCURVE",
"42 286 CURVE SMOOTH",
"42 49 OFFCURVE",
"225 -139 OFFCURVE",
"478 -139 CURVE SMOOTH",
"582 -139 OFFCURVE",
"668 -110 OFFCURVE",
"747 -61 CURVE"
);
},
{
closed = 1;
nodes = (
"516 409 OFFCURVE",
"550 373 OFFCURVE",
"550 319 CURVE SMOOTH",
"550 249 OFFCURVE",
"500 188 OFFCURVE",
"438 188 CURVE SMOOTH",
"387 188 OFFCURVE",
"354 223 OFFCURVE",
"354 281 CURVE SMOOTH",
"354 352 OFFCURVE",
"403 409 OFFCURVE",
"465 409 CURVE SMOOTH"
);
}
);
width = 934;
}
);
unicode = 0040;
},
{
glyphname = A;
layers = (
{
hints = (
{
horizontal = 1;
place = "{0, 21}";
target = up;
type = BottomGhost;
},
{
horizontal = 1;
place = "{149, 126}";
type = Stem;
},
{
horizontal = 1;
place = "{705, -20}";
target = down;
type = TopGhost;
},
{
place = "{-7, 751}";
type = Stem;
}
);
layerId = "5589ED66-9AD9-444D-B825-B0F286D52CD7";
paths = (
{
closed = 1;
nodes = (
"512 149 LINE",
"574 0 LINE",
"744 0 LINE",
"442 705 LINE",
"294 705 LINE",
"-7 0 LINE",
"159 0 LINE",
"221 149 LINE"
);
},
{
closed = 1;
nodes = (
"367 519 LINE",
"464 275 LINE",
"269 275 LINE"
);
}
);
width = 737;
}
);
unicode = 0041;
},
{
glyphname = B;
layers = (
{
hints = (
{
place = "{65, 154}";
type = Stem;
},
{
place = "{454, 157}";
type = Stem;
},
{
place = "{496, 157}";
type = Stem;
},
{
horizontal = 1;
place = "{0, 129}";
type = Stem;
},
{
horizontal = 1;
place = "{297, 116}";
type = Stem;
},
{
horizontal = 1;
place = "{573, 129}";
type = Stem;
}
);
layerId = "5589ED66-9AD9-444D-B825-B0F286D52CD7";
paths = (
{
closed = 1;
nodes = (
"65 0 LINE",
"381 0 LINE SMOOTH",
"561 0 OFFCURVE",
"653 80 OFFCURVE",
"653 195 CURVE SMOOTH",
"653 286 OFFCURVE",
"601 343 OFFCURVE",
"505 366 CURVE",
"570 392 OFFCURVE",
"611 446 OFFCURVE",
"611 525 CURVE SMOOTH",
"611 643 OFFCURVE",
"510 702 OFFCURVE",
"370 702 CURVE SMOOTH",
"65 702 LINE"
);
},
{
closed = 1;
nodes = (
"219 573 LINE",
"345 573 LINE SMOOTH",
"414 573 OFFCURVE",
"454 547 OFFCURVE",
"454 494 CURVE SMOOTH",
"454 445 OFFCURVE",
"417 413 OFFCURVE",
"342 413 CURVE SMOOTH",
"219 413 LINE"
);
},
{
closed = 1;
nodes = (
"219 297 LINE",
"359 297 LINE SMOOTH",
"455 297 OFFCURVE",
"496 266 OFFCURVE",
"496 214 CURVE SMOOTH",
"496 160 OFFCURVE",
"454 129 OFFCURVE",
"372 129 CURVE SMOOTH",
"219 129 LINE"
);
}
);
width = 691;
}
);
unicode = 0042;
},
{
glyphname = C;
layers = (
{
hints = (
{
horizontal = 1;
place = "{-14, 144}";
type = Stem;
},
{
horizontal = 1;
place = "{572, 144}";
type = Stem;
},
{
place = "{42, 162}";
type = Stem;
}
);
layerId = "5589ED66-9AD9-444D-B825-B0F286D52CD7";
paths = (
{
closed = 1;
nodes = (
"630 224 LINE",
"567 167 OFFCURVE",
"503 130 OFFCURVE",
"419 130 CURVE SMOOTH",
"287 130 OFFCURVE",
"204 227 OFFCURVE",
"204 352 CURVE SMOOTH",
"204 473 OFFCURVE",
"287 572 OFFCURVE",
"419 572 CURVE SMOOTH",
"508 572 OFFCURVE",
"575 536 OFFCURVE",
"622 486 CURVE",
"622 649 LINE",
"567 690 OFFCURVE",
"499 716 OFFCURVE",
"409 716 CURVE SMOOTH",
"198 716 OFFCURVE",
"42 555 OFFCURVE",
"42 350 CURVE SMOOTH",
"42 142 OFFCURVE",
"201 -14 OFFCURVE",
"403 -14 CURVE SMOOTH",
"495 -14 OFFCURVE",
"566 14 OFFCURVE",
"630 62 CURVE"
);
}
);
width = 679;
}
);
unicode = 0043;
},
{
glyphname = D;
layers = (
{
hints = (
{
horizontal = 1;
place = "{0, 140}";
type = Stem;
},
{
horizontal = 1;
place = "{561, 141}";
type = Stem;
},
{
place = "{65, 158}";
type = Stem;
},
{
place = "{545, 162}";
type = Stem;
}
);
layerId = "5589ED66-9AD9-444D-B825-B0F286D52CD7";
paths = (
{
closed = 1;
nodes = (
"65 0 LINE",
"316 0 LINE SMOOTH",
"559 0 OFFCURVE",
"707 150 OFFCURVE",
"707 354 CURVE SMOOTH",
"707 560 OFFCURVE",
"557 702 OFFCURVE",
"319 702 CURVE SMOOTH",
"65 702 LINE"
);
},
{
closed = 1;
nodes = (
"223 561 LINE",
"335 561 LINE SMOOTH",
"464 561 OFFCURVE",
"545 469 OFFCURVE",
"545 351 CURVE SMOOTH",
"545 222 OFFCURVE",
"459 140 OFFCURVE",
"319 140 CURVE SMOOTH",
"223 140 LINE"
);
}
);
width = 750;
}
);
unicode = 0044;
},
{
glyphname = E;
layers = (
{
hints = (
{
horizontal = 1;
place = "{0, 135}";
type = Stem;
},
{
horizontal = 1;
place = "{291, 127}";
type = Stem;
},
{
horizontal = 1;
place = "{566, 136}";
type = Stem;
},
{
place = "{65, 157}";
type = Stem;
}
);
layerId = "5589ED66-9AD9-444D-B825-B0F286D52CD7";
paths = (
{
closed = 1;
nodes = (
"222 291 LINE",
"561 291 LINE",
"561 418 LINE",
"222 418 LINE",
"222 566 LINE",
"594 566 LINE",
"594 702 LINE",
"65 702 LINE",
"65 0 LINE",
"601 0 LINE",
"601 135 LINE",
"222 135 LINE"
);
}
);
width = 656;
}
);
unicode = 0045;
},
{
glyphname = F;
layers = (
{
hints = (
{
horizontal = 1;
place = "{-1, 21}";
target = up;
type = BottomGhost;
},
{
horizontal = 1;
place = "{271, 133}";
type = Stem;
},
{
horizontal = 1;
place = "{563, 139}";
type = Stem;
},
{
place = "{65, 158}";
type = Stem;
}
);
layerId = "5589ED66-9AD9-444D-B825-B0F286D52CD7";
paths = (
{
closed = 1;
nodes = (
"223 271 LINE",
"557 271 LINE",
"557 404 LINE",
"223 404 LINE",
"223 563 LINE",
"591 563 LINE",
"591 702 LINE",
"65 702 LINE",
"65 -1 LINE",
"223 -1 LINE"
);
}
);
width = 636;
}
);
unicode = 0046;
},
{
glyphname = G;
layers = (
{
hints = (
{
place = "{42, 161}";
type = Stem;
},
{
place = "{430, 194}";
type = Stem;
},
{
place = "{592, 149}";
type = Stem;
},
{
horizontal = 1;
place = "{-15, 138}";
type = Stem;
},
{
horizontal = 1;
place = "{285, 121}";
type = Stem;
},
{
horizontal = 1;
place = "{575, 141}";
type = Stem;
}
);
layerId = "5589ED66-9AD9-444D-B825-B0F286D52CD7";
paths = (
{
closed = 1;
nodes = (
"592 285 LINE",
"592 177 OFFCURVE",
"502 123 OFFCURVE",
"414 123 CURVE SMOOTH",
"296 123 OFFCURVE",
"203 218 OFFCURVE",
"203 350 CURVE SMOOTH",
"203 474 OFFCURVE",
"301 575 OFFCURVE",
"430 575 CURVE SMOOTH",
"505 575 OFFCURVE",
"573 547 OFFCURVE",
"624 501 CURVE",
"624 669 LINE",
"567 700 OFFCURVE",
"492 716 OFFCURVE",
"420 716 CURVE SMOOTH",
"205 716 OFFCURVE",
"42 555 OFFCURVE",
"42 351 CURVE SMOOTH",
"42 142 OFFCURVE",
"202 -15 OFFCURVE",
"405 -15 CURVE SMOOTH",
"591 -15 OFFCURVE",
"741 100 OFFCURVE",
"741 370 CURVE SMOOTH",
"741 406 LINE",
"430 406 LINE",
"430 285 LINE"
);
}
);
width = 783;
}
);
unicode = 0047;
},
{
glyphname = H;
layers = (
{
hints = (
{
horizontal = 1;
place = "{0, 21}";
target = up;
type = BottomGhost;
},
{
horizontal = 1;
place = "{284, 141}";
type = Stem;
},
{
horizontal = 1;
place = "{702, -20}";
target = down;
type = TopGhost;
},
{
place = "{65, 157}";
type = Stem;
},
{
place = "{516, 157}";
type = Stem;
}
);
layerId = "5589ED66-9AD9-444D-B825-B0F286D52CD7";
paths = (
{
closed = 1;
nodes = (
"65 0 LINE",
"222 0 LINE",
"222 284 LINE",
"516 284 LINE",
"516 0 LINE",
"673 0 LINE",
"673 702 LINE",
"516 702 LINE",
"516 425 LINE",
"222 425 LINE",
"222 702 LINE",
"65 702 LINE"
);
}
);
width = 739;
}
);
unicode = 0048;
},
{
glyphname = J;
layers = (
{
hints = (
{
horizontal = 1;
place = "{-12, 140}";
type = Stem;
},
{
horizontal = 1;
place = "{702, -20}";
target = down;
type = TopGhost;
},
{
place = "{223, 157}";
type = Stem;
}
);
layerId = "5589ED66-9AD9-444D-B825-B0F286D52CD7";
paths = (
{
closed = 1;
nodes = (
"0 35 LINE",
"42 6 OFFCURVE",
"89 -12 OFFCURVE",
"140 -12 CURVE SMOOTH",
"290 -12 OFFCURVE",
"380 85 OFFCURVE",
"380 240 CURVE SMOOTH",
"380 702 LINE",
"223 702 LINE",
"223 240 LINE SMOOTH",
"223 162 OFFCURVE",
"186 128 OFFCURVE",
"130 128 CURVE SMOOTH",
"78 128 OFFCURVE",
"38 159 OFFCURVE",
"0 191 CURVE"
);
}
);
width = 439;
}
);
unicode = 004A;
},
{
glyphname = K;
layers = (
{
hints = (
{
horizontal = 1;
place = "{0, 21}";
target = up;
type = BottomGhost;
},
{
horizontal = 1;
place = "{702, -20}";
target = down;
type = TopGhost;
},
{
place = "{65, 157}";
type = Stem;
}
);
layerId = "5589ED66-9AD9-444D-B825-B0F286D52CD7";
paths = (
{
closed = 1;
nodes = (
"222 702 LINE",
"65 702 LINE",
"65 0 LINE",
"222 0 LINE",
"222 355 LINE",
"485 0 LINE",
"677 0 LINE",
"384 391 LINE",
"661 702 LINE",
"472 702 LINE",
"222 414 LINE"
);
}
);
width = 672;
}
);
unicode = 004B;
},
{
glyphname = L;
layers = (
{
hints = (
{
horizontal = 1;
place = "{0, 139}";
type = Stem;
},
{
horizontal = 1;
place = "{702, -20}";
target = down;
type = TopGhost;
},
{
place = "{65, 158}";
type = Stem;
}
);
layerId = "5589ED66-9AD9-444D-B825-B0F286D52CD7";
paths = (
{
closed = 1;
nodes = (
"223 702 LINE",
"65 702 LINE",
"65 0 LINE",
"564 0 LINE",
"564 139 LINE",
"223 139 LINE"
);
}
);
width = 580;
}
);
unicode = 004C;
},
{
glyphname = M;
layers = (
{
hints = (
{
horizontal = 1;
place = "{0, 21}";
target = up;
type = BottomGhost;
},
{
place = "{21, 155}";
type = Stem;
},
{
place = "{599, 156}";
type = Stem;
}
);
layerId = "5589ED66-9AD9-444D-B825-B0F286D52CD7";
paths = (
{
closed = 1;
nodes = (
"387 136 LINE",
"599 456 LINE",
"599 0 LINE",
"755 0 LINE",
"755 700 LINE",
"591 700 LINE",
"388 379 LINE",
"185 700 LINE",
"21 700 LINE",
"21 0 LINE",
"176 0 LINE",
"176 455 LINE"
);
}
);
width = 777;
}
);
unicode = 004D;
},
{
glyphname = N;
layers = (
{
hints = (
{
horizontal = 1;
place = "{0, 21}";
target = up;
type = BottomGhost;
},
{
horizontal = 1;
place = "{702, -20}";
target = down;
type = TopGhost;
},
{
place = "{65, 155}";
type = Stem;
},
{
place = "{546, 155}";
type = Stem;
}
);
layerId = "5589ED66-9AD9-444D-B825-B0F286D52CD7";
paths = (
{
closed = 1;
nodes = (
"214 700 LINE",
"65 700 LINE",
"65 0 LINE",
"220 0 LINE",
"220 448 LINE",
"560 0 LINE",
"701 0 LINE",
"701 702 LINE",
"546 702 LINE",
"546 262 LINE"
);
}
);
width = 767;
}
);
unicode = 004E;
},
{
glyphname = O;
layers = (
{
hints = (
{
horizontal = 1;
place = "{-14, 142}";
type = Stem;
},
{
horizontal = 1;
place = "{573, 143}";
type = Stem;
},
{
place = "{42, 161}";
type = Stem;
},
{
place = "{626, 162}";
type = Stem;
}
);
layerId = "5589ED66-9AD9-444D-B825-B0F286D52CD7";
paths = (
{
closed = 1;
nodes = (
"788 552 OFFCURVE",
"630 716 OFFCURVE",
"416 716 CURVE SMOOTH",
"201 716 OFFCURVE",
"42 552 OFFCURVE",
"42 350 CURVE SMOOTH",
"42 149 OFFCURVE",
"199 -14 OFFCURVE",
"414 -14 CURVE SMOOTH",
"628 -14 OFFCURVE",
"788 151 OFFCURVE",
"788 353 CURVE SMOOTH"
);
},
{
closed = 1;
nodes = (
"626 230 OFFCURVE",
"540 128 OFFCURVE",
"415 128 CURVE SMOOTH",
"290 128 OFFCURVE",
"203 231 OFFCURVE",
"203 353 CURVE SMOOTH",
"203 473 OFFCURVE",
"289 573 OFFCURVE",
"415 573 CURVE SMOOTH",
"540 573 OFFCURVE",
"626 471 OFFCURVE",
"626 350 CURVE SMOOTH"
);
}
);
width = 830;
}
);
unicode = 004F;
},
{
glyphname = P;
layers = (
{
hints = (
{
horizontal = 1;
place = "{-1, 21}";
target = up;
type = BottomGhost;
},
{
horizontal = 1;
place = "{226, 127}";
type = Stem;
},
{
horizontal = 1;
place = "{568, 134}";
type = Stem;
},
{
place = "{65, 158}";
type = Stem;
},
{
place = "{461, 158}";
type = Stem;
}
);
layerId = "5589ED66-9AD9-444D-B825-B0F286D52CD7";
paths = (
{
closed = 1;
nodes = (
"65 -1 LINE",
"223 -1 LINE",
"223 226 LINE",
"332 226 LINE SMOOTH",
"496 226 OFFCURVE",
"619 312 OFFCURVE",
"619 468 CURVE SMOOTH",
"619 616 OFFCURVE",
"509 702 OFFCURVE",
"341 702 CURVE SMOOTH",
"65 702 LINE"
);
},
{
closed = 1;
nodes = (
"223 568 LINE",
"329 568 LINE SMOOTH",
"412 568 OFFCURVE",
"461 531 OFFCURVE",
"461 461 CURVE SMOOTH",
"461 395 OFFCURVE",
"411 353 OFFCURVE",
"329 353 CURVE SMOOTH",
"223 353 LINE"
);
}
);
width = 644;
}
);
unicode = 0050;
},
{
glyphname = Q;
layers = (
{
hints = (
{
horizontal = 1;
place = "{-14, 142}";
type = Stem;
},
{
horizontal = 1;
place = "{573, 143}";
type = Stem;
},
{
place = "{42, 161}";
type = Stem;
},
{
place = "{626, 162}";
type = Stem;
}
);
layerId = "5589ED66-9AD9-444D-B825-B0F286D52CD7";
paths = (
{
closed = 1;
nodes = (
"825 -125 LINE",
"825 45 LINE",
"720 143 LINE",
"766 203 OFFCURVE",
"788 268 OFFCURVE",
"788 351 CURVE SMOOTH",
"788 553 OFFCURVE",
"630 716 OFFCURVE",
"416 716 CURVE SMOOTH",
"201 716 OFFCURVE",
"42 552 OFFCURVE",
"42 350 CURVE SMOOTH",
"42 148 OFFCURVE",
"199 -14 OFFCURVE",
"414 -14 CURVE SMOOTH",
"497 -14 OFFCURVE",
"578 12 OFFCURVE",
"629 51 CURVE"
);
},
{
closed = 1;
nodes = (
"626 228 OFFCURVE",
"540 128 OFFCURVE",
"415 128 CURVE SMOOTH",
"290 128 OFFCURVE",
"203 230 OFFCURVE",
"203 351 CURVE SMOOTH",
"203 473 OFFCURVE",
"289 573 OFFCURVE",
"415 573 CURVE SMOOTH",
"540 573 OFFCURVE",
"626 471 OFFCURVE",
"626 350 CURVE SMOOTH"
);
}
);
width = 865;
}
);
unicode = 0051;
},
{
glyphname = R;
layers = (
{
hints = (
{
horizontal = 1;
place = "{0, 21}";
target = up;
type = BottomGhost;
},
{
horizontal = 1;
place = "{241, 124}";
type = Stem;
},
{
horizontal = 1;
place = "{564, 138}";
type = Stem;
},
{
place = "{65, 159}";
type = Stem;
},
{
place = "{475, 158}";
type = Stem;
}
);
layerId = "5589ED66-9AD9-444D-B825-B0F286D52CD7";
paths = (
{
closed = 1;
nodes = (
"224 0 LINE",
"224 241 LINE",
"310 241 LINE",
"477 0 LINE",
"660 0 LINE",
"473 264 LINE",
"570 295 OFFCURVE",
"633 367 OFFCURVE",
"633 475 CURVE SMOOTH",
"633 611 OFFCURVE",
"537 702 OFFCURVE",
"359 702 CURVE SMOOTH",
"65 702 LINE",
"65 0 LINE"
);
},
{
closed = 1;
nodes = (
"224 365 LINE",
"224 564 LINE",
"349 564 LINE SMOOTH",
"428 564 OFFCURVE",
"475 533 OFFCURVE",
"475 466 CURVE SMOOTH",
"475 400 OFFCURVE",
"423 365 OFFCURVE",
"344 365 CURVE SMOOTH"
);
}
);
width = 659;
}
);
unicode = 0052;
},
{
glyphname = S;
layers = (
{
hints = (
{
horizontal = 1;
place = "{-12, 132}";
type = Stem;
},
{
horizontal = 1;
place = "{585, 129}";
type = Stem;
},
{
place = "{50, 159}";
type = Stem;
},
{
place = "{424, 158}";
type = Stem;
}
);
layerId = "5589ED66-9AD9-444D-B825-B0F286D52CD7";
paths = (
{
closed = 1;
nodes = (
"216 120 OFFCURVE",
"106 166 OFFCURVE",
"23 240 CURVE",
"23 93 LINE",
"103 19 OFFCURVE",
"209 -12 OFFCURVE",
"314 -12 CURVE SMOOTH",
"458 -12 OFFCURVE",
"572 52 OFFCURVE",
"582 180 CURVE",
"598 455 OFFCURVE",
"209 401 OFFCURVE",
"209 521 CURVE SMOOTH",
"209 557 OFFCURVE",
"245 585 OFFCURVE",
"313 585 CURVE SMOOTH",
"391 585 OFFCURVE",
"487 544 OFFCURVE",
"552 481 CURVE",
"552 633 LINE",
"485 687 OFFCURVE",
"404 714 OFFCURVE",
"303 714 CURVE SMOOTH",
"171 714 OFFCURVE",
"50 646 OFFCURVE",
"50 510 CURVE SMOOTH",
"50 267 OFFCURVE",
"424 313 OFFCURVE",
"424 188 CURVE SMOOTH",
"424 131 OFFCURVE",
"359 120 OFFCURVE",
"314 120 CURVE SMOOTH"
);
}
);
width = 617;
}
);
unicode = 0053;
},
{
glyphname = T;
layers = (
{
hints = (
{
horizontal = 1;
place = "{0, 21}";
target = up;
type = BottomGhost;
},
{
horizontal = 1;
place = "{563, 139}";
type = Stem;
},
{
place = "{220, 158}";
type = Stem;
}
);
layerId = "5589ED66-9AD9-444D-B825-B0F286D52CD7";
paths = (
{
closed = 1;
nodes = (
"378 563 LINE",
"588 563 LINE",
"588 702 LINE",
"10 702 LINE",
"10 563 LINE",
"220 563 LINE",
"220 0 LINE",
"378 0 LINE"
);
}
);
width = 598;
}
);
unicode = 0054;
},
{
glyphname = U;
layers = (
{
hints = (
{
horizontal = 1;
place = "{-14, 143}";
type = Stem;
},
{
horizontal = 1;
place = "{702, -20}";
target = down;
type = TopGhost;
},
{
place = "{58, 159}";
type = Stem;
},
{
place = "{520, 159}";
type = Stem;
}
);
layerId = "5589ED66-9AD9-444D-B825-B0F286D52CD7";
paths = (
{
closed = 1;
nodes = (
"562 -14 OFFCURVE",
"679 91 OFFCURVE",
"679 304 CURVE SMOOTH",
"679 702 LINE",
"520 702 LINE",
"520 299 LINE SMOOTH",
"520 183 OFFCURVE",
"463 129 OFFCURVE",
"369 129 CURVE SMOOTH",
"272 129 OFFCURVE",
"217 190 OFFCURVE",
"217 303 CURVE SMOOTH",
"217 702 LINE",
"58 702 LINE",
"58 299 LINE SMOOTH",
"58 93 OFFCURVE",
"173 -14 OFFCURVE",
"368 -14 CURVE SMOOTH"
);
}
);
width = 739;
}
);
unicode = 0055;
},
{
glyphname = V;
layers = (
{
hints = (
{
horizontal = 1;
place = "{-3, 21}";
target = up;
type = BottomGhost;
},
{
horizontal = 1;
place = "{702, -20}";
target = down;
type = TopGhost;
},
{
place = "{-7, 717}";
type = Stem;
}
);
layerId = "5589ED66-9AD9-444D-B825-B0F286D52CD7";
paths = (
{
closed = 1;
nodes = (
"-7 702 LINE",
"275 -3 LINE",
"429 -3 LINE",
"710 702 LINE",
"537 702 LINE",
"354 201 LINE",
"169 702 LINE"
);
}
);
width = 704;
}
);
unicode = 0056;
},
{
glyphname = W;
layers = (
{
hints = (
{
horizontal = 1;
place = "{-3, 21}";
target = up;
type = BottomGhost;
},
{
horizontal = 1;
place = "{702, -20}";
target = down;
type = TopGhost;
},
{
horizontal = 1;
place = "{703, -20}";
target = down;
type = TopGhost;
},
{
place = "{-1, 1053}";
type = Stem;
}
);
layerId = "5589ED66-9AD9-444D-B825-B0F286D52CD7";
paths = (
{
closed = 1;
nodes = (
"166 702 LINE",
"-1 702 LINE",
"234 -3 LINE",
"374 -3 LINE",
"525 459 LINE",
"679 -3 LINE",
"818 -3 LINE",
"1052 702 LINE",
"889 702 LINE",
"746 239 LINE",
"597 703 LINE",
"458 703 LINE",
"311 239 LINE"
);
}
);
width = 1052;
}
);
unicode = 0057;
},
{
glyphname = X;
layers = (
{
hints = (
{
horizontal = 1;
place = "{0, 21}";
target = up;
type = BottomGhost;
},
{
horizontal = 1;
place = "{702, -20}";
target = down;
type = TopGhost;
},
{
place = "{3, 676}";
type = Stem;
}
);
layerId = "5589ED66-9AD9-444D-B825-B0F286D52CD7";
paths = (
{
closed = 1;
nodes = (
"14 702 LINE",
"248 358 LINE",
"3 0 LINE",
"182 0 LINE",
"340 239 LINE",
"498 0 LINE",
"679 0 LINE",
"434 360 LINE",
"668 702 LINE",
"490 702 LINE",
"343 477 LINE",
"196 702 LINE"
);
}
);
width = 682;
}
);
unicode = 0058;
},
{
glyphname = Y;
layers = (
{
hints = (
{
horizontal = 1;
place = "{0, 21}";
target = up;
type = BottomGhost;
},
{
horizontal = 1;
place = "{702, -20}";
target = down;
type = TopGhost;
},
{
place = "{262, 158}";
type = Stem;
}
);
layerId = "5589ED66-9AD9-444D-B825-B0F286D52CD7";
paths = (
{
closed = 1;
nodes = (
"420 270 LINE",
"687 702 LINE",
"511 702 LINE",
"343 416 LINE",
"175 702 LINE",
"-6 702 LINE",
"262 268 LINE",
"262 0 LINE",
"420 0 LINE"
);
}
);
width = 682;
}
);
unicode = 0059;
},
{
glyphname = Z;
layers = (
{
hints = (
{
horizontal = 1;
place = "{0, 134}";
type = Stem;
},
{
horizontal = 1;
place = "{567, 135}";
type = Stem;
},
{
place = "{2, 614}";
type = Stem;
}
);
layerId = "5589ED66-9AD9-444D-B825-B0F286D52CD7";
paths = (
{
closed = 1;
nodes = (
"616 583 LINE",
"616 702 LINE",
"19 702 LINE",
"19 567 LINE",
"403 567 LINE",
"2 118 LINE",
"2 0 LINE",
"609 0 LINE",
"609 134 LINE",
"217 134 LINE"
);
}
);
width = 630;
}
);
unicode = 005A;
},
{
glyphname = bracketleft;
layers = (
{
hints = (
{
horizontal = 1;
place = "{-139, 108}";
type = Stem;
},
{
horizontal = 1;
place = "{601, 108}";
type = Stem;
},
{
place = "{71, 139}";
type = Stem;
}
);
layerId = "5589ED66-9AD9-444D-B825-B0F286D52CD7";
paths = (
{
closed = 1;
nodes = (
"382 709 LINE",
"71 709 LINE",
"71 -139 LINE",
"382 -139 LINE",
"382 -31 LINE",
"210 -31 LINE",
"210 601 LINE",
"382 601 LINE"
);
}
);
width = 432;
}
);
unicode = 005B;
},
{
glyphname = backslash;
layers = (
{
hints = (
{
horizontal = 1;
place = "{-124, 916}";
type = Stem;
},
{
place = "{0, 544}";
type = Stem;
}
);
layerId = "5589ED66-9AD9-444D-B825-B0F286D52CD7";
paths = (
{
closed = 1;
nodes = (
"425 -124 LINE",
"544 -106 LINE",
"119 792 LINE",
"0 775 LINE"
);
}
);
width = 544;
}
);
unicode = 005C;
},
{
glyphname = bracketright;
layers = (
{
hints = (
{
horizontal = 1;
place = "{-140, 109}";
type = Stem;
},
{
horizontal = 1;
place = "{600, 109}";
type = Stem;
},
{
place = "{223, 140}";
type = Stem;
}
);
layerId = "5589ED66-9AD9-444D-B825-B0F286D52CD7";
paths = (
{
closed = 1;
nodes = (
"51 -140 LINE",
"363 -140 LINE",
"363 709 LINE",
"51 709 LINE",
"51 600 LINE",
"223 600 LINE",
"223 -31 LINE",
"51 -31 LINE"
);
}
);
width = 433;
}
);
unicode = 005D;
},
{
glyphname = asciicircum;
layers = (
{
hints = (
{
place = "{26, 421}";
type = Stem;
},
{
horizontal = 1;
place = "{468, 233}";
type = Stem;
},
{
horizontal = 1;
place = "{607, 94}";
type = Stem;
}
);
layerId = "5589ED66-9AD9-444D-B825-B0F286D52CD7";
paths = (
{
closed = 1;
nodes = (
"26 468 LINE",
"137 468 LINE",
"235 607 LINE",
"333 468 LINE",
"447 468 LINE",
"290 701 LINE",
"181 701 LINE"
);
}
);
width = 472;
}
);
unicode = 005E;
},
{
glyphname = underscore;
layers = (
{
hints = (
{
horizontal = 1;
place = "{-156, 99}";
type = Stem;
},
{
place = "{0, 590}";
type = Stem;
}
);
layerId = "5589ED66-9AD9-444D-B825-B0F286D52CD7";
paths = (
{
closed = 1;
nodes = (
"0 -156 LINE",
"590 -156 LINE",
"590 -57 LINE",
"0 -57 LINE"
);
}
);
width = 590;
}
);
unicode = 005F;
},
{
glyphname = grave;
layers = (
{
hints = (
{
horizontal = 1;
place = "{616, 173}";
type = Stem;
},
{
place = "{-3, 250}";
type = Stem;
}
);
layerId = "5589ED66-9AD9-444D-B825-B0F286D52CD7";
paths = (
{
closed = 1;
nodes = (
"137 616 LINE",
"247 616 LINE",
"146 789 LINE",
"-3 744 LINE"
);
}
);
width = 258;
}
);
unicode = 0060;
},
{
glyphname = a;
layers = (
{
hints = (
{
place = "{31, 151}";
type = Stem;
},
{
place = "{382, 150}";
type = Stem;
},
{
horizontal = 1;
place = "{-12, 102}";
type = Stem;
},
{
horizontal = 1;
place = "{-8, 21}";
target = up;
type = BottomGhost;
},
{
horizontal = 1;
place = "{245, 84}";
type = Stem;
},
{
horizontal = 1;
place = "{410, 120}";
type = Stem;
}
);
layerId = "5589ED66-9AD9-444D-B825-B0F286D52CD7";
paths = (
{
closed = 1;
nodes = (
"532 -8 LINE",
"532 310 LINE SMOOTH",
"532 454 OFFCURVE",
"443 530 OFFCURVE",
"279 530 CURVE SMOOTH",
"196 530 OFFCURVE",
"130 511 OFFCURVE",
"73 488 CURVE",
"73 373 LINE",
"133 400 OFFCURVE",
"188 410 OFFCURVE",
"245 410 CURVE SMOOTH",
"332 410 OFFCURVE",
"382 383 OFFCURVE",
"382 316 CURVE SMOOTH",
"382 304 LINE",
"347 319 OFFCURVE",
"297 329 OFFCURVE",
"243 329 CURVE SMOOTH",
"126 329 OFFCURVE",
"31 278 OFFCURVE",
"31 162 CURVE SMOOTH",
"31 51 OFFCURVE",
"120 -12 OFFCURVE",
"221 -12 CURVE SMOOTH",
"291 -12 OFFCURVE",
"341 13 OFFCURVE",
"380 54 CURVE"
);
},
{
closed = 1;
nodes = (
"382 133 LINE",
"353 105 OFFCURVE",
"318 90 OFFCURVE",
"275 90 CURVE SMOOTH",
"225 90 OFFCURVE",
"182 119 OFFCURVE",
"182 167 CURVE SMOOTH",
"182 217 OFFCURVE",
"229 245 OFFCURVE",
"288 245 CURVE SMOOTH",
"327 245 OFFCURVE",
"359 235 OFFCURVE",
"382 223 CURVE"
);
}
);
width = 590;
}
);
unicode = 0061;
},
{
glyphname = b;
layers = (
{
hints = (
{
place = "{57, 154}";
type = Stem;
},
{
place = "{469, 152}";
type = Stem;
},
{
horizontal = 1;
place = "{-11, 129}";
type = Stem;
},
{
horizontal = 1;
place = "{-8, 21}";
target = up;
type = BottomGhost;
},
{
horizontal = 1;
place = "{403, 130}";
type = Stem;
}
);
layerId = "5589ED66-9AD9-444D-B825-B0F286D52CD7";
paths = (
{
closed = 1;
nodes = (
"512 -11 OFFCURVE",
"621 94 OFFCURVE",
"621 261 CURVE SMOOTH",
"621 428 OFFCURVE",
"511 533 OFFCURVE",
"382 533 CURVE SMOOTH",
"302 533 OFFCURVE",
"250 494 OFFCURVE",
"211 444 CURVE",
"211 731 LINE",
"57 731 LINE",
"57 -8 LINE",
"214 68 LINE",
"250 25 OFFCURVE",
"301 -11 OFFCURVE",
"382 -11 CURVE SMOOTH"
);
},
{
closed = 1;
nodes = (
"469 176 OFFCURVE",
"412 118 OFFCURVE",
"338 118 CURVE SMOOTH",
"266 118 OFFCURVE",
"208 178 OFFCURVE",
"208 260 CURVE SMOOTH",
"208 344 OFFCURVE",
"266 403 OFFCURVE",
"338 403 CURVE SMOOTH",
"414 403 OFFCURVE",
"469 343 OFFCURVE",
"469 261 CURVE SMOOTH"
);
}
);
width = 652;
}
);
unicode = 0062;
},
{
glyphname = c;
layers = (
{
hints = (
{
horizontal = 1;
place = "{-12, 130}";
type = Stem;
},
{
horizontal = 1;
place = "{402, 130}";
type = Stem;
},
{
place = "{32, 151}";
type = Stem;
}
);
layerId = "5589ED66-9AD9-444D-B825-B0F286D52CD7";
paths = (
{
closed = 1;
nodes = (
"428 509 LINE",
"395 525 OFFCURVE",
"349 532 OFFCURVE",
"308 532 CURVE SMOOTH",
"144 532 OFFCURVE",
"32 408 OFFCURVE",
"32 260 CURVE SMOOTH",
"32 110 OFFCURVE",
"150 -12 OFFCURVE",
"304 -12 CURVE SMOOTH",
"351 -12 OFFCURVE",
"398 0 OFFCURVE",
"433 16 CURVE",
"433 164 LINE",
"399 133 OFFCURVE",
"360 118 OFFCURVE",
"321 118 CURVE SMOOTH",
"243 118 OFFCURVE",
"183 183 OFFCURVE",
"183 262 CURVE SMOOTH",
"183 341 OFFCURVE",
"238 402 OFFCURVE",
"318 402 CURVE SMOOTH",
"361 402 OFFCURVE",
"396 385 OFFCURVE",
"428 356 CURVE"
);
}
);
width = 472;
}
);
unicode = 0063;
},
{
glyphname = d;
layers = (
{
hints = (
{
place = "{31, 152}";
type = Stem;
},
{
place = "{440, 154}";
type = Stem;
},
{
horizontal = 1;
place = "{-11, 129}";
type = Stem;
},
{
horizontal = 1;
place = "{-8, 21}";
target = up;
type = BottomGhost;
},
{
horizontal = 1;
place = "{404, 129}";
type = Stem;
}
);
layerId = "5589ED66-9AD9-444D-B825-B0F286D52CD7";
paths = (
{
closed = 1;
nodes = (
"594 -8 LINE",
"594 731 LINE",
"440 731 LINE",
"440 449 LINE",
"403 496 OFFCURVE",
"350 533 OFFCURVE",
"269 533 CURVE SMOOTH",
"141 533 OFFCURVE",
"31 429 OFFCURVE",
"31 260 CURVE SMOOTH",
"31 93 OFFCURVE",
"141 -11 OFFCURVE",
"270 -11 CURVE SMOOTH",
"350 -11 OFFCURVE",
"398 26 OFFCURVE",
"437 74 CURVE"
);
},
{
closed = 1;
nodes = (
"183 346 OFFCURVE",
"242 404 OFFCURVE",
"312 404 CURVE SMOOTH",
"383 404 OFFCURVE",
"443 344 OFFCURVE",
"443 262 CURVE SMOOTH",
"443 177 OFFCURVE",
"384 118 OFFCURVE",
"312 118 CURVE SMOOTH",
"241 118 OFFCURVE",
"183 177 OFFCURVE",
"183 261 CURVE SMOOTH"
);
}
);
width = 652;
}
);
unicode = 0064;
},
{
glyphname = e;
layers = (
{
hints = (
{
horizontal = 1;
place = "{-15, 115}";
type = Stem;
},
{
horizontal = 1;
place = "{413, 117}";
type = Stem;
},
{
place = "{32, 146}";
type = Stem;
}
);
layerId = "5589ED66-9AD9-444D-B825-B0F286D52CD7";
paths = (
{
closed = 1;
nodes = (
"253 100 OFFCURVE",
"215 121 OFFCURVE",
"191 157 CURVE",
"553 249 LINE",
"548 397 OFFCURVE",
"460 530 OFFCURVE",
"297 530 CURVE SMOOTH",
"141 530 OFFCURVE",
"32 413 OFFCURVE",
"32 259 CURVE SMOOTH",
"32 100 OFFCURVE",
"144 -15 OFFCURVE",
"303 -15 CURVE SMOOTH",
"366 -15 OFFCURVE",
"444 2 OFFCURVE",
"503 43 CURVE",
"503 171 LINE",
"457 128 OFFCURVE",
"376 100 OFFCURVE",
"307 100 CURVE SMOOTH"
);
},
{
closed = 1;
nodes = (
"178 266 LINE",
"178 335 OFFCURVE",
"211 413 OFFCURVE",
"290 413 CURVE SMOOTH",
"347 413 OFFCURVE",
"388 376 OFFCURVE",
"401 318 CURVE",
"180 261 LINE"
);
}
);
width = 584;
}
);
unicode = 0065;
},
{
glyphname = f;
layers = (
{
hints = (
{
horizontal = 1;
place = "{0, 21}";
target = up;
type = BottomGhost;
},
{
horizontal = 1;
place = "{397, 120}";
type = Stem;
},
{
horizontal = 1;
place = "{622, 115}";
type = Stem;
},
{
place = "{97, 152}";
type = Stem;
}
);
layerId = "5589ED66-9AD9-444D-B825-B0F286D52CD7";
paths = (
{
closed = 1;
nodes = (
"376 723 LINE",
"350 731 OFFCURVE",
"319 737 OFFCURVE",
"279 737 CURVE SMOOTH",
"166 737 OFFCURVE",
"97 682 OFFCURVE",
"97 552 CURVE SMOOTH",
"97 518 LINE",
"9 397 LINE",
"97 397 LINE",
"97 0 LINE",
"249 0 LINE",
"249 397 LINE",
"370 397 LINE",
"370 517 LINE",
"227 517 LINE",
"227 550 LINE SMOOTH",
"227 598 OFFCURVE",
"264 622 OFFCURVE",
"308 622 CURVE SMOOTH",
"329 622 OFFCURVE",
"355 618 OFFCURVE",
"376 611 CURVE"
);
}
);
width = 373;
}
);
unicode = 0066;
},
{
glyphname = g;
layers = (
{
hints = (
{
horizontal = 1;
place = "{-173, 115}";
type = Stem;
},
{
horizontal = 1;
place = "{38, 122}";
type = Stem;
},
{
horizontal = 1;
place = "{411, 122}";
type = Stem;
},
{
place = "{37, 152}";
type = Stem;
},
{
place = "{449, 151}";
type = Stem;
}
);
layerId = "5589ED66-9AD9-444D-B825-B0F286D52CD7";
paths = (
{
closed = 1;
nodes = (
"199 -58 OFFCURVE",
"116 -23 OFFCURVE",
"60 14 CURVE",
"60 -116 LINE",
"129 -151 OFFCURVE",
"194 -173 OFFCURVE",
"284 -173 CURVE SMOOTH",
"468 -173 OFFCURVE",
"600 -80 OFFCURVE",
"600 106 CURVE SMOOTH",
"600 521 LINE",
"443 455 LINE",
"402 500 OFFCURVE",
"352 533 OFFCURVE",
"275 533 CURVE SMOOTH",
"145 533 OFFCURVE",
"37 437 OFFCURVE",
"37 285 CURVE SMOOTH",
"37 136 OFFCURVE",
"143 38 OFFCURVE",
"274 38 CURVE SMOOTH",
"355 38 OFFCURVE",
"407 75 OFFCURVE",
"449 125 CURVE",
"449 91 LINE SMOOTH",
"449 -10 OFFCURVE",
"387 -58 OFFCURVE",
"282 -58 CURVE SMOOTH"
);
},
{
closed = 1;
nodes = (
"189 359 OFFCURVE",
"243 411 OFFCURVE",
"318 411 CURVE SMOOTH",
"393 411 OFFCURVE",
"449 359 OFFCURVE",
"449 286 CURVE SMOOTH",
"449 214 OFFCURVE",
"392 160 OFFCURVE",
"318 160 CURVE SMOOTH",
"243 160 OFFCURVE",
"189 213 OFFCURVE",
"189 285 CURVE SMOOTH"
);
}
);
width = 657;
}
);
unicode = 0067;
},
{
glyphname = h;
layers = (
{
hints = (
{
horizontal = 1;
place = "{0, 21}";
target = up;
type = BottomGhost;
},
{
horizontal = 1;
place = "{393, 140}";
type = Stem;
},
{
place = "{56, 154}";
type = Stem;
},
{
place = "{397, 154}";
type = Stem;
}
);
layerId = "5589ED66-9AD9-444D-B825-B0F286D52CD7";
paths = (
{
closed = 1;
nodes = (
"296 533 OFFCURVE",
"242 494 OFFCURVE",
"207 450 CURVE",
"207 731 LINE",
"56 731 LINE",
"56 0 LINE",
"210 0 LINE",
"210 289 LINE SMOOTH",
"210 358 OFFCURVE",
"257 393 OFFCURVE",
"310 393 CURVE SMOOTH",
"363 393 OFFCURVE",
"397 358 OFFCURVE",
"397 289 CURVE SMOOTH",
"397 0 LINE",
"551 0 LINE",
"551 337 LINE SMOOTH",
"551 463 OFFCURVE",
"479 533 OFFCURVE",
"371 533 CURVE SMOOTH"
);
}
);
width = 604;
}
);
unicode = 0068;
},
{
glyphname = i;
layers = (
{
hints = (
{
place = "{43, 183}";
type = Stem;
},
{
place = "{58, 154}";
type = Stem;
},
{
horizontal = 1;
place = "{0, 21}";
target = up;
type = BottomGhost;
},
{
horizontal = 1;
place = "{584, 169}";
type = Stem;
}
);
layerId = "5589ED66-9AD9-444D-B825-B0F286D52CD7";
paths = (
{
closed = 1;
nodes = (
"43 615 OFFCURVE",
"83 584 OFFCURVE",
"134 584 CURVE SMOOTH",
"186 584 OFFCURVE",
"226 615 OFFCURVE",
"226 668 CURVE SMOOTH",
"226 723 OFFCURVE",
"186 753 OFFCURVE",
"134 753 CURVE SMOOTH",
"83 753 OFFCURVE",
"43 723 OFFCURVE",
"43 668 CURVE SMOOTH"
);
},
{
closed = 1;
nodes = (
"212 521 LINE",
"58 521 LINE",
"58 0 LINE",
"212 0 LINE"
);
}
);
width = 270;
}
);
unicode = 0069;
},
{
glyphname = j;
layers = (
{
hints = (
{
place = "{108, 184}";
type = Stem;
},
{
place = "{125, 154}";
type = Stem;
},
{
horizontal = 1;
place = "{-173, 111}";
type = Stem;
},
{
horizontal = 1;
place = "{584, 169}";
type = Stem;
}
);
layerId = "5589ED66-9AD9-444D-B825-B0F286D52CD7";
paths = (
{
closed = 1;
nodes = (
"108 615 OFFCURVE",
"149 584 OFFCURVE",
"200 584 CURVE SMOOTH",
"250 584 OFFCURVE",
"292 615 OFFCURVE",
"292 668 CURVE SMOOTH",
"292 723 OFFCURVE",
"250 753 OFFCURVE",
"200 753 CURVE SMOOTH",
"149 753 OFFCURVE",
"108 723 OFFCURVE",
"108 668 CURVE SMOOTH"
);
},
{
closed = 1;
nodes = (
"43 -166 LINE",
"64 -170 OFFCURVE",
"85 -173 OFFCURVE",
"112 -173 CURVE SMOOTH",
"228 -173 OFFCURVE",
"279 -116 OFFCURVE",
"279 4 CURVE SMOOTH",
"279 521 LINE",
"125 521 LINE",
"125 1 LINE SMOOTH",
"125 -41 OFFCURVE",
"110 -62 OFFCURVE",
"80 -62 CURVE SMOOTH",
"68 -62 OFFCURVE",
"57 -60 OFFCURVE",
"43 -55 CURVE"
);
}
);
width = 335;
}
);
unicode = 006A;
},
{
glyphname = k;
layers = (
{
hints = (
{
horizontal = 1;
place = "{0, 21}";
target = up;
type = BottomGhost;
},
{
place = "{56, 154}";
type = Stem;
}
);
layerId = "5589ED66-9AD9-444D-B825-B0F286D52CD7";
paths = (
{
closed = 1;
nodes = (
"210 731 LINE",
"56 731 LINE",
"56 0 LINE",
"210 0 LINE",
"210 261 LINE",
"381 0 LINE",
"554 0 LINE",
"349 301 LINE",
"548 521 LINE",
"369 521 LINE",
"210 334 LINE"
);
}
);
width = 554;
}
);
unicode = 006B;
},
{
glyphname = l;
layers = (
{
hints = (
{
horizontal = 1;
place = "{0, 21}";
target = up;
type = BottomGhost;
},
{
place = "{56, 154}";
type = Stem;
}
);
layerId = "5589ED66-9AD9-444D-B825-B0F286D52CD7";
paths = (
{
closed = 1;
nodes = (
"210 731 LINE",
"56 731 LINE",
"56 0 LINE",
"210 0 LINE"
);
}
);
width = 268;
}
);
unicode = 006C;
},
{
glyphname = m;
layers = (
{
hints = (
{
horizontal = 1;
place = "{0, 21}";
target = up;
type = BottomGhost;
},
{
horizontal = 1;
place = "{396, 137}";
type = Stem;
},
{
place = "{56, 154}";
type = Stem;
},
{
place = "{388, 154}";
type = Stem;
},
{
place = "{721, 154}";
type = Stem;
}
);
layerId = "5589ED66-9AD9-444D-B825-B0F286D52CD7";
paths = (
{
closed = 1;
nodes = (
"875 0 LINE",
"875 338 LINE SMOOTH",
"875 445 OFFCURVE",
"811 533 OFFCURVE",
"696 533 CURVE SMOOTH",
"619 533 OFFCURVE",
"562 500 OFFCURVE",
"520 445 CURVE",
"492 506 OFFCURVE",
"433 533 OFFCURVE",
"368 533 CURVE SMOOTH",
"304 533 OFFCURVE",
"250 504 OFFCURVE",
"209 453 CURVE",
"56 521 LINE",
"56 0 LINE",
"210 0 LINE",
"210 289 LINE SMOOTH",
"210 354 OFFCURVE",
"247 396 OFFCURVE",
"303 396 CURVE SMOOTH",
"358 396 OFFCURVE",
"388 355 OFFCURVE",
"388 289 CURVE SMOOTH",
"388 0 LINE",
"542 0 LINE",
"542 289 LINE SMOOTH",
"542 346 OFFCURVE",
"574 396 OFFCURVE",
"635 396 CURVE SMOOTH",
"687 396 OFFCURVE",
"721 362 OFFCURVE",
"721 289 CURVE SMOOTH",
"721 0 LINE"
);
}
);
width = 926;
}
);
unicode = 006D;
},
{
glyphname = n;
layers = (
{
hints = (
{
horizontal = 1;
place = "{0, 21}";
target = up;
type = BottomGhost;
},
{
horizontal = 1;
place = "{396, 137}";
type = Stem;
},
{
place = "{56, 154}";
type = Stem;
},
{
place = "{398, 154}";
type = Stem;
}
);
layerId = "5589ED66-9AD9-444D-B825-B0F286D52CD7";
paths = (
{
closed = 1;
nodes = (
"297 533 OFFCURVE",
"246 495 OFFCURVE",
"211 450 CURVE",
"56 521 LINE",
"56 0 LINE",
"210 0 LINE",
"210 289 LINE SMOOTH",
"210 365 OFFCURVE",
"261 396 OFFCURVE",
"308 396 CURVE SMOOTH",
"355 396 OFFCURVE",
"398 364 OFFCURVE",
"398 289 CURVE SMOOTH",
"398 0 LINE",
"552 0 LINE",
"552 337 LINE SMOOTH",
"552 461 OFFCURVE",
"476 533 OFFCURVE",
"371 533 CURVE SMOOTH"
);
}
);
width = 604;
}
);
unicode = 006E;
},
{
glyphname = o;
layers = (
{
hints = (
{
horizontal = 1;
place = "{-12, 130}";
type = Stem;
},
{
horizontal = 1;
place = "{403, 130}";
type = Stem;
},
{
place = "{32, 151}";
type = Stem;
},
{
place = "{451, 151}";
type = Stem;
}
);
layerId = "5589ED66-9AD9-444D-B825-B0F286D52CD7";
paths = (
{
closed = 1;
nodes = (
"602 412 OFFCURVE",
"482 533 OFFCURVE",
"317 533 CURVE SMOOTH",
"152 533 OFFCURVE",
"32 411 OFFCURVE",
"32 260 CURVE SMOOTH",
"32 110 OFFCURVE",
"151 -12 OFFCURVE",
"316 -12 CURVE SMOOTH",
"481 -12 OFFCURVE",
"602 113 OFFCURVE",
"602 262 CURVE SMOOTH"
);
},
{
closed = 1;
nodes = (
"451 184 OFFCURVE",
"397 118 OFFCURVE",
"317 118 CURVE SMOOTH",
"240 118 OFFCURVE",
"183 183 OFFCURVE",
"183 262 CURVE SMOOTH",
"183 339 OFFCURVE",
"235 403 OFFCURVE",
"316 403 CURVE SMOOTH",
"395 403 OFFCURVE",
"451 338 OFFCURVE",
"451 260 CURVE SMOOTH"
);
}
);
width = 633;
}
);
unicode = 006F;
},
{
glyphname = p;
layers = (
{
hints = (
{
horizontal = 1;
place = "{-169, 21}";
target = up;
type = BottomGhost;
},
{
horizontal = 1;
place = "{-11, 129}";
type = Stem;
},
{
horizontal = 1;
place = "{403, 130}";
type = Stem;
},
{
place = "{57, 154}";
type = Stem;
},
{
place = "{470, 152}";
type = Stem;
}
);
layerId = "5589ED66-9AD9-444D-B825-B0F286D52CD7";
paths = (
{
closed = 1;
nodes = (
"211 72 LINE",
"249 25 OFFCURVE",
"301 -11 OFFCURVE",
"383 -11 CURVE SMOOTH",
"510 -11 OFFCURVE",
"622 93 OFFCURVE",
"622 261 CURVE SMOOTH",
"622 429 OFFCURVE",
"511 533 OFFCURVE",
"382 533 CURVE SMOOTH",
"302 533 OFFCURVE",
"254 495 OFFCURVE",
"215 448 CURVE",
"57 521 LINE",
"57 -169 LINE",
"211 -169 LINE"
);
},
{
closed = 1;
nodes = (
"470 175 OFFCURVE",
"412 118 OFFCURVE",
"339 118 CURVE SMOOTH",
"268 118 OFFCURVE",
"208 178 OFFCURVE",
"208 260 CURVE SMOOTH",
"208 344 OFFCURVE",
"267 403 OFFCURVE",
"338 403 CURVE SMOOTH",
"413 403 OFFCURVE",
"470 345 OFFCURVE",
"470 262 CURVE SMOOTH"
);
}
);
width = 652;
}
);
unicode = 0070;
},
{
glyphname = q;
layers = (
{
hints = (
{
horizontal = 1;
place = "{-169, 21}";
target = up;
type = BottomGhost;
},
{
horizontal = 1;
place = "{-12, 130}";
type = Stem;
},
{
horizontal = 1;
place = "{404, 129}";
type = Stem;
},
{
place = "{31, 152}";
type = Stem;
},
{
place = "{441, 154}";
type = Stem;
}
);
layerId = "5589ED66-9AD9-444D-B825-B0F286D52CD7";
paths = (
{
closed = 1;
nodes = (
"595 -169 LINE",
"595 521 LINE",
"437 453 LINE",
"399 497 OFFCURVE",
"351 533 OFFCURVE",
"270 533 CURVE SMOOTH",
"141 533 OFFCURVE",
"31 429 OFFCURVE",
"31 260 CURVE SMOOTH",
"31 96 OFFCURVE",
"141 -12 OFFCURVE",
"271 -12 CURVE SMOOTH",
"350 -12 OFFCURVE",
"401 27 OFFCURVE",
"441 77 CURVE",
"441 -169 LINE"
);
},
{
closed = 1;
nodes = (
"183 346 OFFCURVE",
"241 404 OFFCURVE",
"313 404 CURVE SMOOTH",
"385 404 OFFCURVE",
"444 344 OFFCURVE",
"444 262 CURVE SMOOTH",
"444 179 OFFCURVE",
"385 118 OFFCURVE",
"313 118 CURVE SMOOTH",
"242 118 OFFCURVE",
"183 179 OFFCURVE",
"183 262 CURVE SMOOTH"
);
}
);
width = 652;
}
);
unicode = 0071;
},
{
glyphname = r;
layers = (
{
hints = (
{
horizontal = 1;
place = "{0, 21}";
target = up;
type = BottomGhost;
},
{
horizontal = 1;
place = "{373, 157}";
type = Stem;
},
{
place = "{56, 154}";
type = Stem;
}
);
layerId = "5589ED66-9AD9-444D-B825-B0F286D52CD7";
paths = (
{
closed = 1;
nodes = (
"388 529 LINE",
"382 530 OFFCURVE",
"376 530 OFFCURVE",
"368 530 CURVE SMOOTH",
"294 530 OFFCURVE",
"244 492 OFFCURVE",
"211 431 CURVE",
"56 521 LINE",
"56 0 LINE",
"210 0 LINE",
"210 202 LINE SMOOTH",
"210 321 OFFCURVE",
"276 373 OFFCURVE",
"363 373 CURVE SMOOTH",
"373 373 OFFCURVE",
"382 372 OFFCURVE",
"388 370 CURVE"
);
}
);
width = 392;
}
);
unicode = 0072;
},
{
glyphname = s;
layers = (
{
hints = (
{
horizontal = 1;
place = "{-11, 111}";
type = Stem;
},
{
horizontal = 1;
place = "{421, 111}";
type = Stem;
},
{
place = "{23, 141}";
type = Stem;
},
{
place = "{288, 141}";
type = Stem;
}
);
layerId = "5589ED66-9AD9-444D-B825-B0F286D52CD7";
paths = (
{
closed = 1;
nodes = (
"160 100 OFFCURVE",
"84 133 OFFCURVE",
"29 173 CURVE",
"29 41 LINE",
"92 11 OFFCURVE",
"151 -11 OFFCURVE",
"227 -11 CURVE SMOOTH",
"349 -11 OFFCURVE",
"429 54 OFFCURVE",
"429 154 CURVE SMOOTH",
"429 330 OFFCURVE",
"164 309 OFFCURVE",
"164 385 CURVE SMOOTH",
"164 405 OFFCURVE",
"182 421 OFFCURVE",
"218 421 CURVE SMOOTH",
"264 421 OFFCURVE",
"337 393 OFFCURVE",
"387 361 CURVE",
"387 493 LINE",
"334 519 OFFCURVE",
"285 532 OFFCURVE",
"218 532 CURVE SMOOTH",
"104 532 OFFCURVE",
"23 474 OFFCURVE",
"23 374 CURVE SMOOTH",
"23 196 OFFCURVE",
"288 225 OFFCURVE",
"288 145 CURVE SMOOTH",
"288 114 OFFCURVE",
"255 100 OFFCURVE",
"218 100 CURVE SMOOTH"
);
}
);
width = 460;
}
);
unicode = 0073;
},
{
glyphname = t;
layers = (
{
hints = (
{
place = "{114, 153}";
type = Stem;
},
{
horizontal = 1;
place = "{-11, 131}";
type = Stem;
},
{
horizontal = 1;
place = "{-11, 21}";
target = up;
type = BottomGhost;
},
{
horizontal = 1;
place = "{396, 125}";
type = Stem;
}
);
layerId = "5589ED66-9AD9-444D-B825-B0F286D52CD7";
paths = (
{
closed = 1;
nodes = (
"114 152 LINE SMOOTH",
"114 50 OFFCURVE",
"169 -11 OFFCURVE",
"273 -11 CURVE SMOOTH",
"315 -11 OFFCURVE",
"349 -2 OFFCURVE",
"377 13 CURVE",
"377 135 LINE",
"356 126 OFFCURVE",
"337 120 OFFCURVE",
"316 120 CURVE SMOOTH",
"282 120 OFFCURVE",
"267 139 OFFCURVE",
"267 174 CURVE SMOOTH",
"267 396 LINE",
"394 396 LINE",
"394 521 LINE",
"267 521 LINE",
"267 688 LINE",
"12 396 LINE",
"114 396 LINE"
);
}
);
width = 406;
}
);
unicode = 0074;
},
{
glyphname = u;
layers = (
{
hints = (
{
place = "{52, 154}";
type = Stem;
},
{
place = "{394, 154}";
type = Stem;
},
{
horizontal = 1;
place = "{-11, 136}";
type = Stem;
},
{
horizontal = 1;
place = "{-8, 21}";
target = up;
type = BottomGhost;
},
{
horizontal = 1;
place = "{522, -20}";
target = down;
type = TopGhost;
}
);
layerId = "5589ED66-9AD9-444D-B825-B0F286D52CD7";
paths = (
{
closed = 1;
nodes = (
"308 -11 OFFCURVE",
"360 20 OFFCURVE",
"393 62 CURVE",
"548 -8 LINE",
"548 522 LINE",
"394 522 LINE",
"394 233 LINE SMOOTH",
"394 157 OFFCURVE",
"346 125 OFFCURVE",
"297 125 CURVE SMOOTH",
"247 125 OFFCURVE",
"206 158 OFFCURVE",
"206 233 CURVE SMOOTH",
"206 522 LINE",
"52 522 LINE",
"52 185 LINE SMOOTH",
"52 60 OFFCURVE",
"120 -11 OFFCURVE",
"233 -11 CURVE SMOOTH"
);
}
);
width = 599;
}
);
unicode = 0075;
},
{
glyphname = v;
layers = (
{
hints = (
{
horizontal = 1;
place = "{-3, 21}";
target = up;
type = BottomGhost;
},
{
place = "{-5, 565}";
type = Stem;
}
);
layerId = "5589ED66-9AD9-444D-B825-B0F286D52CD7";
paths = (
{
closed = 1;
nodes = (
"560 521 LINE",
"400 521 LINE",
"279 180 LINE",
"158 521 LINE",
"-5 521 LINE",
"206 -3 LINE",
"348 -3 LINE"
);
}
);
width = 556;
}
);
unicode = 0076;
},
{
glyphname = w;
layers = (
{
hints = (
{
horizontal = 1;
place = "{-3, 21}";
target = up;
type = BottomGhost;
},
{
horizontal = 1;
place = "{523, -20}";
target = down;
type = TopGhost;
},
{
place = "{-7, 802}";
type = Stem;
}
);
layerId = "5589ED66-9AD9-444D-B825-B0F286D52CD7";
paths = (
{
closed = 1;
nodes = (
"-7 521 LINE",
"158 -3 LINE",
"292 -3 LINE",
"393 316 LINE",
"492 -3 LINE",
"629 -3 LINE",
"795 521 LINE",
"644 521 LINE",
"555 211 LINE",
"460 523 LINE",
"328 523 LINE",
"233 212 LINE",
"145 521 LINE"
);
}
);
width = 788;
}
);
unicode = 0077;
},
{
glyphname = x;
layers = (
{
hints = (
{
horizontal = 1;
place = "{0, 21}";
target = up;
type = BottomGhost;
},
{
place = "{3, 541}";
type = Stem;
}
);
layerId = "5589ED66-9AD9-444D-B825-B0F286D52CD7";
paths = (
{
closed = 1;
nodes = (
"3 0 LINE",
"167 0 LINE",
"272 157 LINE",
"377 0 LINE",
"544 0 LINE",
"359 266 LINE",
"537 521 LINE",
"373 521 LINE",
"275 374 LINE",
"177 521 LINE",
"9 521 LINE",
"189 265 LINE"
);
}
);
width = 548;
}
);
unicode = 0078;
},
{
glyphname = y;
layers = (
{
hints = (
{
horizontal = 1;
place = "{-169, 21}";
target = up;
type = BottomGhost;
},
{
place = "{-5, 566}";
type = Stem;
}
);
layerId = "5589ED66-9AD9-444D-B825-B0F286D52CD7";
paths = (
{
closed = 1;
nodes = (
"220 -4 LINE",
"162 -169 LINE",
"295 -169 LINE",
"561 521 LINE",
"402 521 LINE",
"284 163 LINE",
"157 521 LINE",
"-5 521 LINE"
);
}
);
width = 556;
}
);
unicode = 0079;
},
{
glyphname = z;
layers = (
{
hints = (
{
horizontal = 1;
place = "{0, 124}";
type = Stem;
},
{
horizontal = 1;
place = "{398, 123}";
type = Stem;
},
{
place = "{14, 490}";
type = Stem;
}
);
layerId = "5589ED66-9AD9-444D-B825-B0F286D52CD7";
paths = (
{
closed = 1;
nodes = (
"504 415 LINE",
"504 521 LINE",
"27 521 LINE",
"27 398 LINE",
"304 398 LINE",
"14 106 LINE",
"14 0 LINE",
"502 0 LINE",
"502 124 LINE",
"214 124 LINE"
);
}
);
width = 525;
}
);
unicode = 007A;
},
{
glyphname = braceleft;
layers = (
{
hints = (
{
horizontal = 1;
place = "{233, 109}";
type = Stem;
},
{
place = "{161, 140}";
type = Stem;
}
);
layerId = "5589ED66-9AD9-444D-B825-B0F286D52CD7";
paths = (
{
closed = 1;
nodes = (
"37 233 LINE",
"131 233 OFFCURVE",
"166 193 OFFCURVE",
"162 101 CURVE",
"157 -90 OFFCURVE",
"214 -125 OFFCURVE",
"404 -146 CURVE",
"408 -48 LINE",
"305 -30 OFFCURVE",
"301 22 OFFCURVE",
"303 110 CURVE SMOOTH",
"305 198 OFFCURVE",
"281 256 OFFCURVE",
"197 288 CURVE",
"325 331 OFFCURVE",
"301 412 OFFCURVE",
"301 518 CURVE SMOOTH",
"301 593 OFFCURVE",
"342 611 OFFCURVE",
"408 624 CURVE",
"404 721 LINE",
"252 707 OFFCURVE",
"161 656 OFFCURVE",
"161 499 CURVE SMOOTH",
"161 396 OFFCURVE",
"171 342 OFFCURVE",
"37 342 CURVE"
);
}
);
width = 444;
}
);
unicode = 007B;
},
{
glyphname = bar;
layers = (
{
hints = (
{
horizontal = 1;
place = "{-141, 929}";
type = Stem;
},
{
place = "{263, 121}";
type = Stem;
}
);
layerId = "5589ED66-9AD9-444D-B825-B0F286D52CD7";
paths = (
{
closed = 1;
nodes = (
"263 788 LINE",
"263 -141 LINE",
"384 -141 LINE",
"384 788 LINE"
);
}
);
width = 647;
}
);
unicode = 007C;
},
{
glyphname = braceright;
layers = (
{
hints = (
{
place = "{39, 245}";
type = Stem;
},
{
place = "{142, 143}";
type = Stem;
},
{
horizontal = 1;
place = "{-146, 867}";
type = Stem;
}
);
layerId = "5589ED66-9AD9-444D-B825-B0F286D52CD7";
paths = (
{
closed = 1;
nodes = (
"408 342 LINE",
"255 341 OFFCURVE",
"285 423 OFFCURVE",
"285 531 CURVE SMOOTH",
"285 680 OFFCURVE",
"169 708 OFFCURVE",
"41 721 CURVE",
"37 624 LINE",
"140 606 OFFCURVE",
"144 554 OFFCURVE",
"142 466 CURVE SMOOTH",
"140 377 OFFCURVE",
"163 319 OFFCURVE",
"248 288 CURVE",
"164 256 OFFCURVE",
"140 197 OFFCURVE",
"142 110 CURVE SMOOTH",
"145 22 OFFCURVE",
"138 -31 OFFCURVE",
"37 -48 CURVE",
"41 -146 LINE",
"201 -131 OFFCURVE",
"284 -82 OFFCURVE",
"284 84 CURVE SMOOTH",
"284 185 OFFCURVE",
"279 233 OFFCURVE",
"408 233 CURVE"
);
}
);
width = 444;
}
);
unicode = 007D;
},
{
glyphname = asciitilde;
layers = (
{
hints = (
{
place = "{45, 415}";
type = Stem;
},
{
horizontal = 1;
place = "{230, 110}";
type = Stem;
},
{
horizontal = 1;
place = "{274, 110}";
type = Stem;
}
);
layerId = "5589ED66-9AD9-444D-B825-B0F286D52CD7";
paths = (
{
closed = 1;
nodes = (
"385 390 LINE",
"371 357 OFFCURVE",
"354 340 OFFCURVE",
"325 340 CURVE SMOOTH",
"280 340 OFFCURVE",
"232 384 OFFCURVE",
"166 384 CURVE SMOOTH",
"106 384 OFFCURVE",
"70 348 OFFCURVE",
"45 258 CURVE",
"120 223 LINE",
"135 257 OFFCURVE",
"149 274 OFFCURVE",
"179 274 CURVE SMOOTH",
"225 274 OFFCURVE",
"281 230 OFFCURVE",
"341 230 CURVE SMOOTH",
"395 230 OFFCURVE",
"437 265 OFFCURVE",
"460 354 CURVE"
);
}
);
width = 506;
}
);
unicode = 007E;
},
{
glyphname = exclamdown;
layers = (
{
hints = (
{
place = "{70, 184}";
type = Stem;
},
{
place = "{74, 175}";
type = Stem;
},
{
horizontal = 1;
place = "{367, 167}";
type = Stem;
}
);
layerId = "5589ED66-9AD9-444D-B825-B0F286D52CD7";
paths = (
{
closed = 1;
nodes = (
"254 505 OFFCURVE",
"213 534 OFFCURVE",
"162 534 CURVE SMOOTH",
"111 534 OFFCURVE",
"70 505 OFFCURVE",
"70 450 CURVE SMOOTH",
"70 397 OFFCURVE",
"111 367 OFFCURVE",
"162 367 CURVE SMOOTH",
"213 367 OFFCURVE",
"254 397 OFFCURVE",
"254 450 CURVE SMOOTH"
);
},
{
closed = 1;
nodes = (
"250 -179 LINE",
"248 -80 LINE",
"204 303 LINE",
"119 303 LINE",
"75 -80 LINE",
"73 -179 LINE"
);
}
);
width = 324;
}
);
unicode = 00A1;
},
{
glyphname = cent;
layers = (
{
hints = (
{
place = "{33, 137}";
type = Stem;
},
{
place = "{370, 87}";
type = Stem;
},
{
horizontal = 1;
place = "{91, 120}";
type = Stem;
},
{
horizontal = 1;
place = "{619, 87}";
type = Stem;
},
{
horizontal = 1;
place = "{706, -20}";
target = down;
type = TopGhost;
}
);
layerId = "5589ED66-9AD9-444D-B825-B0F286D52CD7";
paths = (
{
closed = 1;
nodes = (
"457 591 LINE",
"437 605 OFFCURVE",
"417 614 OFFCURVE",
"397 619 CURVE",
"410 706 LINE",
"312 706 LINE",
"301 632 LINE",
"143 629 OFFCURVE",
"33 512 OFFCURVE",
"33 360 CURVE SMOOTH",
"33 241 OFFCURVE",
"108 139 OFFCURVE",
"218 105 CURVE",
"203 8 LINE",
"301 8 LINE",
"314 91 LINE",
"373 93 OFFCURVE",
"420 108 OFFCURVE",
"459 136 CURVE",
"459 275 LINE",
"428 240 OFFCURVE",
"380 211 OFFCURVE",
"325 211 CURVE",
"370 506 LINE",
"403 501 OFFCURVE",
"434 481 OFFCURVE",
"457 454 CURVE"
);
},
{
closed = 1;
nodes = (
"244 226 LINE",
"197 252 OFFCURVE",
"170 297 OFFCURVE",
"170 362 CURVE SMOOTH",
"170 446 OFFCURVE",
"215 502 OFFCURVE",
"287 511 CURVE"
);
}
);
width = 496;
}
);
unicode = 00A2;
},
{
glyphname = sterling;
layers = (
{
hints = (
{
horizontal = 1;
place = "{0, 126}";
type = Stem;
},
{
horizontal = 1;
place = "{277, 113}";
type = Stem;
},
{
horizontal = 1;
place = "{573, 141}";
type = Stem;
},
{
place = "{99, 157}";
type = Stem;
}
);
layerId = "5589ED66-9AD9-444D-B825-B0F286D52CD7";
paths = (
{
closed = 1;
nodes = (
"483 390 LINE",
"256 390 LINE",
"256 458 LINE SMOOTH",
"256 525 OFFCURVE",
"289 573 OFFCURVE",
"355 573 CURVE SMOOTH",
"400 573 OFFCURVE",
"431 554 OFFCURVE",
"464 518 CURVE",
"569 614 LINE",
"518 673 OFFCURVE",
"449 714 OFFCURVE",
"347 714 CURVE SMOOTH",
"189 714 OFFCURVE",
"99 612 OFFCURVE",
"99 459 CURVE SMOOTH",
"99 390 LINE",
"27 390 LINE",
"27 277 LINE",
"99 277 LINE",
"99 0 LINE",
"561 0 LINE",
"561 126 LINE",
"256 126 LINE",
"256 277 LINE",
"483 277 LINE"
);
}
);
width = 580;
}
);
unicode = 00A3;
},
{
glyphname = currency;
layers = (
{
hints = (
{
horizontal = 1;
place = "{71, 101}";
type = Stem;
},
{
horizontal = 1;
place = "{485, 102}";
type = Stem;
},
{
place = "{96, 110}";
type = Stem;
},
{
place = "{506, 111}";
type = Stem;
}
);
layerId = "5589ED66-9AD9-444D-B825-B0F286D52CD7";
paths = (
{
closed = 1;
nodes = (
"594 634 LINE",
"502 544 LINE",
"461 571 OFFCURVE",
"411 587 OFFCURVE",
"356 587 CURVE SMOOTH",
"300 587 OFFCURVE",
"254 572 OFFCURVE",
"210 543 CURVE",
"115 634 LINE",
"47 565 LINE",
"139 473 LINE",
"108 428 OFFCURVE",
"96 382 OFFCURVE",
"96 329 CURVE SMOOTH",
"96 273 OFFCURVE",
"112 224 OFFCURVE",
"141 183 CURVE",
"47 88 LINE",
"115 19 LINE",
"213 114 LINE",
"258 85 OFFCURVE",
"304 71 OFFCURVE",
"356 71 CURVE SMOOTH",
"410 71 OFFCURVE",
"457 86 OFFCURVE",
"500 113 CURVE",
"595 19 LINE",
"664 88 LINE",
"572 180 LINE",
"601 224 OFFCURVE",
"617 272 OFFCURVE",
"617 329 CURVE SMOOTH",
"617 386 OFFCURVE",
"602 429 OFFCURVE",
"573 474 CURVE",
"664 565 LINE"
);
},
{
closed = 1;
nodes = (
"446 485 OFFCURVE",
"506 416 OFFCURVE",
"506 328 CURVE SMOOTH",
"506 242 OFFCURVE",
"446 172 OFFCURVE",
"356 172 CURVE SMOOTH",
"266 172 OFFCURVE",
"206 242 OFFCURVE",
"206 329 CURVE SMOOTH",
"206 415 OFFCURVE",
"266 485 OFFCURVE",
"356 485 CURVE SMOOTH"
);
}
);
width = 710;
}
);
unicode = 00A4;
},
{
glyphname = yen;
layers = (
{
hints = (
{
place = "{250, 155}";
type = Stem;
},
{
horizontal = 1;
place = "{0, 213}";
type = Stem;
},
{
horizontal = 1;
place = "{111, 102}";
type = Stem;
},
{
horizontal = 1;
place = "{276, 103}";
type = Stem;
},
{
horizontal = 1;
place = "{702, -20}";
target = down;
type = TopGhost;
}
);
layerId = "5589ED66-9AD9-444D-B825-B0F286D52CD7";
paths = (
{
closed = 1;
nodes = (
"65 213 LINE",
"65 111 LINE",
"250 111 LINE",
"250 0 LINE",
"405 0 LINE",
"405 111 LINE",
"589 111 LINE",
"589 213 LINE",
"405 213 LINE",
"414 276 LINE",
"589 276 LINE",
"589 379 LINE",
"448 379 LINE",
"659 702 LINE",
"483 702 LINE",
"329 437 LINE",
"175 702 LINE",
"-4 702 LINE",
"206 379 LINE",
"65 379 LINE",
"65 276 LINE",
"240 276 LINE",
"250 213 LINE"
);
}
);
width = 655;
}
);
unicode = 00A5;
},
{
glyphname = brokenbar;
layers = (
{
hints = (
{
horizontal = 1;
place = "{-173, 21}";
target = up;
type = BottomGhost;
},
{
place = "{263, 137}";
type = Stem;
}
);
layerId = "5589ED66-9AD9-444D-B825-B0F286D52CD7";
paths = (
{
closed = 1;
nodes = (
"263 672 LINE",
"263 323 LINE",
"400 323 LINE",
"400 672 LINE"
);
},
{
closed = 1;
nodes = (
"263 173 LINE",
"263 -173 LINE",
"400 -173 LINE",
"400 173 LINE"
);
}
);
width = 662;
}
);
unicode = 00A6;
},
{
glyphname = section;
layers = (
{
hints = (
{
place = "{25, 123}";
type = Stem;
},
{
place = "{71, 144}";
type = Stem;
},
{
place = "{355, 142}";
type = Stem;
},
{
place = "{420, 123}";
type = Stem;
},
{
horizontal = 1;
place = "{-37, 108}";
type = Stem;
},
{
horizontal = 1;
place = "{607, 109}";
type = Stem;
}
);
layerId = "5589ED66-9AD9-444D-B825-B0F286D52CD7";
paths = (
{
closed = 1;
nodes = (
"447 677 LINE",
"402 702 OFFCURVE",
"349 716 OFFCURVE",
"286 716 CURVE SMOOTH",
"149 716 OFFCURVE",
"71 650 OFFCURVE",
"71 563 CURVE SMOOTH",
"71 518 OFFCURVE",
"94 480 OFFCURVE",
"128 455 CURVE",
"64 436 OFFCURVE",
"25 397 OFFCURVE",
"25 341 CURVE SMOOTH",
"25 264 OFFCURVE",
"109 217 OFFCURVE",
"238 187 CURVE",
"317 167 OFFCURVE",
"355 145 OFFCURVE",
"355 117 CURVE SMOOTH",
"355 87 OFFCURVE",
"332 71 OFFCURVE",
"285 71 CURVE SMOOTH",
"228 71 OFFCURVE",
"168 94 OFFCURVE",
"119 135 CURVE",
"119 4 LINE",
"164 -21 OFFCURVE",
"219 -37 OFFCURVE",
"282 -37 CURVE SMOOTH",
"421 -37 OFFCURVE",
"497 32 OFFCURVE",
"497 120 CURVE SMOOTH",
"497 162 OFFCURVE",
"477 199 OFFCURVE",
"442 226 CURVE",
"503 245 OFFCURVE",
"543 282 OFFCURVE",
"543 340 CURVE SMOOTH",
"543 419 OFFCURVE",
"464 457 OFFCURVE",
"329 494 CURVE SMOOTH",
"243 518 OFFCURVE",
"215 540 OFFCURVE",
"215 564 CURVE SMOOTH",
"215 592 OFFCURVE",
"240 607 OFFCURVE",
"286 607 CURVE SMOOTH",
"343 607 OFFCURVE",
"396 584 OFFCURVE",
"447 546 CURVE"
);
},
{
closed = 1;
nodes = (
"420 290 OFFCURVE",
"394 271 OFFCURVE",
"354 271 CURVE",
"277 277 OFFCURVE",
"148 308 OFFCURVE",
"148 362 CURVE SMOOTH",
"148 392 OFFCURVE",
"175 408 OFFCURVE",
"216 410 CURVE",
"270 406 OFFCURVE",
"420 370 OFFCURVE",
"420 317 CURVE SMOOTH"
);
}
);
width = 581;
}
);
unicode = 00A7;
},
{
glyphname = dieresis;
layers = (
{
hints = (
{
horizontal = 1;
place = "{628, 153}";
type = Stem;
},
{
place = "{7, 157}";
type = Stem;
},
{
place = "{222, 156}";
type = Stem;
}
);
layerId = "5589ED66-9AD9-444D-B825-B0F286D52CD7";
paths = (
{
closed = 1;
nodes = (
"7 657 OFFCURVE",
"41 628 OFFCURVE",
"85 628 CURVE SMOOTH",
"129 628 OFFCURVE",
"164 657 OFFCURVE",
"164 705 CURVE SMOOTH",
"164 753 OFFCURVE",
"129 781 OFFCURVE",
"85 781 CURVE SMOOTH",
"41 781 OFFCURVE",
"7 753 OFFCURVE",
"7 705 CURVE SMOOTH"
);
},
{
closed = 1;
nodes = (
"222 657 OFFCURVE",
"256 628 OFFCURVE",
"299 628 CURVE SMOOTH",
"344 628 OFFCURVE",
"378 657 OFFCURVE",
"378 705 CURVE SMOOTH",
"378 753 OFFCURVE",
"344 781 OFFCURVE",
"299 781 CURVE SMOOTH",
"256 781 OFFCURVE",
"222 753 OFFCURVE",
"222 705 CURVE SMOOTH"
);
}
);
width = 385;
}
);
unicode = 00A8;
},
{
glyphname = copyright;
layers = (
{
hints = (
{
horizontal = 1;
place = "{-21, 49}";
type = Stem;
},
{
horizontal = 1;
place = "{148, 99}";
type = Stem;
},
{
horizontal = 1;
place = "{468, 99}";
type = Stem;
},
{
horizontal = 1;
place = "{677, 50}";
type = Stem;
},
{
place = "{28, 49}";
type = Stem;
},
{
place = "{196, 115}";
type = Stem;
},
{
place = "{721, 50}";
type = Stem;
}
);
layerId = "5589ED66-9AD9-444D-B825-B0F286D52CD7";
paths = (
{
closed = 1;
nodes = (
"607 -21 OFFCURVE",
"771 150 OFFCURVE",
"771 355 CURVE SMOOTH",
"771 558 OFFCURVE",
"606 727 OFFCURVE",
"400 727 CURVE SMOOTH",
"193 727 OFFCURVE",
"28 556 OFFCURVE",
"28 355 CURVE SMOOTH",
"28 149 OFFCURVE",
"190 -21 OFFCURVE",
"399 -21 CURVE SMOOTH"
);
},
{
closed = 1;
nodes = (
"218 28 OFFCURVE",
"77 175 OFFCURVE",
"77 354 CURVE SMOOTH",
"77 531 OFFCURVE",
"218 677 OFFCURVE",
"400 677 CURVE SMOOTH",
"581 677 OFFCURVE",
"721 532 OFFCURVE",
"721 355 CURVE SMOOTH",
"721 175 OFFCURVE",
"580 28 OFFCURVE",
"399 28 CURVE SMOOTH"
);
},
{
closed = 1;
nodes = (
"518 289 LINE",
"488 262 OFFCURVE",
"454 247 OFFCURVE",
"417 247 CURVE SMOOTH",
"357 247 OFFCURVE",
"311 296 OFFCURVE",
"311 359 CURVE SMOOTH",
"311 420 OFFCURVE",
"357 468 OFFCURVE",
"418 468 CURVE SMOOTH",
"457 468 OFFCURVE",
"491 450 OFFCURVE",
"516 426 CURVE",
"516 539 LINE",
"491 555 OFFCURVE",
"454 567 OFFCURVE",
"412 567 CURVE SMOOTH",
"288 567 OFFCURVE",
"196 473 OFFCURVE",
"196 359 CURVE SMOOTH",
"196 243 OFFCURVE",
"289 148 OFFCURVE",
"408 148 CURVE SMOOTH",
"454 148 OFFCURVE",
"490 162 OFFCURVE",
"518 180 CURVE"
);
}
);
width = 797;
}
);
unicode = 00A9;
},
{
glyphname = ordfeminine;
layers = (
{
hints = (
{
horizontal = 1;
place = "{292, 67}";
type = Stem;
},
{
horizontal = 1;
place = "{417, 58}";
type = Stem;
},
{
horizontal = 1;
place = "{557, 46}";
type = Stem;
},
{
horizontal = 1;
place = "{652, 69}";
type = Stem;
},
{
place = "{25, 85}";
type = Stem;
},
{
place = "{217, 87}";
type = Stem;
}
);
layerId = "5589ED66-9AD9-444D-B825-B0F286D52CD7";
paths = (
{
closed = 1;
nodes = (
"166 417 OFFCURVE",
"196 433 OFFCURVE",
"217 458 CURVE",
"217 423 LINE",
"304 423 LINE",
"304 594 LINE SMOOTH",
"304 679 OFFCURVE",
"258 721 OFFCURVE",
"165 721 CURVE SMOOTH",
"120 721 OFFCURVE",
"83 712 OFFCURVE",
"50 697 CURVE",
"69 633 LINE",
"96 646 OFFCURVE",
"123 652 OFFCURVE",
"152 652 CURVE SMOOTH",
"195 652 OFFCURVE",
"218 633 OFFCURVE",
"218 596 CURVE SMOOTH",
"218 591 LINE",
"198 598 OFFCURVE",
"174 603 OFFCURVE",
"144 603 CURVE SMOOTH",
"73 603 OFFCURVE",
"25 573 OFFCURVE",
"25 509 CURVE SMOOTH",
"25 449 OFFCURVE",
"72 417 OFFCURVE",
"127 417 CURVE SMOOTH"
);
},
{
closed = 1;
nodes = (
"129 475 OFFCURVE",
"110 490 OFFCURVE",
"110 515 CURVE SMOOTH",
"110 540 OFFCURVE",
"131 557 OFFCURVE",
"166 557 CURVE SMOOTH",
"187 557 OFFCURVE",
"205 552 OFFCURVE",
"219 547 CURVE",
"219 531 LINE SMOOTH",
"219 496 OFFCURVE",
"188 475 OFFCURVE",
"155 475 CURVE SMOOTH"
);
},
{
closed = 1;
nodes = (
"22 292 LINE",
"309 292 LINE",
"309 359 LINE",
"22 359 LINE"
);
}
);
width = 343;
}
);
unicode = 00AA;
},
{
glyphname = guillemotleft;
layers = (
{
hints = (
{
horizontal = 1;
place = "{39, 448}";
type = Stem;
},
{
place = "{37, 537}";
type = Stem;
}
);
layerId = "5589ED66-9AD9-444D-B825-B0F286D52CD7";
paths = (
{
closed = 1;
nodes = (
"191 263 LINE",
"321 438 LINE",
"204 487 LINE",
"37 262 LINE",
"203 39 LINE",
"320 89 LINE"
);
},
{
closed = 1;
nodes = (
"444 263 LINE",
"574 438 LINE",
"457 487 LINE",
"290 262 LINE",
"456 39 LINE",
"573 89 LINE"
);
}
);
width = 616;
}
);
unicode = 00AB;
},
{
glyphname = logicalnot;
layers = (
{
hints = (
{
horizontal = 1;
place = "{298, 116}";
type = Stem;
},
{
place = "{468, 121}";
type = Stem;
}
);
layerId = "5589ED66-9AD9-444D-B825-B0F286D52CD7";
paths = (
{
closed = 1;
nodes = (
"589 414 LINE",
"66 414 LINE",
"66 298 LINE",
"468 298 LINE",
"468 126 LINE",
"589 126 LINE"
);
}
);
width = 654;
}
);
unicode = 00AC;
},
{
glyphname = uni00AD;
layers = (
{
hints = (
{
horizontal = 1;
place = "{204, 137}";
type = Stem;
},
{
place = "{25, 309}";
type = Stem;
}
);
layerId = "5589ED66-9AD9-444D-B825-B0F286D52CD7";
paths = (
{
closed = 1;
nodes = (
"334 341 LINE",
"25 341 LINE",
"25 204 LINE",
"334 204 LINE"
);
}
);
width = 358;
}
);
unicode = 00AD;
},
{
glyphname = registered;
layers = (
{
hints = (
{
horizontal = 1;
place = "{-6, 47}";
type = Stem;
},
{
horizontal = 1;
place = "{301, 77}";
type = Stem;
},
{
horizontal = 1;
place = "{480, 82}";
type = Stem;
},
{
horizontal = 1;
place = "{670, 47}";
type = Stem;
},
{
place = "{20, 49}";
type = Stem;
},
{
place = "{232, 95}";
type = Stem;
},
{
place = "{456, 93}";
type = Stem;
},
{
place = "{693, 50}";
type = Stem;
}
);
layerId = "5589ED66-9AD9-444D-B825-B0F286D52CD7";
paths = (
{
closed = 1;
nodes = (
"20 158 OFFCURVE",
"179 -6 OFFCURVE",
"381 -6 CURVE SMOOTH",
"581 -6 OFFCURVE",
"743 159 OFFCURVE",
"743 356 CURVE SMOOTH",
"743 553 OFFCURVE",
"583 717 OFFCURVE",
"383 717 CURVE SMOOTH",
"180 717 OFFCURVE",
"20 553 OFFCURVE",
"20 356 CURVE SMOOTH"
);
},
{
closed = 1;
nodes = (
"69 528 OFFCURVE",
"205 670 OFFCURVE",
"383 670 CURVE SMOOTH",
"557 670 OFFCURVE",
"693 529 OFFCURVE",
"693 357 CURVE SMOOTH",
"693 184 OFFCURVE",
"558 41 OFFCURVE",
"381 41 CURVE SMOOTH",
"204 41 OFFCURVE",
"69 182 OFFCURVE",
"69 354 CURVE SMOOTH"
);
},
{
closed = 1;
nodes = (
"232 163 LINE",
"327 163 LINE",
"327 301 LINE",
"363 301 LINE",
"462 163 LINE",
"572 163 LINE",
"461 315 LINE",
"512 333 OFFCURVE",
"549 376 OFFCURVE",
"549 435 CURVE SMOOTH",
"549 510 OFFCURVE",
"494 562 OFFCURVE",
"399 562 CURVE SMOOTH",
"232 562 LINE"
);
},
{
closed = 1;
nodes = (
"327 378 LINE",
"327 480 LINE",
"392 480 LINE SMOOTH",
"433 480 OFFCURVE",
"456 458 OFFCURVE",
"456 429 CURVE SMOOTH",
"456 399 OFFCURVE",
"430 378 OFFCURVE",
"392 378 CURVE SMOOTH"
);
}
);
width = 762;
}
);
unicode = 00AE;
},
{
glyphname = degree;
layers = (
{
hints = (
{
horizontal = 1;
place = "{406, 79}";
type = Stem;
},
{
horizontal = 1;
place = "{660, 80}";
type = Stem;
},
{
place = "{33, 84}";
type = Stem;
},
{
place = "{290, 84}";
type = Stem;
}
);
layerId = "5589ED66-9AD9-444D-B825-B0F286D52CD7";
paths = (
{
closed = 1;
nodes = (
"374 665 OFFCURVE",
"295 740 OFFCURVE",
"204 740 CURVE SMOOTH",
"113 740 OFFCURVE",
"33 664 OFFCURVE",
"33 573 CURVE SMOOTH",
"33 481 OFFCURVE",
"111 406 OFFCURVE",
"204 406 CURVE SMOOTH",
"297 406 OFFCURVE",
"374 481 OFFCURVE",
"374 573 CURVE SMOOTH"
);
},
{
closed = 1;
nodes = (
"290 523 OFFCURVE",
"253 485 OFFCURVE",
"204 485 CURVE SMOOTH",
"154 485 OFFCURVE",
"117 525 OFFCURVE",
"117 573 CURVE SMOOTH",
"117 621 OFFCURVE",
"155 660 OFFCURVE",
"204 660 CURVE SMOOTH",
"252 660 OFFCURVE",
"290 621 OFFCURVE",
"290 573 CURVE SMOOTH"
);
}
);
width = 407;
}
);
unicode = 00B0;
},
{
glyphname = plusminus;
layers = (
{
hints = (
{
horizontal = 1;
place = "{11, 110}";
type = Stem;
},
{
horizontal = 1;
place = "{328, 110}";
type = Stem;
},
{
place = "{256, 111}";
type = Stem;
}
);
layerId = "5589ED66-9AD9-444D-B825-B0F286D52CD7";
paths = (
{
closed = 1;
nodes = (
"70 328 LINE",
"256 328 LINE",
"256 176 LINE",
"367 176 LINE",
"367 328 LINE",
"551 328 LINE",
"551 438 LINE",
"367 438 LINE",
"367 588 LINE",
"256 588 LINE",
"256 438 LINE",
"70 438 LINE"
);
},
{
closed = 1;
nodes = (
"70 11 LINE",
"551 11 LINE",
"551 121 LINE",
"70 121 LINE"
);
}
);
width = 621;
}
);
unicode = 00B1;
},
{
glyphname = twosuperior;
layers = (
{
hints = (
{
horizontal = 1;
place = "{285, 83}";
type = Stem;
},
{
horizontal = 1;
place = "{634, 84}";
type = Stem;
},
{
place = "{256, 108}";
type = Stem;
}
);
layerId = "5589ED66-9AD9-444D-B825-B0F286D52CD7";
paths = (
{
closed = 1;
nodes = (
"16 285 LINE",
"357 285 LINE",
"367 371 LINE",
"207 366 LINE",
"252 406 LINE SMOOTH",
"322 467 OFFCURVE",
"364 514 OFFCURVE",
"364 582 CURVE SMOOTH",
"364 664 OFFCURVE",
"292 718 OFFCURVE",
"205 718 CURVE SMOOTH",
"114 718 OFFCURVE",
"68 675 OFFCURVE",
"47 593 CURVE",
"146 577 LINE",
"154 607 OFFCURVE",
"170 634 OFFCURVE",
"202 634 CURVE SMOOTH",
"234 634 OFFCURVE",
"256 610 OFFCURVE",
"256 579 CURVE SMOOTH",
"256 531 OFFCURVE",
"203 480 OFFCURVE",
"155 428 CURVE"
);
}
);
width = 398;
}
);
unicode = 00B2;
},
{
glyphname = threesuperior;
layers = (
{
hints = (
{
place = "{216, 104}";
type = Stem;
},
{
place = "{234, 106}";
type = Stem;
},
{
horizontal = 1;
place = "{279, 78}";
type = Stem;
},
{
horizontal = 1;
place = "{482, 67}";
type = Stem;
},
{
horizontal = 1;
place = "{644, 78}";
type = Stem;
}
);
layerId = "5589ED66-9AD9-444D-B825-B0F286D52CD7";
paths = (
{
closed = 1;
nodes = (
"10 381 LINE",
"27 313 OFFCURVE",
"92 279 OFFCURVE",
"167 279 CURVE SMOOTH",
"258 279 OFFCURVE",
"340 325 OFFCURVE",
"340 415 CURVE SMOOTH",
"340 462 OFFCURVE",
"315 499 OFFCURVE",
"267 519 CURVE",
"301 539 OFFCURVE",
"320 570 OFFCURVE",
"320 607 CURVE SMOOTH",
"320 682 OFFCURVE",
"249 722 OFFCURVE",
"171 722 CURVE SMOOTH",
"105 722 OFFCURVE",
"43 692 OFFCURVE",
"30 628 CURVE",
"112 608 LINE",
"123 626 OFFCURVE",
"140 644 OFFCURVE",
"169 644 CURVE SMOOTH",
"198 644 OFFCURVE",
"216 624 OFFCURVE",
"216 600 CURVE SMOOTH",
"216 569 OFFCURVE",
"190 549 OFFCURVE",
"156 549 CURVE SMOOTH",
"142 549 LINE",
"142 481 LINE",
"149 481 OFFCURVE",
"159 482 OFFCURVE",
"165 482 CURVE SMOOTH",
"212 482 OFFCURVE",
"234 456 OFFCURVE",
"234 423 CURVE SMOOTH",
"234 385 OFFCURVE",
"206 357 OFFCURVE",
"167 357 CURVE SMOOTH",
"133 357 OFFCURVE",
"109 377 OFFCURVE",
"95 402 CURVE"
);
}
);
width = 363;
}
);
unicode = 00B3;
},
{
glyphname = acute;
layers = (
{
hints = (
{
horizontal = 1;
place = "{616, 173}";
type = Stem;
},
{
place = "{11, 250}";
type = Stem;
}
);
layerId = "5589ED66-9AD9-444D-B825-B0F286D52CD7";
paths = (
{
closed = 1;
nodes = (
"11 616 LINE",
"120 616 LINE",
"261 744 LINE",
"111 789 LINE"
);
}
);
width = 257;
}
);
unicode = 00B4;
},
{
glyphname = uni00B5;
layers = (
{
hints = (
{
place = "{56, 154}";
type = Stem;
},
{
place = "{397, 154}";
type = Stem;
},
{
horizontal = 1;
place = "{-169, 21}";
target = up;
type = BottomGhost;
},
{
horizontal = 1;
place = "{-11, 136}";
type = Stem;
},
{
horizontal = 1;
place = "{0, 21}";
target = up;
type = BottomGhost;
},
{
horizontal = 1;
place = "{522, -20}";
target = down;
type = TopGhost;
}
);
layerId = "5589ED66-9AD9-444D-B825-B0F286D52CD7";
paths = (
{
closed = 1;
nodes = (
"210 45 LINE",
"225 12 OFFCURVE",
"257 -11 OFFCURVE",
"295 -11 CURVE SMOOTH",
"337 -11 OFFCURVE",
"373 17 OFFCURVE",
"397 70 CURVE",
"551 0 LINE",
"551 522 LINE",
"397 522 LINE",
"397 233 LINE SMOOTH",
"397 162 OFFCURVE",
"354 125 OFFCURVE",
"300 125 CURVE SMOOTH",
"251 125 OFFCURVE",
"210 160 OFFCURVE",
"210 233 CURVE SMOOTH",
"210 522 LINE",
"56 522 LINE",
"56 -169 LINE",
"210 -169 LINE"
);
}
);
width = 611;
}
);
unicode = 00B5;
},
{
glyphname = paragraph;
layers = (
{
hints = (
{
horizontal = 1;
place = "{611, 95}";
type = Stem;
},
{
place = "{222, 101}";
type = Stem;
},
{
place = "{396, 101}";
type = Stem;
}
);
layerId = "5589ED66-9AD9-444D-B825-B0F286D52CD7";
paths = (
{
closed = 1;
nodes = (
"323 -110 LINE",
"323 611 LINE",
"396 611 LINE",
"396 -110 LINE",
"497 -110 LINE",
"497 611 LINE",
"545 611 LINE",
"559 706 LINE",
"259 706 LINE SMOOTH",
"120 706 OFFCURVE",
"40 632 OFFCURVE",
"40 512 CURVE SMOOTH",
"40 397 OFFCURVE",
"121 340 OFFCURVE",
"222 326 CURVE",
"222 -110 LINE"
);
}
);
width = 638;
}
);
unicode = 00B6;
},
{
glyphname = periodcentered;
layers = (
{
hints = (
{
horizontal = 1;
place = "{276, 186}";
type = Stem;
},
{
place = "{70, 189}";
type = Stem;
}
);
layerId = "5589ED66-9AD9-444D-B825-B0F286D52CD7";
paths = (
{
closed = 1;
nodes = (
"70 311 OFFCURVE",
"111 276 OFFCURVE",
"164 276 CURVE SMOOTH",
"218 276 OFFCURVE",
"259 311 OFFCURVE",
"259 370 CURVE SMOOTH",
"259 429 OFFCURVE",
"218 462 OFFCURVE",
"164 462 CURVE SMOOTH",
"111 462 OFFCURVE",
"70 429 OFFCURVE",
"70 370 CURVE SMOOTH"
);
}
);
width = 329;
}
);
unicode = 00B7;
},
{
glyphname = cedilla;
layers = (
{
hints = (
{
horizontal = 1;
place = "{-238, 61}";
type = Stem;
},
{
horizontal = 1;
place = "{-115, 46}";
type = Stem;
},
{
place = "{200, 82}";
type = Stem;
}
);
layerId = "5589ED66-9AD9-444D-B825-B0F286D52CD7";
paths = (
{
closed = 1;
nodes = (
"229 0 LINE",
"161 0 LINE",
"94 -103 LINE",
"120 -124 LINE",
"135 -118 OFFCURVE",
"147 -115 OFFCURVE",
"161 -115 CURVE SMOOTH",
"185 -115 OFFCURVE",
"200 -125 OFFCURVE",
"200 -142 CURVE SMOOTH",
"200 -168 OFFCURVE",
"164 -177 OFFCURVE",
"143 -177 CURVE SMOOTH",
"126 -177 OFFCURVE",
"103 -173 OFFCURVE",
"79 -163 CURVE",
"58 -214 LINE",
"90 -229 OFFCURVE",
"124 -238 OFFCURVE",
"158 -238 CURVE SMOOTH",
"211 -238 OFFCURVE",
"282 -215 OFFCURVE",
"282 -145 CURVE SMOOTH",
"282 -91 OFFCURVE",
"234 -69 OFFCURVE",
"194 -69 CURVE SMOOTH",
"187 -69 LINE"
);
}
);
width = 339;
}
);
unicode = 00B8;
},
{
glyphname = onesuperior;
layers = (
{
hints = (
{
horizontal = 1;
place = "{710, -20}";
target = down;
type = TopGhost;
},
{
place = "{101, 108}";
type = Stem;
}
);
layerId = "5589ED66-9AD9-444D-B825-B0F286D52CD7";
paths = (
{
closed = 1;
nodes = (
"101 285 LINE",
"209 285 LINE",
"209 710 LINE",
"131 709 LINE",
"99 699 OFFCURVE",
"59 689 OFFCURVE",
"39 680 CURVE",
"39 589 LINE",
"61 593 OFFCURVE",
"78 601 OFFCURVE",
"101 609 CURVE"
);
}
);
width = 304;
}
);
unicode = 00B9;
},
{
glyphname = ordmasculine;
layers = (
{
hints = (
{
place = "{22, 86}";
type = Stem;
},
{
place = "{35, 288}";
type = Stem;
},
{
place = "{251, 86}";
type = Stem;
},
{
horizontal = 1;
place = "{294, 67}";
type = Stem;
},
{
horizontal = 1;
place = "{417, 76}";
type = Stem;
},
{
horizontal = 1;
place = "{648, 76}";
type = Stem;
}
);
layerId = "5589ED66-9AD9-444D-B825-B0F286D52CD7";
paths = (
{
closed = 1;
nodes = (
"269 417 OFFCURVE",
"337 487 OFFCURVE",
"337 572 CURVE SMOOTH",
"337 654 OFFCURVE",
"271 724 OFFCURVE",
"180 724 CURVE SMOOTH",
"90 724 OFFCURVE",
"22 654 OFFCURVE",
"22 570 CURVE SMOOTH",
"22 487 OFFCURVE",
"88 417 OFFCURVE",
"178 417 CURVE SMOOTH"
);
},
{
closed = 1;
nodes = (
"138 493 OFFCURVE",
"108 528 OFFCURVE",
"108 572 CURVE SMOOTH",
"108 613 OFFCURVE",
"135 648 OFFCURVE",
"178 648 CURVE SMOOTH",
"221 648 OFFCURVE",
"251 614 OFFCURVE",
"251 570 CURVE SMOOTH",
"251 527 OFFCURVE",
"223 493 OFFCURVE",
"180 493 CURVE SMOOTH"
);
},
{
closed = 1;
nodes = (
"35 294 LINE",
"323 294 LINE",
"323 361 LINE",
"35 361 LINE"
);
}
);
width = 359;
}
);
unicode = 00BA;
},
{
glyphname = guillemotright;
layers = (
{
hints = (
{
horizontal = 1;
place = "{39, 448}";
type = Stem;
},
{
place = "{41, 537}";
type = Stem;
}
);
layerId = "5589ED66-9AD9-444D-B825-B0F286D52CD7";
paths = (
{
closed = 1;
nodes = (
"42 89 LINE",
"159 39 LINE",
"325 262 LINE",
"158 487 LINE",
"41 438 LINE",
"171 263 LINE"
);
},
{
closed = 1;
nodes = (
"295 89 LINE",
"412 39 LINE",
"578 262 LINE",
"411 487 LINE",
"294 438 LINE",
"424 263 LINE"
);
}
);
width = 617;
}
);
unicode = 00BB;
},
{
glyphname = onequarter;
layers = (
{
hints = (
{
horizontal = 1;
place = "{1, 21}";
target = up;
type = BottomGhost;
},
{
horizontal = 1;
place = "{76, 79}";
type = Stem;
},
{
horizontal = 1;
place = "{299, 129}";
type = Stem;
},
{
horizontal = 1;
place = "{710, -20}";
target = down;
type = TopGhost;
},
{
place = "{79, 108}";
type = Stem;
},
{
place = "{604, 101}";
type = Stem;
}
);
layerId = "5589ED66-9AD9-444D-B825-B0F286D52CD7";
paths = (
{
closed = 1;
nodes = (
"641 798 LINE",
"515 803 LINE",
"68 -83 LINE",
"194 -88 LINE"
);
},
{
closed = 1;
nodes = (
"79 285 LINE",
"187 285 LINE",
"187 710 LINE",
"109 709 LINE",
"77 699 OFFCURVE",
"37 689 OFFCURVE",
"17 680 CURVE",
"17 589 LINE",
"39 593 OFFCURVE",
"56 601 OFFCURVE",
"79 609 CURVE"
);
},
{
closed = 1;
nodes = (
"396 76 LINE",
"469 76 OFFCURVE",
"536 77 OFFCURVE",
"604 78 CURVE",
"602 1 LINE",
"705 1 LINE",
"704 78 LINE",
"719 77 OFFCURVE",
"733 76 OFFCURVE",
"748 76 CURVE",
"754 156 LINE",
"705 155 LINE",
"705 428 LINE",
"597 428 LINE",
"396 137 LINE"
);
},
{
closed = 1;
nodes = (
"509 154 LINE",
"541 204 OFFCURVE",
"583 262 OFFCURVE",
"604 299 CURVE",
"605 299 OFFCURVE",
"606 299 OFFCURVE",
"606 299 CURVE",
"606 293 LINE",
"602 265 OFFCURVE",
"604 193 OFFCURVE",
"604 155 CURVE",
"588 155 OFFCURVE",
"572 155 OFFCURVE",
"556 154 CURVE",
"537 154 OFFCURVE",
"520 154 OFFCURVE",
"509 153 CURVE"
);
}
);
width = 777;
}
);
unicode = 00BC;
},
{
glyphname = onehalf;
layers = (
{
hints = (
{
horizontal = 1;
place = "{-1, 83}";
type = Stem;
},
{
horizontal = 1;
place = "{348, 84}";
type = Stem;
},
{
horizontal = 1;
place = "{710, -20}";
target = down;
type = TopGhost;
},
{
place = "{80, 108}";
type = Stem;
},
{
place = "{681, 108}";
type = Stem;
}
);
layerId = "5589ED66-9AD9-444D-B825-B0F286D52CD7";
paths = (
{
closed = 1;
nodes = (
"637 798 LINE",
"511 803 LINE",
"64 -83 LINE",
"190 -88 LINE"
);
},
{
closed = 1;
nodes = (
"80 285 LINE",
"188 285 LINE",
"188 710 LINE",
"110 709 LINE",
"78 699 OFFCURVE",
"38 689 OFFCURVE",
"18 680 CURVE",
"18 589 LINE",
"40 593 OFFCURVE",
"57 601 OFFCURVE",
"80 609 CURVE"
);
},
{
closed = 1;
nodes = (
"441 -1 LINE",
"782 -1 LINE",
"792 85 LINE",
"632 80 LINE",
"677 120 LINE SMOOTH",
"747 181 OFFCURVE",
"789 228 OFFCURVE",
"789 296 CURVE SMOOTH",
"789 378 OFFCURVE",
"717 432 OFFCURVE",
"630 432 CURVE SMOOTH",
"539 432 OFFCURVE",
"493 389 OFFCURVE",
"472 307 CURVE",
"571 291 LINE",
"579 321 OFFCURVE",
"595 348 OFFCURVE",
"627 348 CURVE SMOOTH",
"659 348 OFFCURVE",
"681 324 OFFCURVE",
"681 293 CURVE SMOOTH",
"681 245 OFFCURVE",
"628 194 OFFCURVE",
"580 142 CURVE"
);
}
);
width = 829;
}
);
unicode = 00BD;
},
{
glyphname = threequarters;
layers = (
{
hints = (
{
place = "{239, 104}";
type = Stem;
},
{
place = "{257, 106}";
type = Stem;
},
{
place = "{744, 101}";
type = Stem;
},
{
horizontal = 1;
place = "{1, 21}";
target = up;
type = BottomGhost;
},
{
horizontal = 1;
place = "{76, 79}";
type = Stem;
},
{
horizontal = 1;
place = "{279, 78}";
type = Stem;
},
{
horizontal = 1;
place = "{299, 129}";
type = Stem;
},
{
horizontal = 1;
place = "{482, 67}";
type = Stem;
},
{
horizontal = 1;
place = "{644, 78}";
type = Stem;
}
);
layerId = "5589ED66-9AD9-444D-B825-B0F286D52CD7";
paths = (
{
closed = 1;
nodes = (
"780 798 LINE",
"654 803 LINE",
"207 -83 LINE",
"333 -88 LINE"
);
},
{
closed = 1;
nodes = (
"33 381 LINE",
"50 313 OFFCURVE",
"115 279 OFFCURVE",
"190 279 CURVE SMOOTH",
"281 279 OFFCURVE",
"363 325 OFFCURVE",
"363 415 CURVE SMOOTH",
"363 462 OFFCURVE",
"338 499 OFFCURVE",
"290 519 CURVE",
"324 539 OFFCURVE",
"343 570 OFFCURVE",
"343 607 CURVE SMOOTH",
"343 682 OFFCURVE",
"272 722 OFFCURVE",
"194 722 CURVE SMOOTH",
"128 722 OFFCURVE",
"66 692 OFFCURVE",
"53 628 CURVE",
"135 608 LINE",
"146 626 OFFCURVE",
"163 644 OFFCURVE",
"192 644 CURVE SMOOTH",
"221 644 OFFCURVE",
"239 624 OFFCURVE",
"239 600 CURVE SMOOTH",
"239 569 OFFCURVE",
"213 549 OFFCURVE",
"179 549 CURVE SMOOTH",
"165 549 LINE",
"165 481 LINE",
"172 481 OFFCURVE",
"182 482 OFFCURVE",
"188 482 CURVE SMOOTH",
"235 482 OFFCURVE",
"257 456 OFFCURVE",
"257 423 CURVE SMOOTH",
"257 385 OFFCURVE",
"229 357 OFFCURVE",
"190 357 CURVE SMOOTH",
"156 357 OFFCURVE",
"132 377 OFFCURVE",
"118 402 CURVE"
);
},
{
closed = 1;
nodes = (
"536 76 LINE",
"609 76 OFFCURVE",
"676 77 OFFCURVE",
"744 78 CURVE",
"742 1 LINE",
"845 1 LINE",
"844 78 LINE",
"859 77 OFFCURVE",
"873 76 OFFCURVE",
"888 76 CURVE",
"894 156 LINE",
"845 155 LINE",
"845 428 LINE",
"737 428 LINE",
"536 137 LINE"
);
},
{
closed = 1;
nodes = (
"649 154 LINE",
"681 204 OFFCURVE",
"723 262 OFFCURVE",
"744 299 CURVE",
"745 299 OFFCURVE",
"746 299 OFFCURVE",
"746 299 CURVE",
"746 293 LINE",
"742 265 OFFCURVE",
"744 193 OFFCURVE",
"744 155 CURVE",
"728 155 OFFCURVE",
"712 155 OFFCURVE",
"696 154 CURVE",
"677 154 OFFCURVE",
"660 154 OFFCURVE",
"649 153 CURVE"
);
}
);
width = 917;
}
);
unicode = 00BE;
},
{
glyphname = questiondown;
layers = (
{
hints = (
{
place = "{42, 155}";
type = Stem;
},
{
place = "{174, 184}";
type = Stem;
},
{
place = "{201, 144}";
type = Stem;
},
{
horizontal = 1;
place = "{-191, 133}";
type = Stem;
},
{
horizontal = 1;
place = "{364, 168}";
type = Stem;
}
);
layerId = "5589ED66-9AD9-444D-B825-B0F286D52CD7";
paths = (
{
closed = 1;
nodes = (
"358 503 OFFCURVE",
"317 532 OFFCURVE",
"267 532 CURVE SMOOTH",
"216 532 OFFCURVE",
"174 503 OFFCURVE",
"174 448 CURVE SMOOTH",
"174 395 OFFCURVE",
"216 364 OFFCURVE",
"267 364 CURVE SMOOTH",
"317 364 OFFCURVE",
"358 395 OFFCURVE",
"358 448 CURVE SMOOTH"
);
},
{
closed = 1;
nodes = (
"236 -58 OFFCURVE",
"197 -31 OFFCURVE",
"197 10 CURVE SMOOTH",
"197 45 OFFCURVE",
"225 75 OFFCURVE",
"255 100 CURVE SMOOTH",
"300 136 OFFCURVE",
"345 181 OFFCURVE",
"345 263 CURVE SMOOTH",
"345 312 LINE",
"201 312 LINE",
"201 281 LINE SMOOTH",
"201 232 OFFCURVE",
"187 212 OFFCURVE",
"147 179 CURVE",
"86 131 OFFCURVE",
"42 86 OFFCURVE",
"42 0 CURVE SMOOTH",
"42 -121 OFFCURVE",
"140 -191 OFFCURVE",
"258 -191 CURVE SMOOTH",
"337 -191 OFFCURVE",
"408 -162 OFFCURVE",
"453 -104 CURVE",
"453 33 LINE",
"410 -15 OFFCURVE",
"349 -58 OFFCURVE",
"285 -58 CURVE SMOOTH"
);
}
);
width = 495;
}
);
unicode = 00BF;
},
{
glyphname = Agrave;
layers = (
{
hints = (
{
horizontal = 1;
place = "{0, 21}";
target = up;
type = BottomGhost;
},
{
horizontal = 1;
place = "{149, 126}";
type = Stem;
},
{
horizontal = 1;
place = "{705, -20}";
target = down;
type = TopGhost;
},
{
place = "{-7, 751}";
type = Stem;
}
);
layerId = "5589ED66-9AD9-444D-B825-B0F286D52CD7";
paths = (
{
closed = 1;
nodes = (
"339 819 LINE",
"449 819 LINE",
"348 992 LINE",
"199 947 LINE"
);
},
{
closed = 1;
nodes = (
"512 149 LINE",
"574 0 LINE",
"744 0 LINE",
"442 705 LINE",
"294 705 LINE",
"-7 0 LINE",
"159 0 LINE",
"221 149 LINE"
);
},
{
closed = 1;
nodes = (
"367 519 LINE",
"464 275 LINE",
"269 275 LINE"
);
}
);
width = 737;
}
);
unicode = 00C0;
},
{
glyphname = Aacute;
layers = (
{
hints = (
{
horizontal = 1;
place = "{0, 21}";
target = up;
type = BottomGhost;
},
{
horizontal = 1;
place = "{149, 126}";
type = Stem;
},
{
horizontal = 1;
place = "{705, -20}";
target = down;
type = TopGhost;
},
{
place = "{-7, 751}";
type = Stem;
}
);
layerId = "5589ED66-9AD9-444D-B825-B0F286D52CD7";
paths = (
{
closed = 1;
nodes = (
"322 781 LINE",
"431 781 LINE",
"572 909 LINE",
"422 954 LINE"
);
},
{
closed = 1;
nodes = (
"512 149 LINE",
"574 0 LINE",
"744 0 LINE",
"442 705 LINE",
"294 705 LINE",
"-7 0 LINE",
"159 0 LINE",
"221 149 LINE"
);
},
{
closed = 1;
nodes = (
"367 519 LINE",
"464 275 LINE",
"269 275 LINE"
);
}
);
width = 737;
}
);
unicode = 00C1;
},
{
glyphname = Acircumflex;
layers = (
{
hints = (
{
horizontal = 1;
place = "{0, 21}";
target = up;
type = BottomGhost;
},
{
horizontal = 1;
place = "{149, 126}";
type = Stem;
},
{
horizontal = 1;
place = "{705, -20}";
target = down;
type = TopGhost;
},
{
horizontal = 1;
place = "{782, 171}";
type = Stem;
},
{
place = "{-7, 751}";
type = Stem;
}
);
layerId = "5589ED66-9AD9-444D-B825-B0F286D52CD7";
paths = (
{
closed = 1;
nodes = (
"412 953 LINE",
"322 953 LINE",
"193 782 LINE",
"302 782 LINE",
"367 850 LINE",
"432 782 LINE",
"541 782 LINE"
);
},
{
closed = 1;
nodes = (
"512 149 LINE",
"574 0 LINE",
"744 0 LINE",
"442 705 LINE",
"294 705 LINE",
"-7 0 LINE",
"159 0 LINE",
"221 149 LINE"
);
},
{
closed = 1;
nodes = (
"367 519 LINE",
"464 275 LINE",
"269 275 LINE"
);
}
);
width = 737;
}
);
unicode = 00C2;
},
{
glyphname = Atilde;
layers = (
{
hints = (
{
place = "{-7, 751}";
type = Stem;
},
{
horizontal = 1;
place = "{0, 21}";
target = up;
type = BottomGhost;
},
{
horizontal = 1;
place = "{149, 126}";
type = Stem;
},
{
horizontal = 1;
place = "{705, -20}";
target = down;
type = TopGhost;
},
{
horizontal = 1;
place = "{771, 102}";
type = Stem;
},
{
horizontal = 1;
place = "{807, 102}";
type = Stem;
}
);
layerId = "5589ED66-9AD9-444D-B825-B0F286D52CD7";
paths = (
{
closed = 1;
nodes = (
"274 760 LINE",
"285 795 OFFCURVE",
"299 807 OFFCURVE",
"317 807 CURVE SMOOTH",
"349 807 OFFCURVE",
"388 771 OFFCURVE",
"434 771 CURVE SMOOTH",
"493 771 OFFCURVE",
"527 824 OFFCURVE",
"550 902 CURVE",
"464 918 LINE",
"455 887 OFFCURVE",
"444 873 OFFCURVE",
"428 873 CURVE SMOOTH",
"398 873 OFFCURVE",
"355 909 OFFCURVE",
"307 909 CURVE SMOOTH",
"248 909 OFFCURVE",
"209 855 OFFCURVE",
"188 776 CURVE"
);
},
{
closed = 1;
nodes = (
"512 149 LINE",
"574 0 LINE",
"744 0 LINE",
"442 705 LINE",
"294 705 LINE",
"-7 0 LINE",
"159 0 LINE",
"221 149 LINE"
);
},
{
closed = 1;
nodes = (
"367 519 LINE",
"464 275 LINE",
"269 275 LINE"
);
}
);
width = 737;
}
);
unicode = 00C3;
},
{
glyphname = Adieresis;
layers = (
{
hints = (
{
horizontal = 1;
place = "{0, 21}";
target = up;
type = BottomGhost;
},
{
horizontal = 1;
place = "{149, 126}";
type = Stem;
},
{
horizontal = 1;
place = "{705, -20}";
target = down;
type = TopGhost;
},
{
horizontal = 1;
place = "{793, 153}";
type = Stem;
},
{
place = "{184, 157}";
type = Stem;
},
{
place = "{399, 156}";
type = Stem;
}
);
layerId = "5589ED66-9AD9-444D-B825-B0F286D52CD7";
paths = (
{
closed = 1;
nodes = (
"184 822 OFFCURVE",
"218 793 OFFCURVE",
"262 793 CURVE SMOOTH",
"306 793 OFFCURVE",
"341 822 OFFCURVE",
"341 870 CURVE SMOOTH",
"341 918 OFFCURVE",
"306 946 OFFCURVE",
"262 946 CURVE SMOOTH",
"218 946 OFFCURVE",
"184 918 OFFCURVE",
"184 870 CURVE SMOOTH"
);
},
{
closed = 1;
nodes = (
"399 822 OFFCURVE",
"433 793 OFFCURVE",
"476 793 CURVE SMOOTH",
"521 793 OFFCURVE",
"555 822 OFFCURVE",
"555 870 CURVE SMOOTH",
"555 918 OFFCURVE",
"521 946 OFFCURVE",
"476 946 CURVE SMOOTH",
"433 946 OFFCURVE",
"399 918 OFFCURVE",
"399 870 CURVE SMOOTH"
);
},
{
closed = 1;
nodes = (
"512 149 LINE",
"574 0 LINE",
"744 0 LINE",
"442 705 LINE",
"294 705 LINE",
"-7 0 LINE",
"159 0 LINE",
"221 149 LINE"
);
},
{
closed = 1;
nodes = (
"367 519 LINE",
"464 275 LINE",
"269 275 LINE"
);
}
);
width = 737;
}
);
unicode = 00C4;
},
{
glyphname = Aring;
layers = (
{
hints = (
{
horizontal = 1;
place = "{0, 21}";
target = up;
type = BottomGhost;
},
{
horizontal = 1;
place = "{149, 126}";
type = Stem;
},
{
horizontal = 1;
place = "{818, 79}";
type = Stem;
},
{
place = "{252, 81}";
type = Stem;
},
{
place = "{403, 81}";
type = Stem;
}
);
layerId = "5589ED66-9AD9-444D-B825-B0F286D52CD7";
paths = (
{
closed = 1;
nodes = (
"512 149 LINE",
"574 0 LINE",
"744 0 LINE",
"445 698 LINE",
"469 718 OFFCURVE",
"484 748 OFFCURVE",
"484 783 CURVE SMOOTH",
"484 846 OFFCURVE",
"432 897 OFFCURVE",
"367 897 CURVE SMOOTH",
"306 897 OFFCURVE",
"252 846 OFFCURVE",
"252 783 CURVE SMOOTH",
"252 749 OFFCURVE",
"267 719 OFFCURVE",
"291 698 CURVE",
"-7 0 LINE",
"159 0 LINE",
"221 149 LINE"
);
},
{
closed = 1;
nodes = (
"403 763 OFFCURVE",
"390 749 OFFCURVE",
"368 749 CURVE SMOOTH",
"349 749 OFFCURVE",
"333 762 OFFCURVE",
"333 784 CURVE SMOOTH",
"333 802 OFFCURVE",
"348 818 OFFCURVE",
"368 818 CURVE SMOOTH",
"389 818 OFFCURVE",
"403 802 OFFCURVE",
"403 783 CURVE SMOOTH"
);
},
{
closed = 1;
nodes = (
"367 519 LINE",
"464 275 LINE",
"269 275 LINE"
);
}
);
width = 737;
}
);
unicode = 00C5;
},
{
glyphname = AE;
layers = (
{
hints = (
{
place = "{449, 156}";
type = Stem;
},
{
horizontal = 1;
place = "{0, 135}";
type = Stem;
},
{
horizontal = 1;
place = "{149, 126}";
type = Stem;
},
{
horizontal = 1;
place = "{291, 127}";
type = Stem;
},
{
horizontal = 1;
place = "{566, 136}";
type = Stem;
},
{
horizontal = 1;
place = "{589, 113}";
type = Stem;
}
);
layerId = "5589ED66-9AD9-444D-B825-B0F286D52CD7";
paths = (
{
closed = 1;
nodes = (
"-7 0 LINE",
"160 0 LINE",
"239 149 LINE",
"449 149 LINE",
"449 0 LINE",
"986 0 LINE",
"986 135 LINE",
"605 135 LINE",
"605 291 LINE",
"946 291 LINE",
"946 418 LINE",
"605 418 LINE",
"605 566 LINE",
"979 566 LINE",
"979 702 LINE",
"337 702 LINE"
);
},
{
closed = 1;
nodes = (
"292 275 LINE",
"449 589 LINE",
"449 275 LINE"
);
}
);
width = 980;
}
);
unicode = 00C6;
},
{
glyphname = Ccedilla;
layers = (
{
hints = (
{
place = "{37, 162}";
type = Stem;
},
{
place = "{411, 82}";
type = Stem;
},
{
horizontal = 1;
place = "{-238, 61}";
type = Stem;
},
{
horizontal = 1;
place = "{-115, 46}";
type = Stem;
},
{
horizontal = 1;
place = "{-12, 142}";
type = Stem;
},
{
horizontal = 1;
place = "{-12, 21}";
target = up;
type = BottomGhost;
},
{
horizontal = 1;
place = "{572, 144}";
type = Stem;
}
);
layerId = "5589ED66-9AD9-444D-B825-B0F286D52CD7";
paths = (
{
closed = 1;
nodes = (
"625 224 LINE",
"562 167 OFFCURVE",
"498 130 OFFCURVE",
"414 130 CURVE SMOOTH",
"282 130 OFFCURVE",
"199 227 OFFCURVE",
"199 352 CURVE SMOOTH",
"199 473 OFFCURVE",
"282 572 OFFCURVE",
"414 572 CURVE SMOOTH",
"503 572 OFFCURVE",
"570 536 OFFCURVE",
"617 486 CURVE",
"617 649 LINE",
"562 690 OFFCURVE",
"494 716 OFFCURVE",
"404 716 CURVE SMOOTH",
"193 716 OFFCURVE",
"37 555 OFFCURVE",
"37 350 CURVE SMOOTH",
"37 154 OFFCURVE",
"178 4 OFFCURVE",
"364 -12 CURVE",
"305 -103 LINE",
"331 -124 LINE",
"346 -118 OFFCURVE",
"358 -115 OFFCURVE",
"372 -115 CURVE SMOOTH",
"396 -115 OFFCURVE",
"411 -125 OFFCURVE",
"411 -142 CURVE SMOOTH",
"411 -168 OFFCURVE",
"375 -177 OFFCURVE",
"354 -177 CURVE SMOOTH",
"337 -177 OFFCURVE",
"314 -173 OFFCURVE",
"290 -163 CURVE",
"269 -214 LINE",
"301 -229 OFFCURVE",
"335 -238 OFFCURVE",
"369 -238 CURVE SMOOTH",
"422 -238 OFFCURVE",
"493 -215 OFFCURVE",
"493 -145 CURVE SMOOTH",
"493 -91 OFFCURVE",
"445 -69 OFFCURVE",
"405 -69 CURVE SMOOTH",
"398 -69 LINE",
"432 -13 LINE",
"508 -6 OFFCURVE",
"569 20 OFFCURVE",
"625 62 CURVE"
);
}
);
width = 673;
}
);
unicode = 00C7;
},
{
glyphname = Egrave;
layers = (
{
hints = (
{
horizontal = 1;
place = "{0, 135}";
type = Stem;
},
{
horizontal = 1;
place = "{291, 127}";
type = Stem;
},
{
horizontal = 1;
place = "{566, 136}";
type = Stem;
},
{
place = "{65, 157}";
type = Stem;
}
);
layerId = "5589ED66-9AD9-444D-B825-B0F286D52CD7";
paths = (
{
closed = 1;
nodes = (
"300 819 LINE",
"410 819 LINE",
"309 992 LINE",
"160 947 LINE"
);
},
{
closed = 1;
nodes = (
"222 291 LINE",
"561 291 LINE",
"561 418 LINE",
"222 418 LINE",
"222 566 LINE",
"594 566 LINE",
"594 702 LINE",
"65 702 LINE",
"65 0 LINE",
"601 0 LINE",
"601 135 LINE",
"222 135 LINE"
);
}
);
width = 656;
}
);
unicode = 00C8;
},
{
glyphname = Eacute;
layers = (
{
hints = (
{
horizontal = 1;
place = "{0, 135}";
type = Stem;
},
{
horizontal = 1;
place = "{291, 127}";
type = Stem;
},
{
horizontal = 1;
place = "{566, 136}";
type = Stem;
},
{
place = "{65, 157}";
type = Stem;
}
);
layerId = "5589ED66-9AD9-444D-B825-B0F286D52CD7";
paths = (
{
closed = 1;
nodes = (
"253 781 LINE",
"362 781 LINE",
"503 909 LINE",
"353 954 LINE"
);
},
{
closed = 1;
nodes = (
"222 291 LINE",
"561 291 LINE",
"561 418 LINE",
"222 418 LINE",
"222 566 LINE",
"594 566 LINE",
"594 702 LINE",
"65 702 LINE",
"65 0 LINE",
"601 0 LINE",
"601 135 LINE",
"222 135 LINE"
);
}
);
width = 656;
}
);
unicode = 00C9;
},
{
glyphname = Ecircumflex;
layers = (
{
hints = (
{
horizontal = 1;
place = "{0, 135}";
type = Stem;
},
{
horizontal = 1;
place = "{291, 127}";
type = Stem;
},
{
horizontal = 1;
place = "{566, 136}";
type = Stem;
},
{
horizontal = 1;
place = "{782, 171}";
type = Stem;
},
{
place = "{65, 157}";
type = Stem;
}
);
layerId = "5589ED66-9AD9-444D-B825-B0F286D52CD7";
paths = (
{
closed = 1;
nodes = (
"379 953 LINE",
"289 953 LINE",
"160 782 LINE",
"269 782 LINE",
"334 850 LINE",
"399 782 LINE",
"508 782 LINE"
);
},
{
closed = 1;
nodes = (
"222 291 LINE",
"561 291 LINE",
"561 418 LINE",
"222 418 LINE",
"222 566 LINE",
"594 566 LINE",
"594 702 LINE",
"65 702 LINE",
"65 0 LINE",
"601 0 LINE",
"601 135 LINE",
"222 135 LINE"
);
}
);
width = 656;
}
);
unicode = 00CA;
},
{
glyphname = Edieresis;
layers = (
{
hints = (
{
place = "{65, 157}";
type = Stem;
},
{
place = "{144, 157}";
type = Stem;
},
{
place = "{359, 156}";
type = Stem;
},
{
horizontal = 1;
place = "{0, 135}";
type = Stem;
},
{
horizontal = 1;
place = "{291, 127}";
type = Stem;
},
{
horizontal = 1;
place = "{566, 136}";
type = Stem;
},
{
horizontal = 1;
place = "{793, 153}";
type = Stem;
}
);
layerId = "5589ED66-9AD9-444D-B825-B0F286D52CD7";
paths = (
{
closed = 1;
nodes = (
"144 822 OFFCURVE",
"178 793 OFFCURVE",
"222 793 CURVE SMOOTH",
"266 793 OFFCURVE",
"301 822 OFFCURVE",
"301 870 CURVE SMOOTH",
"301 918 OFFCURVE",
"266 946 OFFCURVE",
"222 946 CURVE SMOOTH",
"178 946 OFFCURVE",
"144 918 OFFCURVE",
"144 870 CURVE SMOOTH"
);
},
{
closed = 1;
nodes = (
"359 822 OFFCURVE",
"393 793 OFFCURVE",
"436 793 CURVE SMOOTH",
"481 793 OFFCURVE",
"515 822 OFFCURVE",
"515 870 CURVE SMOOTH",
"515 918 OFFCURVE",
"481 946 OFFCURVE",
"436 946 CURVE SMOOTH",
"393 946 OFFCURVE",
"359 918 OFFCURVE",
"359 870 CURVE SMOOTH"
);
},
{
closed = 1;
nodes = (
"222 291 LINE",
"561 291 LINE",
"561 418 LINE",
"222 418 LINE",
"222 566 LINE",
"594 566 LINE",
"594 702 LINE",
"65 702 LINE",
"65 0 LINE",
"601 0 LINE",
"601 135 LINE",
"222 135 LINE"
);
}
);
width = 656;
}
);
unicode = 00CB;
},
{
glyphname = Eth;
layers = (
{
hints = (
{
horizontal = 1;
place = "{0, 140}";
type = Stem;
},
{
horizontal = 1;
place = "{272, 137}";
type = Stem;
},
{
horizontal = 1;
place = "{561, 141}";
type = Stem;
},
{
place = "{92, 157}";
type = Stem;
},
{
place = "{571, 163}";
type = Stem;
}
);
layerId = "5589ED66-9AD9-444D-B825-B0F286D52CD7";
paths = (
{
closed = 1;
nodes = (
"92 0 LINE",
"342 0 LINE SMOOTH",
"586 0 OFFCURVE",
"734 150 OFFCURVE",
"734 354 CURVE SMOOTH",
"734 560 OFFCURVE",
"584 702 OFFCURVE",
"345 702 CURVE SMOOTH",
"92 702 LINE",
"92 409 LINE",
"10 409 LINE",
"10 272 LINE",
"92 272 LINE"
);
},
{
closed = 1;
nodes = (
"249 561 LINE",
"362 561 LINE SMOOTH",
"491 561 OFFCURVE",
"571 469 OFFCURVE",
"571 351 CURVE SMOOTH",
"571 222 OFFCURVE",
"486 140 OFFCURVE",
"346 140 CURVE SMOOTH",
"249 140 LINE",
"249 272 LINE",
"319 272 LINE",
"319 409 LINE",
"249 409 LINE"
);
}
);
width = 776;
}
);
unicode = 00D0;
},
{
glyphname = Ntilde;
layers = (
{
hints = (
{
place = "{65, 155}";
type = Stem;
},
{
place = "{546, 155}";
type = Stem;
},
{
horizontal = 1;
place = "{0, 21}";
target = up;
type = BottomGhost;
},
{
horizontal = 1;
place = "{702, -20}";
target = down;
type = TopGhost;
},
{
horizontal = 1;
place = "{771, 102}";
type = Stem;
},
{
horizontal = 1;
place = "{807, 102}";
type = Stem;
}
);
layerId = "5589ED66-9AD9-444D-B825-B0F286D52CD7";
paths = (
{
closed = 1;
nodes = (
"296 760 LINE",
"307 795 OFFCURVE",
"321 807 OFFCURVE",
"339 807 CURVE SMOOTH",
"371 807 OFFCURVE",
"410 771 OFFCURVE",
"456 771 CURVE SMOOTH",
"515 771 OFFCURVE",
"549 824 OFFCURVE",
"572 902 CURVE",
"486 918 LINE",
"477 887 OFFCURVE",
"466 873 OFFCURVE",
"450 873 CURVE SMOOTH",
"420 873 OFFCURVE",
"377 909 OFFCURVE",
"329 909 CURVE SMOOTH",
"270 909 OFFCURVE",
"231 855 OFFCURVE",
"210 776 CURVE"
);
},
{
closed = 1;
nodes = (
"214 700 LINE",
"65 700 LINE",
"65 0 LINE",
"220 0 LINE",
"220 448 LINE",
"560 0 LINE",
"701 0 LINE",
"701 702 LINE",
"546 702 LINE",
"546 262 LINE"
);
}
);
width = 767;
}
);
unicode = 00D1;
},
{
glyphname = Ograve;
layers = (
{
hints = (
{
horizontal = 1;
place = "{-14, 142}";
type = Stem;
},
{
horizontal = 1;
place = "{573, 143}";
type = Stem;
},
{
place = "{42, 161}";
type = Stem;
},
{
place = "{626, 162}";
type = Stem;
}
);
layerId = "5589ED66-9AD9-444D-B825-B0F286D52CD7";
paths = (
{
closed = 1;
nodes = (
"357 819 LINE",
"467 819 LINE",
"366 992 LINE",
"217 947 LINE"
);
},
{
closed = 1;
nodes = (
"788 552 OFFCURVE",
"630 716 OFFCURVE",
"416 716 CURVE SMOOTH",
"201 716 OFFCURVE",
"42 552 OFFCURVE",
"42 350 CURVE SMOOTH",
"42 149 OFFCURVE",
"199 -14 OFFCURVE",
"414 -14 CURVE SMOOTH",
"628 -14 OFFCURVE",
"788 151 OFFCURVE",
"788 353 CURVE SMOOTH"
);
},
{
closed = 1;
nodes = (
"626 230 OFFCURVE",
"540 128 OFFCURVE",
"415 128 CURVE SMOOTH",
"290 128 OFFCURVE",
"203 231 OFFCURVE",
"203 353 CURVE SMOOTH",
"203 473 OFFCURVE",
"289 573 OFFCURVE",
"415 573 CURVE SMOOTH",
"540 573 OFFCURVE",
"626 471 OFFCURVE",
"626 350 CURVE SMOOTH"
);
}
);
width = 830;
}
);
unicode = 00D2;
},
{
glyphname = Oacute;
layers = (
{
hints = (
{
horizontal = 1;
place = "{-14, 142}";
type = Stem;
},
{
horizontal = 1;
place = "{573, 143}";
type = Stem;
},
{
place = "{42, 161}";
type = Stem;
},
{
place = "{626, 162}";
type = Stem;
}
);
layerId = "5589ED66-9AD9-444D-B825-B0F286D52CD7";
paths = (
{
closed = 1;
nodes = (
"371 781 LINE",
"480 781 LINE",
"621 909 LINE",
"471 954 LINE"
);
},
{
closed = 1;
nodes = (
"788 552 OFFCURVE",
"630 716 OFFCURVE",
"416 716 CURVE SMOOTH",
"201 716 OFFCURVE",
"42 552 OFFCURVE",
"42 350 CURVE SMOOTH",
"42 149 OFFCURVE",
"199 -14 OFFCURVE",
"414 -14 CURVE SMOOTH",
"628 -14 OFFCURVE",
"788 151 OFFCURVE",
"788 353 CURVE SMOOTH"
);
},
{
closed = 1;
nodes = (
"626 230 OFFCURVE",
"540 128 OFFCURVE",
"415 128 CURVE SMOOTH",
"290 128 OFFCURVE",
"203 231 OFFCURVE",
"203 353 CURVE SMOOTH",
"203 473 OFFCURVE",
"289 573 OFFCURVE",
"415 573 CURVE SMOOTH",
"540 573 OFFCURVE",
"626 471 OFFCURVE",
"626 350 CURVE SMOOTH"
);
}
);
width = 830;
}
);
unicode = 00D3;
},
{
glyphname = Ocircumflex;
layers = (
{
hints = (
{
horizontal = 1;
place = "{-14, 142}";
type = Stem;
},
{
horizontal = 1;
place = "{573, 143}";
type = Stem;
},
{
horizontal = 1;
place = "{782, 171}";
type = Stem;
},
{
place = "{42, 161}";
type = Stem;
},
{
place = "{626, 162}";
type = Stem;
}
);
layerId = "5589ED66-9AD9-444D-B825-B0F286D52CD7";
paths = (
{
closed = 1;
nodes = (
"459 953 LINE",
"369 953 LINE",
"240 782 LINE",
"349 782 LINE",
"414 850 LINE",
"479 782 LINE",
"588 782 LINE"
);
},
{
closed = 1;
nodes = (
"788 552 OFFCURVE",
"630 716 OFFCURVE",
"416 716 CURVE SMOOTH",
"201 716 OFFCURVE",
"42 552 OFFCURVE",
"42 350 CURVE SMOOTH",
"42 149 OFFCURVE",
"199 -14 OFFCURVE",
"414 -14 CURVE SMOOTH",
"628 -14 OFFCURVE",
"788 151 OFFCURVE",
"788 353 CURVE SMOOTH"
);
},
{
closed = 1;
nodes = (
"626 230 OFFCURVE",
"540 128 OFFCURVE",
"415 128 CURVE SMOOTH",
"290 128 OFFCURVE",
"203 231 OFFCURVE",
"203 353 CURVE SMOOTH",
"203 473 OFFCURVE",
"289 573 OFFCURVE",
"415 573 CURVE SMOOTH",
"540 573 OFFCURVE",
"626 471 OFFCURVE",
"626 350 CURVE SMOOTH"
);
}
);
width = 830;
}
);
unicode = 00D4;
},
{
glyphname = Otilde;
layers = (
{
hints = (
{
place = "{42, 161}";
type = Stem;
},
{
place = "{626, 162}";
type = Stem;
},
{
horizontal = 1;
place = "{-14, 142}";
type = Stem;
},
{
horizontal = 1;
place = "{573, 143}";
type = Stem;
},
{
horizontal = 1;
place = "{771, 102}";
type = Stem;
},
{
horizontal = 1;
place = "{807, 102}";
type = Stem;
}
);
layerId = "5589ED66-9AD9-444D-B825-B0F286D52CD7";
paths = (
{
closed = 1;
nodes = (
"320 760 LINE",
"331 795 OFFCURVE",
"345 807 OFFCURVE",
"363 807 CURVE SMOOTH",
"395 807 OFFCURVE",
"434 771 OFFCURVE",
"480 771 CURVE SMOOTH",
"539 771 OFFCURVE",
"573 824 OFFCURVE",
"596 902 CURVE",
"510 918 LINE",
"501 887 OFFCURVE",
"490 873 OFFCURVE",
"474 873 CURVE SMOOTH",
"444 873 OFFCURVE",
"401 909 OFFCURVE",
"353 909 CURVE SMOOTH",
"294 909 OFFCURVE",
"255 855 OFFCURVE",
"234 776 CURVE"
);
},
{
closed = 1;
nodes = (
"788 552 OFFCURVE",
"630 716 OFFCURVE",
"416 716 CURVE SMOOTH",
"201 716 OFFCURVE",
"42 552 OFFCURVE",
"42 350 CURVE SMOOTH",
"42 149 OFFCURVE",
"199 -14 OFFCURVE",
"414 -14 CURVE SMOOTH",
"628 -14 OFFCURVE",
"788 151 OFFCURVE",
"788 353 CURVE SMOOTH"
);
},
{
closed = 1;
nodes = (
"626 230 OFFCURVE",
"540 128 OFFCURVE",
"415 128 CURVE SMOOTH",
"290 128 OFFCURVE",
"203 231 OFFCURVE",
"203 353 CURVE SMOOTH",
"203 473 OFFCURVE",
"289 573 OFFCURVE",
"415 573 CURVE SMOOTH",
"540 573 OFFCURVE",
"626 471 OFFCURVE",
"626 350 CURVE SMOOTH"
);
}
);
width = 830;
}
);
unicode = 00D5;
},
{
glyphname = Odieresis;
layers = (
{
hints = (
{
horizontal = 1;
place = "{-14, 142}";
type = Stem;
},
{
horizontal = 1;
place = "{573, 143}";
type = Stem;
},
{
horizontal = 1;
place = "{793, 153}";
type = Stem;
},
{
place = "{42, 161}";
type = Stem;
},
{
place = "{231, 157}";
type = Stem;
},
{
place = "{446, 156}";
type = Stem;
},
{
place = "{626, 162}";
type = Stem;
}
);
layerId = "5589ED66-9AD9-444D-B825-B0F286D52CD7";
paths = (
{
closed = 1;
nodes = (
"231 822 OFFCURVE",
"265 793 OFFCURVE",
"309 793 CURVE SMOOTH",
"353 793 OFFCURVE",
"388 822 OFFCURVE",
"388 870 CURVE SMOOTH",
"388 918 OFFCURVE",
"353 946 OFFCURVE",
"309 946 CURVE SMOOTH",
"265 946 OFFCURVE",
"231 918 OFFCURVE",
"231 870 CURVE SMOOTH"
);
},
{
closed = 1;
nodes = (
"446 822 OFFCURVE",
"480 793 OFFCURVE",
"523 793 CURVE SMOOTH",
"568 793 OFFCURVE",
"602 822 OFFCURVE",
"602 870 CURVE SMOOTH",
"602 918 OFFCURVE",
"568 946 OFFCURVE",
"523 946 CURVE SMOOTH",
"480 946 OFFCURVE",
"446 918 OFFCURVE",
"446 870 CURVE SMOOTH"
);
},
{
closed = 1;
nodes = (
"788 552 OFFCURVE",
"630 716 OFFCURVE",
"416 716 CURVE SMOOTH",
"201 716 OFFCURVE",
"42 552 OFFCURVE",
"42 350 CURVE SMOOTH",
"42 149 OFFCURVE",
"199 -14 OFFCURVE",
"414 -14 CURVE SMOOTH",
"628 -14 OFFCURVE",
"788 151 OFFCURVE",
"788 353 CURVE SMOOTH"
);
},
{
closed = 1;
nodes = (
"626 230 OFFCURVE",
"540 128 OFFCURVE",
"415 128 CURVE SMOOTH",
"290 128 OFFCURVE",
"203 231 OFFCURVE",
"203 353 CURVE SMOOTH",
"203 473 OFFCURVE",
"289 573 OFFCURVE",
"415 573 CURVE SMOOTH",
"540 573 OFFCURVE",
"626 471 OFFCURVE",
"626 350 CURVE SMOOTH"
);
}
);
width = 830;
}
);
unicode = 00D6;
},
{
glyphname = multiply;
layers = (
{
hints = (
{
horizontal = 1;
place = "{99, 502}";
type = Stem;
},
{
place = "{89, 501}";
type = Stem;
}
);
layerId = "5589ED66-9AD9-444D-B825-B0F286D52CD7";
paths = (
{
closed = 1;
nodes = (
"89 186 LINE",
"176 99 LINE",
"340 264 LINE",
"504 99 LINE",
"590 186 LINE",
"427 350 LINE",
"590 514 LINE",
"504 601 LINE",
"340 436 LINE",
"176 601 LINE",
"89 514 LINE",
"254 350 LINE"
);
}
);
width = 679;
}
);
unicode = 00D7;
},
{
glyphname = Oslash;
layers = (
{
hints = (
{
horizontal = 1;
place = "{-14, 149}";
type = Stem;
},
{
horizontal = 1;
place = "{568, 148}";
type = Stem;
},
{
place = "{38, 162}";
type = Stem;
},
{
place = "{623, 162}";
type = Stem;
}
);
layerId = "5589ED66-9AD9-444D-B825-B0F286D52CD7";
paths = (
{
closed = 1;
nodes = (
"94 -73 LINE",
"211 -87 LINE",
"275 20 LINE",
"314 -1 OFFCURVE",
"359 -14 OFFCURVE",
"411 -14 CURVE SMOOTH",
"625 -14 OFFCURVE",
"785 151 OFFCURVE",
"785 353 CURVE SMOOTH",
"785 464 OFFCURVE",
"736 562 OFFCURVE",
"654 628 CURVE",
"731 758 LINE",
"614 771 LINE",
"556 680 LINE",
"514 702 OFFCURVE",
"466 716 OFFCURVE",
"412 716 CURVE SMOOTH",
"197 716 OFFCURVE",
"38 552 OFFCURVE",
"38 350 CURVE SMOOTH",
"38 235 OFFCURVE",
"90 135 OFFCURVE",
"175 69 CURVE"
);
},
{
closed = 1;
nodes = (
"250 205 LINE",
"220 241 OFFCURVE",
"203 288 OFFCURVE",
"201 339 CURVE",
"200 343 OFFCURVE",
"200 348 OFFCURVE",
"200 353 CURVE SMOOTH",
"200 461 OFFCURVE",
"270 552 OFFCURVE",
"375 568 CURVE",
"400 571 OFFCURVE",
"425 570 OFFCURVE",
"449 565 CURVE",
"462 561 OFFCURVE",
"473 557 OFFCURVE",
"484 551 CURVE"
);
},
{
closed = 1;
nodes = (
"467 329 LINE",
"578 489 LINE",
"607 450 OFFCURVE",
"623 402 OFFCURVE",
"623 350 CURVE SMOOTH",
"623 245 OFFCURVE",
"559 153 OFFCURVE",
"452 135 CURVE SMOOTH",
"433 132 OFFCURVE",
"413 132 OFFCURVE",
"395 135 CURVE SMOOTH",
"385 136 OFFCURVE",
"374 138 OFFCURVE",
"364 141 CURVE SMOOTH",
"357 144 OFFCURVE",
"353 147 OFFCURVE",
"347 150 CURVE"
);
}
);
width = 823;
}
);
unicode = 00D8;
},
{
glyphname = Ugrave;
layers = (
{
hints = (
{
horizontal = 1;
place = "{-14, 143}";
type = Stem;
},
{
horizontal = 1;
place = "{702, -20}";
target = down;
type = TopGhost;
},
{
place = "{58, 159}";
type = Stem;
},
{
place = "{520, 159}";
type = Stem;
}
);
layerId = "5589ED66-9AD9-444D-B825-B0F286D52CD7";
paths = (
{
closed = 1;
nodes = (
"324 819 LINE",
"434 819 LINE",
"333 992 LINE",
"184 947 LINE"
);
},
{
closed = 1;
nodes = (
"562 -14 OFFCURVE",
"679 91 OFFCURVE",
"679 304 CURVE SMOOTH",
"679 702 LINE",
"520 702 LINE",
"520 299 LINE SMOOTH",
"520 183 OFFCURVE",
"463 129 OFFCURVE",
"369 129 CURVE SMOOTH",
"272 129 OFFCURVE",
"217 190 OFFCURVE",
"217 303 CURVE SMOOTH",
"217 702 LINE",
"58 702 LINE",
"58 299 LINE SMOOTH",
"58 93 OFFCURVE",
"173 -14 OFFCURVE",
"368 -14 CURVE SMOOTH"
);
}
);
width = 739;
}
);
unicode = 00D9;
},
{
glyphname = Uacute;
layers = (
{
hints = (
{
horizontal = 1;
place = "{-14, 143}";
type = Stem;
},
{
horizontal = 1;
place = "{702, -20}";
target = down;
type = TopGhost;
},
{
place = "{58, 159}";
type = Stem;
},
{
place = "{520, 159}";
type = Stem;
}
);
layerId = "5589ED66-9AD9-444D-B825-B0F286D52CD7";
paths = (
{
closed = 1;
nodes = (
"310 781 LINE",
"419 781 LINE",
"560 909 LINE",
"410 954 LINE"
);
},
{
closed = 1;
nodes = (
"562 -14 OFFCURVE",
"679 91 OFFCURVE",
"679 304 CURVE SMOOTH",
"679 702 LINE",
"520 702 LINE",
"520 299 LINE SMOOTH",
"520 183 OFFCURVE",
"463 129 OFFCURVE",
"369 129 CURVE SMOOTH",
"272 129 OFFCURVE",
"217 190 OFFCURVE",
"217 303 CURVE SMOOTH",
"217 702 LINE",
"58 702 LINE",
"58 299 LINE SMOOTH",
"58 93 OFFCURVE",
"173 -14 OFFCURVE",
"368 -14 CURVE SMOOTH"
);
}
);
width = 739;
}
);
unicode = 00DA;
},
{
glyphname = Ucircumflex;
layers = (
{
hints = (
{
horizontal = 1;
place = "{-14, 143}";
type = Stem;
},
{
horizontal = 1;
place = "{702, -20}";
target = down;
type = TopGhost;
},
{
horizontal = 1;
place = "{782, 171}";
type = Stem;
},
{
place = "{58, 159}";
type = Stem;
},
{
place = "{520, 159}";
type = Stem;
}
);
layerId = "5589ED66-9AD9-444D-B825-B0F286D52CD7";
paths = (
{
closed = 1;
nodes = (
"415 953 LINE",
"325 953 LINE",
"196 782 LINE",
"305 782 LINE",
"370 850 LINE",
"435 782 LINE",
"544 782 LINE"
);
},
{
closed = 1;
nodes = (
"562 -14 OFFCURVE",
"679 91 OFFCURVE",
"679 304 CURVE SMOOTH",
"679 702 LINE",
"520 702 LINE",
"520 299 LINE SMOOTH",
"520 183 OFFCURVE",
"463 129 OFFCURVE",
"369 129 CURVE SMOOTH",
"272 129 OFFCURVE",
"217 190 OFFCURVE",
"217 303 CURVE SMOOTH",
"217 702 LINE",
"58 702 LINE",
"58 299 LINE SMOOTH",
"58 93 OFFCURVE",
"173 -14 OFFCURVE",
"368 -14 CURVE SMOOTH"
);
}
);
width = 739;
}
);
unicode = 00DB;
},
{
glyphname = Udieresis;
layers = (
{
hints = (
{
place = "{58, 159}";
type = Stem;
},
{
place = "{182, 157}";
type = Stem;
},
{
place = "{397, 156}";
type = Stem;
},
{
place = "{520, 159}";
type = Stem;
},
{
horizontal = 1;
place = "{-14, 143}";
type = Stem;
},
{
horizontal = 1;
place = "{702, -20}";
target = down;
type = TopGhost;
},
{
horizontal = 1;
place = "{793, 153}";
type = Stem;
}
);
layerId = "5589ED66-9AD9-444D-B825-B0F286D52CD7";
paths = (
{
closed = 1;
nodes = (
"182 822 OFFCURVE",
"216 793 OFFCURVE",
"260 793 CURVE SMOOTH",
"304 793 OFFCURVE",
"339 822 OFFCURVE",
"339 870 CURVE SMOOTH",
"339 918 OFFCURVE",
"304 946 OFFCURVE",
"260 946 CURVE SMOOTH",
"216 946 OFFCURVE",
"182 918 OFFCURVE",
"182 870 CURVE SMOOTH"
);
},
{
closed = 1;
nodes = (
"397 822 OFFCURVE",
"431 793 OFFCURVE",
"474 793 CURVE SMOOTH",
"519 793 OFFCURVE",
"553 822 OFFCURVE",
"553 870 CURVE SMOOTH",
"553 918 OFFCURVE",
"519 946 OFFCURVE",
"474 946 CURVE SMOOTH",
"431 946 OFFCURVE",
"397 918 OFFCURVE",
"397 870 CURVE SMOOTH"
);
},
{
closed = 1;
nodes = (
"562 -14 OFFCURVE",
"679 91 OFFCURVE",
"679 304 CURVE SMOOTH",
"679 702 LINE",
"520 702 LINE",
"520 299 LINE SMOOTH",
"520 183 OFFCURVE",
"463 129 OFFCURVE",
"369 129 CURVE SMOOTH",
"272 129 OFFCURVE",
"217 190 OFFCURVE",
"217 303 CURVE SMOOTH",
"217 702 LINE",
"58 702 LINE",
"58 299 LINE SMOOTH",
"58 93 OFFCURVE",
"173 -14 OFFCURVE",
"368 -14 CURVE SMOOTH"
);
}
);
width = 739;
}
);
unicode = 00DC;
},
{
glyphname = Yacute;
layers = (
{
hints = (
{
horizontal = 1;
place = "{0, 21}";
target = up;
type = BottomGhost;
},
{
horizontal = 1;
place = "{702, -20}";
target = down;
type = TopGhost;
},
{
place = "{262, 158}";
type = Stem;
}
);
layerId = "5589ED66-9AD9-444D-B825-B0F286D52CD7";
paths = (
{
closed = 1;
nodes = (
"279 781 LINE",
"388 781 LINE",
"529 909 LINE",
"379 954 LINE"
);
},
{
closed = 1;
nodes = (
"420 270 LINE",
"687 702 LINE",
"511 702 LINE",
"343 416 LINE",
"175 702 LINE",
"-6 702 LINE",
"262 268 LINE",
"262 0 LINE",
"420 0 LINE"
);
}
);
width = 682;
}
);
unicode = 00DD;
},
{
glyphname = Thorn;
layers = (
{
hints = (
{
horizontal = 1;
place = "{0, 21}";
target = up;
type = BottomGhost;
},
{
horizontal = 1;
place = "{149, 122}";
type = Stem;
},
{
horizontal = 1;
place = "{467, 127}";
type = Stem;
},
{
horizontal = 1;
place = "{706, -20}";
target = down;
type = TopGhost;
},
{
place = "{65, 155}";
type = Stem;
},
{
place = "{382, 155}";
type = Stem;
}
);
layerId = "5589ED66-9AD9-444D-B825-B0F286D52CD7";
paths = (
{
closed = 1;
nodes = (
"65 0 LINE",
"220 0 LINE",
"220 149 LINE",
"305 149 LINE SMOOTH",
"444 149 OFFCURVE",
"537 222 OFFCURVE",
"537 367 CURVE SMOOTH",
"537 532 OFFCURVE",
"423 594 OFFCURVE",
"275 594 CURVE SMOOTH",
"220 594 LINE",
"220 706 LINE",
"65 706 LINE"
);
},
{
closed = 1;
nodes = (
"220 271 LINE",
"220 467 LINE",
"246 467 LINE SMOOTH",
"317 467 OFFCURVE",
"382 459 OFFCURVE",
"382 371 CURVE SMOOTH",
"382 288 OFFCURVE",
"326 271 OFFCURVE",
"255 271 CURVE SMOOTH"
);
}
);
width = 562;
}
);
unicode = 00DE;
},
{
glyphname = germandbls;
layers = (
{
hints = (
{
place = "{9, 152}";
type = Stem;
},
{
place = "{348, 150}";
type = Stem;
},
{
place = "{384, 153}";
type = Stem;
},
{
horizontal = 1;
place = "{-3, 112}";
type = Stem;
},
{
horizontal = 1;
place = "{0, 109}";
type = Stem;
},
{
horizontal = 1;
place = "{613, 131}";
type = Stem;
}
);
layerId = "5589ED66-9AD9-444D-B825-B0F286D52CD7";
paths = (
{
closed = 1;
nodes = (
"161 495 LINE SMOOTH",
"161 564 OFFCURVE",
"198 613 OFFCURVE",
"261 613 CURVE SMOOTH",
"312 613 OFFCURVE",
"348 580 OFFCURVE",
"348 525 CURVE SMOOTH",
"348 464 OFFCURVE",
"302 430 OFFCURVE",
"246 406 CURVE",
"246 318 LINE",
"329 309 OFFCURVE",
"384 278 OFFCURVE",
"384 212 CURVE SMOOTH",
"384 146 OFFCURVE",
"326 111 OFFCURVE",
"242 109 CURVE",
"242 -3 LINE",
"381 -12 OFFCURVE",
"537 48 OFFCURVE",
"537 199 CURVE SMOOTH",
"537 298 OFFCURVE",
"464 356 OFFCURVE",
"387 376 CURVE",
"450 405 OFFCURVE",
"498 460 OFFCURVE",
"498 544 CURVE SMOOTH",
"498 657 OFFCURVE",
"407 744 OFFCURVE",
"264 744 CURVE SMOOTH",
"94 744 OFFCURVE",
"9 638 OFFCURVE",
"9 493 CURVE SMOOTH",
"9 0 LINE",
"161 0 LINE"
);
}
);
width = 568;
}
);
unicode = 00DF;
},
{
glyphname = agrave;
layers = (
{
hints = (
{
place = "{31, 151}";
type = Stem;
},
{
place = "{382, 150}";
type = Stem;
},
{
horizontal = 1;
place = "{-12, 102}";
type = Stem;
},
{
horizontal = 1;
place = "{-8, 21}";
target = up;
type = BottomGhost;
},
{
horizontal = 1;
place = "{245, 84}";
type = Stem;
},
{
horizontal = 1;
place = "{410, 120}";
type = Stem;
}
);
layerId = "5589ED66-9AD9-444D-B825-B0F286D52CD7";
paths = (
{
closed = 1;
nodes = (
"265 616 LINE",
"375 616 LINE",
"274 789 LINE",
"125 744 LINE"
);
},
{
closed = 1;
nodes = (
"532 -8 LINE",
"532 310 LINE SMOOTH",
"532 454 OFFCURVE",
"443 530 OFFCURVE",
"279 530 CURVE SMOOTH",
"196 530 OFFCURVE",
"130 511 OFFCURVE",
"73 488 CURVE",
"73 373 LINE",
"133 400 OFFCURVE",
"188 410 OFFCURVE",
"245 410 CURVE SMOOTH",
"332 410 OFFCURVE",
"382 383 OFFCURVE",
"382 316 CURVE SMOOTH",
"382 304 LINE",
"347 319 OFFCURVE",
"297 329 OFFCURVE",
"243 329 CURVE SMOOTH",
"126 329 OFFCURVE",
"31 278 OFFCURVE",
"31 162 CURVE SMOOTH",
"31 51 OFFCURVE",
"120 -12 OFFCURVE",
"221 -12 CURVE SMOOTH",
"291 -12 OFFCURVE",
"341 13 OFFCURVE",
"380 54 CURVE"
);
},
{
closed = 1;
nodes = (
"382 133 LINE",
"353 105 OFFCURVE",
"318 90 OFFCURVE",
"275 90 CURVE SMOOTH",
"225 90 OFFCURVE",
"182 119 OFFCURVE",
"182 167 CURVE SMOOTH",
"182 217 OFFCURVE",
"229 245 OFFCURVE",
"288 245 CURVE SMOOTH",
"327 245 OFFCURVE",
"359 235 OFFCURVE",
"382 223 CURVE"
);
}
);
width = 590;
}
);
unicode = 00E0;
},
{
glyphname = aacute;
layers = (
{
hints = (
{
place = "{31, 151}";
type = Stem;
},
{
place = "{382, 150}";
type = Stem;
},
{
horizontal = 1;
place = "{-12, 102}";
type = Stem;
},
{
horizontal = 1;
place = "{-8, 21}";
target = up;
type = BottomGhost;
},
{
horizontal = 1;
place = "{245, 84}";
type = Stem;
},
{
horizontal = 1;
place = "{410, 120}";
type = Stem;
}
);
layerId = "5589ED66-9AD9-444D-B825-B0F286D52CD7";
paths = (
{
closed = 1;
nodes = (
"233 616 LINE",
"342 616 LINE",
"483 744 LINE",
"333 789 LINE"
);
},
{
closed = 1;
nodes = (
"532 -8 LINE",
"532 310 LINE SMOOTH",
"532 454 OFFCURVE",
"443 530 OFFCURVE",
"279 530 CURVE SMOOTH",
"196 530 OFFCURVE",
"130 511 OFFCURVE",
"73 488 CURVE",
"73 373 LINE",
"133 400 OFFCURVE",
"188 410 OFFCURVE",
"245 410 CURVE SMOOTH",
"332 410 OFFCURVE",
"382 383 OFFCURVE",
"382 316 CURVE SMOOTH",
"382 304 LINE",
"347 319 OFFCURVE",
"297 329 OFFCURVE",
"243 329 CURVE SMOOTH",
"126 329 OFFCURVE",
"31 278 OFFCURVE",
"31 162 CURVE SMOOTH",
"31 51 OFFCURVE",
"120 -12 OFFCURVE",
"221 -12 CURVE SMOOTH",
"291 -12 OFFCURVE",
"341 13 OFFCURVE",
"380 54 CURVE"
);
},
{
closed = 1;
nodes = (
"382 133 LINE",
"353 105 OFFCURVE",
"318 90 OFFCURVE",
"275 90 CURVE SMOOTH",
"225 90 OFFCURVE",
"182 119 OFFCURVE",
"182 167 CURVE SMOOTH",
"182 217 OFFCURVE",
"229 245 OFFCURVE",
"288 245 CURVE SMOOTH",
"327 245 OFFCURVE",
"359 235 OFFCURVE",
"382 223 CURVE"
);
}
);
width = 590;
}
);
unicode = 00E1;
},
{
glyphname = acircumflex;
layers = (
{
hints = (
{
place = "{31, 151}";
type = Stem;
},
{
place = "{382, 150}";
type = Stem;
},
{
horizontal = 1;
place = "{-12, 102}";
type = Stem;
},
{
horizontal = 1;
place = "{-8, 21}";
target = up;
type = BottomGhost;
},
{
horizontal = 1;
place = "{245, 84}";
type = Stem;
},
{
horizontal = 1;
place = "{410, 120}";
type = Stem;
},
{
horizontal = 1;
place = "{617, 171}";
type = Stem;
}
);
layerId = "5589ED66-9AD9-444D-B825-B0F286D52CD7";
paths = (
{
closed = 1;
nodes = (
"333 788 LINE",
"243 788 LINE",
"114 617 LINE",
"223 617 LINE",
"288 685 LINE",
"353 617 LINE",
"462 617 LINE"
);
},
{
closed = 1;
nodes = (
"532 -8 LINE",
"532 310 LINE SMOOTH",
"532 454 OFFCURVE",
"443 530 OFFCURVE",
"279 530 CURVE SMOOTH",
"196 530 OFFCURVE",
"130 511 OFFCURVE",
"73 488 CURVE",
"73 373 LINE",
"133 400 OFFCURVE",
"188 410 OFFCURVE",
"245 410 CURVE SMOOTH",
"332 410 OFFCURVE",
"382 383 OFFCURVE",
"382 316 CURVE SMOOTH",
"382 304 LINE",
"347 319 OFFCURVE",
"297 329 OFFCURVE",
"243 329 CURVE SMOOTH",
"126 329 OFFCURVE",
"31 278 OFFCURVE",
"31 162 CURVE SMOOTH",
"31 51 OFFCURVE",
"120 -12 OFFCURVE",
"221 -12 CURVE SMOOTH",
"291 -12 OFFCURVE",
"341 13 OFFCURVE",
"380 54 CURVE"
);
},
{
closed = 1;
nodes = (
"382 133 LINE",
"353 105 OFFCURVE",
"318 90 OFFCURVE",
"275 90 CURVE SMOOTH",
"225 90 OFFCURVE",
"182 119 OFFCURVE",
"182 167 CURVE SMOOTH",
"182 217 OFFCURVE",
"229 245 OFFCURVE",
"288 245 CURVE SMOOTH",
"327 245 OFFCURVE",
"359 235 OFFCURVE",
"382 223 CURVE"
);
}
);
width = 590;
}
);
unicode = 00E2;
},
{
glyphname = atilde;
layers = (
{
hints = (
{
place = "{31, 151}";
type = Stem;
},
{
place = "{382, 150}";
type = Stem;
},
{
horizontal = 1;
place = "{-12, 102}";
type = Stem;
},
{
horizontal = 1;
place = "{-8, 21}";
target = up;
type = BottomGhost;
},
{
horizontal = 1;
place = "{245, 84}";
type = Stem;
},
{
horizontal = 1;
place = "{410, 120}";
type = Stem;
},
{
horizontal = 1;
place = "{606, 102}";
type = Stem;
},
{
horizontal = 1;
place = "{642, 102}";
type = Stem;
}
);
layerId = "5589ED66-9AD9-444D-B825-B0F286D52CD7";
paths = (
{
closed = 1;
nodes = (
"205 595 LINE",
"216 630 OFFCURVE",
"230 642 OFFCURVE",
"248 642 CURVE SMOOTH",
"280 642 OFFCURVE",
"319 606 OFFCURVE",
"365 606 CURVE SMOOTH",
"424 606 OFFCURVE",
"458 659 OFFCURVE",
"481 737 CURVE",
"395 753 LINE",
"386 722 OFFCURVE",
"375 708 OFFCURVE",
"359 708 CURVE SMOOTH",
"329 708 OFFCURVE",
"286 744 OFFCURVE",
"238 744 CURVE SMOOTH",
"179 744 OFFCURVE",
"140 690 OFFCURVE",
"119 611 CURVE"
);
},
{
closed = 1;
nodes = (
"532 -8 LINE",
"532 310 LINE SMOOTH",
"532 454 OFFCURVE",
"443 530 OFFCURVE",
"279 530 CURVE SMOOTH",
"196 530 OFFCURVE",
"130 511 OFFCURVE",
"73 488 CURVE",
"73 373 LINE",
"133 400 OFFCURVE",
"188 410 OFFCURVE",
"245 410 CURVE SMOOTH",
"332 410 OFFCURVE",
"382 383 OFFCURVE",
"382 316 CURVE SMOOTH",
"382 304 LINE",
"347 319 OFFCURVE",
"297 329 OFFCURVE",
"243 329 CURVE SMOOTH",
"126 329 OFFCURVE",
"31 278 OFFCURVE",
"31 162 CURVE SMOOTH",
"31 51 OFFCURVE",
"120 -12 OFFCURVE",
"221 -12 CURVE SMOOTH",
"291 -12 OFFCURVE",
"341 13 OFFCURVE",
"380 54 CURVE"
);
},
{
closed = 1;
nodes = (
"382 133 LINE",
"353 105 OFFCURVE",
"318 90 OFFCURVE",
"275 90 CURVE SMOOTH",
"225 90 OFFCURVE",
"182 119 OFFCURVE",
"182 167 CURVE SMOOTH",
"182 217 OFFCURVE",
"229 245 OFFCURVE",
"288 245 CURVE SMOOTH",
"327 245 OFFCURVE",
"359 235 OFFCURVE",
"382 223 CURVE"
);
}
);
width = 590;
}
);
unicode = 00E3;
},
{
glyphname = adieresis;
layers = (
{
hints = (
{
place = "{31, 151}";
type = Stem;
},
{
place = "{112, 157}";
type = Stem;
},
{
place = "{327, 156}";
type = Stem;
},
{
place = "{382, 150}";
type = Stem;
},
{
horizontal = 1;
place = "{-12, 102}";
type = Stem;
},
{
horizontal = 1;
place = "{-8, 21}";
target = up;
type = BottomGhost;
},
{
horizontal = 1;
place = "{245, 84}";
type = Stem;
},
{
horizontal = 1;
place = "{410, 120}";
type = Stem;
},
{
horizontal = 1;
place = "{628, 153}";
type = Stem;
}
);
layerId = "5589ED66-9AD9-444D-B825-B0F286D52CD7";
paths = (
{
closed = 1;
nodes = (
"112 657 OFFCURVE",
"146 628 OFFCURVE",
"190 628 CURVE SMOOTH",
"234 628 OFFCURVE",
"269 657 OFFCURVE",
"269 705 CURVE SMOOTH",
"269 753 OFFCURVE",
"234 781 OFFCURVE",
"190 781 CURVE SMOOTH",
"146 781 OFFCURVE",
"112 753 OFFCURVE",
"112 705 CURVE SMOOTH"
);
},
{
closed = 1;
nodes = (
"327 657 OFFCURVE",
"361 628 OFFCURVE",
"404 628 CURVE SMOOTH",
"449 628 OFFCURVE",
"483 657 OFFCURVE",
"483 705 CURVE SMOOTH",
"483 753 OFFCURVE",
"449 781 OFFCURVE",
"404 781 CURVE SMOOTH",
"361 781 OFFCURVE",
"327 753 OFFCURVE",
"327 705 CURVE SMOOTH"
);
},
{
closed = 1;
nodes = (
"532 -8 LINE",
"532 310 LINE SMOOTH",
"532 454 OFFCURVE",
"443 530 OFFCURVE",
"279 530 CURVE SMOOTH",
"196 530 OFFCURVE",
"130 511 OFFCURVE",
"73 488 CURVE",
"73 373 LINE",
"133 400 OFFCURVE",
"188 410 OFFCURVE",
"245 410 CURVE SMOOTH",
"332 410 OFFCURVE",
"382 383 OFFCURVE",
"382 316 CURVE SMOOTH",
"382 304 LINE",
"347 319 OFFCURVE",
"297 329 OFFCURVE",
"243 329 CURVE SMOOTH",
"126 329 OFFCURVE",
"31 278 OFFCURVE",
"31 162 CURVE SMOOTH",
"31 51 OFFCURVE",
"120 -12 OFFCURVE",
"221 -12 CURVE SMOOTH",
"291 -12 OFFCURVE",
"341 13 OFFCURVE",
"380 54 CURVE"
);
},
{
closed = 1;
nodes = (
"382 133 LINE",
"353 105 OFFCURVE",
"318 90 OFFCURVE",
"275 90 CURVE SMOOTH",
"225 90 OFFCURVE",
"182 119 OFFCURVE",
"182 167 CURVE SMOOTH",
"182 217 OFFCURVE",
"229 245 OFFCURVE",
"288 245 CURVE SMOOTH",
"327 245 OFFCURVE",
"359 235 OFFCURVE",
"382 223 CURVE"
);
}
);
width = 590;
}
);
unicode = 00E4;
},
{
glyphname = aring;
layers = (
{
hints = (
{
place = "{31, 151}";
type = Stem;
},
{
place = "{170, 81}";
type = Stem;
},
{
place = "{321, 81}";
type = Stem;
},
{
place = "{382, 150}";
type = Stem;
},
{
horizontal = 1;
place = "{-12, 102}";
type = Stem;
},
{
horizontal = 1;
place = "{-8, 21}";
target = up;
type = BottomGhost;
},
{
horizontal = 1;
place = "{245, 84}";
type = Stem;
},
{
horizontal = 1;
place = "{410, 120}";
type = Stem;
},
{
horizontal = 1;
place = "{591, 79}";
type = Stem;
},
{
horizontal = 1;
place = "{739, 79}";
type = Stem;
}
);
layerId = "5589ED66-9AD9-444D-B825-B0F286D52CD7";
paths = (
{
closed = 1;
nodes = (
"402 767 OFFCURVE",
"350 818 OFFCURVE",
"285 818 CURVE SMOOTH",
"224 818 OFFCURVE",
"170 767 OFFCURVE",
"170 704 CURVE SMOOTH",
"170 640 OFFCURVE",
"224 591 OFFCURVE",
"285 591 CURVE SMOOTH",
"350 591 OFFCURVE",
"402 639 OFFCURVE",
"402 704 CURVE SMOOTH"
);
},
{
closed = 1;
nodes = (
"321 684 OFFCURVE",
"308 670 OFFCURVE",
"286 670 CURVE SMOOTH",
"267 670 OFFCURVE",
"251 683 OFFCURVE",
"251 705 CURVE SMOOTH",
"251 723 OFFCURVE",
"266 739 OFFCURVE",
"286 739 CURVE SMOOTH",
"307 739 OFFCURVE",
"321 723 OFFCURVE",
"321 704 CURVE SMOOTH"
);
},
{
closed = 1;
nodes = (
"532 -8 LINE",
"532 310 LINE SMOOTH",
"532 454 OFFCURVE",
"443 530 OFFCURVE",
"279 530 CURVE SMOOTH",
"196 530 OFFCURVE",
"130 511 OFFCURVE",
"73 488 CURVE",
"73 373 LINE",
"133 400 OFFCURVE",
"188 410 OFFCURVE",
"245 410 CURVE SMOOTH",
"332 410 OFFCURVE",
"382 383 OFFCURVE",
"382 316 CURVE SMOOTH",
"382 304 LINE",
"347 319 OFFCURVE",
"297 329 OFFCURVE",
"243 329 CURVE SMOOTH",
"126 329 OFFCURVE",
"31 278 OFFCURVE",
"31 162 CURVE SMOOTH",
"31 51 OFFCURVE",
"120 -12 OFFCURVE",
"221 -12 CURVE SMOOTH",
"291 -12 OFFCURVE",
"341 13 OFFCURVE",
"380 54 CURVE"
);
},
{
closed = 1;
nodes = (
"382 133 LINE",
"353 105 OFFCURVE",
"318 90 OFFCURVE",
"275 90 CURVE SMOOTH",
"225 90 OFFCURVE",
"182 119 OFFCURVE",
"182 167 CURVE SMOOTH",
"182 217 OFFCURVE",
"229 245 OFFCURVE",
"288 245 CURVE SMOOTH",
"327 245 OFFCURVE",
"359 235 OFFCURVE",
"382 223 CURVE"
);
}
);
width = 590;
}
);
unicode = 00E5;
},
{
glyphname = ae;
layers = (
{
hints = (
{
place = "{28, 150}";
type = Stem;
},
{
place = "{378, 156}";
type = Stem;
},
{
horizontal = 1;
place = "{-15, 115}";
type = Stem;
},
{
horizontal = 1;
place = "{-11, 101}";
type = Stem;
},
{
horizontal = 1;
place = "{245, 84}";
type = Stem;
},
{
horizontal = 1;
place = "{410, 119}";
type = Stem;
},
{
horizontal = 1;
place = "{413, 117}";
type = Stem;
}
);
layerId = "5589ED66-9AD9-444D-B825-B0F286D52CD7";
paths = (
{
closed = 1;
nodes = (
"609 100 OFFCURVE",
"570 121 OFFCURVE",
"547 157 CURVE",
"908 249 LINE",
"903 397 OFFCURVE",
"815 530 OFFCURVE",
"652 530 CURVE SMOOTH",
"579 530 OFFCURVE",
"519 504 OFFCURVE",
"475 461 CURVE",
"434 505 OFFCURVE",
"369 527 OFFCURVE",
"284 530 CURVE",
"274 530 OFFCURVE",
"264 530 OFFCURVE",
"254 529 CURVE",
"181 527 OFFCURVE",
"121 510 OFFCURVE",
"69 488 CURVE",
"69 373 LINE",
"124 398 OFFCURVE",
"180 410 OFFCURVE",
"241 410 CURVE SMOOTH",
"328 410 OFFCURVE",
"378 383 OFFCURVE",
"378 316 CURVE SMOOTH",
"378 304 LINE",
"343 319 OFFCURVE",
"293 329 OFFCURVE",
"239 329 CURVE SMOOTH",
"129 329 OFFCURVE",
"37 285 OFFCURVE",
"29 181 CURVE SMOOTH",
"28 171 OFFCURVE",
"28 163 OFFCURVE",
"28 152 CURVE",
"32 50 OFFCURVE",
"113 -9 OFFCURVE",
"209 -11 CURVE",
"220 -12 OFFCURVE",
"233 -12 OFFCURVE",
"246 -11 CURVE",
"318 -9 OFFCURVE",
"405 12 OFFCURVE",
"469 59 CURVE",
"514 14 OFFCURVE",
"575 -12 OFFCURVE",
"649 -15 CURVE",
"661 -15 OFFCURVE",
"674 -14 OFFCURVE",
"687 -14 CURVE",
"748 -9 OFFCURVE",
"808 9 OFFCURVE",
"858 43 CURVE",
"858 171 LINE",
"812 128 OFFCURVE",
"731 100 OFFCURVE",
"662 100 CURVE SMOOTH"
);
},
{
closed = 1;
nodes = (
"535 265 LINE",
"534 264 LINE",
"530 335 OFFCURVE",
"567 413 OFFCURVE",
"646 413 CURVE SMOOTH",
"702 413 OFFCURVE",
"743 376 OFFCURVE",
"757 318 CURVE"
);
},
{
closed = 1;
nodes = (
"378 133 LINE",
"349 105 OFFCURVE",
"314 90 OFFCURVE",
"271 90 CURVE SMOOTH",
"221 90 OFFCURVE",
"178 119 OFFCURVE",
"178 167 CURVE SMOOTH",
"178 217 OFFCURVE",
"225 245 OFFCURVE",
"284 245 CURVE SMOOTH",
"323 245 OFFCURVE",
"355 235 OFFCURVE",
"378 223 CURVE"
);
}
);
width = 940;
}
);
unicode = 00E6;
},
{
glyphname = ccedilla;
layers = (
{
hints = (
{
place = "{32, 151}";
type = Stem;
},
{
place = "{299, 82}";
type = Stem;
},
{
horizontal = 1;
place = "{-238, 61}";
type = Stem;
},
{
horizontal = 1;
place = "{-115, 46}";
type = Stem;
},
{
horizontal = 1;
place = "{-11, 129}";
type = Stem;
},
{
horizontal = 1;
place = "{-11, 21}";
target = up;
type = BottomGhost;
},
{
horizontal = 1;
place = "{-7, 21}";
target = up;
type = BottomGhost;
},
{
horizontal = 1;
place = "{402, 130}";
type = Stem;
}
);
layerId = "5589ED66-9AD9-444D-B825-B0F286D52CD7";
paths = (
{
closed = 1;
nodes = (
"428 509 LINE",
"395 525 OFFCURVE",
"349 532 OFFCURVE",
"308 532 CURVE SMOOTH",
"144 532 OFFCURVE",
"32 408 OFFCURVE",
"32 260 CURVE SMOOTH",
"32 126 OFFCURVE",
"125 15 OFFCURVE",
"255 -7 CURVE",
"193 -103 LINE",
"219 -124 LINE",
"234 -118 OFFCURVE",
"246 -115 OFFCURVE",
"260 -115 CURVE SMOOTH",
"284 -115 OFFCURVE",
"299 -125 OFFCURVE",
"299 -142 CURVE SMOOTH",
"299 -168 OFFCURVE",
"263 -177 OFFCURVE",
"242 -177 CURVE SMOOTH",
"225 -177 OFFCURVE",
"202 -173 OFFCURVE",
"178 -163 CURVE",
"157 -214 LINE",
"189 -229 OFFCURVE",
"223 -238 OFFCURVE",
"257 -238 CURVE SMOOTH",
"310 -238 OFFCURVE",
"381 -215 OFFCURVE",
"381 -145 CURVE SMOOTH",
"381 -91 OFFCURVE",
"333 -69 OFFCURVE",
"293 -69 CURVE SMOOTH",
"286 -69 LINE",
"321 -11 LINE",
"362 -9 OFFCURVE",
"402 2 OFFCURVE",
"433 16 CURVE",
"433 164 LINE",
"399 133 OFFCURVE",
"360 118 OFFCURVE",
"321 118 CURVE SMOOTH",
"243 118 OFFCURVE",
"183 183 OFFCURVE",
"183 262 CURVE SMOOTH",
"183 341 OFFCURVE",
"238 402 OFFCURVE",
"318 402 CURVE SMOOTH",
"361 402 OFFCURVE",
"396 385 OFFCURVE",
"428 356 CURVE"
);
}
);
width = 472;
}
);
unicode = 00E7;
},
{
glyphname = egrave;
layers = (
{
hints = (
{
horizontal = 1;
place = "{-15, 115}";
type = Stem;
},
{
horizontal = 1;
place = "{413, 117}";
type = Stem;
},
{
place = "{32, 146}";
type = Stem;
}
);
layerId = "5589ED66-9AD9-444D-B825-B0F286D52CD7";
paths = (
{
closed = 1;
nodes = (
"245 616 LINE",
"355 616 LINE",
"254 789 LINE",
"105 744 LINE"
);
},
{
closed = 1;
nodes = (
"253 100 OFFCURVE",
"215 121 OFFCURVE",
"191 157 CURVE",
"553 249 LINE",
"548 397 OFFCURVE",
"460 530 OFFCURVE",
"297 530 CURVE SMOOTH",
"141 530 OFFCURVE",
"32 413 OFFCURVE",
"32 259 CURVE SMOOTH",
"32 100 OFFCURVE",
"144 -15 OFFCURVE",
"303 -15 CURVE SMOOTH",
"366 -15 OFFCURVE",
"444 2 OFFCURVE",
"503 43 CURVE",
"503 171 LINE",
"457 128 OFFCURVE",
"376 100 OFFCURVE",
"307 100 CURVE SMOOTH"
);
},
{
closed = 1;
nodes = (
"178 266 LINE",
"178 335 OFFCURVE",
"211 413 OFFCURVE",
"290 413 CURVE SMOOTH",
"347 413 OFFCURVE",
"388 376 OFFCURVE",
"401 318 CURVE",
"180 261 LINE"
);
}
);
width = 584;
}
);
unicode = 00E8;
},
{
glyphname = eacute;
layers = (
{
hints = (
{
horizontal = 1;
place = "{-15, 115}";
type = Stem;
},
{
horizontal = 1;
place = "{413, 117}";
type = Stem;
},
{
place = "{32, 146}";
type = Stem;
}
);
layerId = "5589ED66-9AD9-444D-B825-B0F286D52CD7";
paths = (
{
closed = 1;
nodes = (
"258 616 LINE",
"367 616 LINE",
"508 744 LINE",
"358 789 LINE"
);
},
{
closed = 1;
nodes = (
"253 100 OFFCURVE",
"215 121 OFFCURVE",
"191 157 CURVE",
"553 249 LINE",
"548 397 OFFCURVE",
"460 530 OFFCURVE",
"297 530 CURVE SMOOTH",
"141 530 OFFCURVE",
"32 413 OFFCURVE",
"32 259 CURVE SMOOTH",
"32 100 OFFCURVE",
"144 -15 OFFCURVE",
"303 -15 CURVE SMOOTH",
"366 -15 OFFCURVE",
"444 2 OFFCURVE",
"503 43 CURVE",
"503 171 LINE",
"457 128 OFFCURVE",
"376 100 OFFCURVE",
"307 100 CURVE SMOOTH"
);
},
{
closed = 1;
nodes = (
"178 266 LINE",
"178 335 OFFCURVE",
"211 413 OFFCURVE",
"290 413 CURVE SMOOTH",
"347 413 OFFCURVE",
"388 376 OFFCURVE",
"401 318 CURVE",
"180 261 LINE"
);
}
);
width = 584;
}
);
unicode = 00E9;
},
{
glyphname = ecircumflex;
layers = (
{
hints = (
{
horizontal = 1;
place = "{-15, 115}";
type = Stem;
},
{
horizontal = 1;
place = "{413, 117}";
type = Stem;
},
{
horizontal = 1;
place = "{617, 171}";
type = Stem;
},
{
place = "{32, 146}";
type = Stem;
}
);
layerId = "5589ED66-9AD9-444D-B825-B0F286D52CD7";
paths = (
{
closed = 1;
nodes = (
"344 788 LINE",
"254 788 LINE",
"125 617 LINE",
"234 617 LINE",
"299 685 LINE",
"364 617 LINE",
"473 617 LINE"
);
},
{
closed = 1;
nodes = (
"253 100 OFFCURVE",
"215 121 OFFCURVE",
"191 157 CURVE",
"553 249 LINE",
"548 397 OFFCURVE",
"460 530 OFFCURVE",
"297 530 CURVE SMOOTH",
"141 530 OFFCURVE",
"32 413 OFFCURVE",
"32 259 CURVE SMOOTH",
"32 100 OFFCURVE",
"144 -15 OFFCURVE",
"303 -15 CURVE SMOOTH",
"366 -15 OFFCURVE",
"444 2 OFFCURVE",
"503 43 CURVE",
"503 171 LINE",
"457 128 OFFCURVE",
"376 100 OFFCURVE",
"307 100 CURVE SMOOTH"
);
},
{
closed = 1;
nodes = (
"178 266 LINE",
"178 335 OFFCURVE",
"211 413 OFFCURVE",
"290 413 CURVE SMOOTH",
"347 413 OFFCURVE",
"388 376 OFFCURVE",
"401 318 CURVE",
"180 261 LINE"
);
}
);
width = 584;
}
);
unicode = 00EA;
},
{
glyphname = edieresis;
layers = (
{
hints = (
{
place = "{32, 146}";
type = Stem;
},
{
place = "{109, 157}";
type = Stem;
},
{
place = "{324, 156}";
type = Stem;
},
{
horizontal = 1;
place = "{-15, 115}";
type = Stem;
},
{
horizontal = 1;
place = "{413, 117}";
type = Stem;
},
{
horizontal = 1;
place = "{628, 153}";
type = Stem;
}
);
layerId = "5589ED66-9AD9-444D-B825-B0F286D52CD7";
paths = (
{
closed = 1;
nodes = (
"109 657 OFFCURVE",
"143 628 OFFCURVE",
"187 628 CURVE SMOOTH",
"231 628 OFFCURVE",
"266 657 OFFCURVE",
"266 705 CURVE SMOOTH",
"266 753 OFFCURVE",
"231 781 OFFCURVE",
"187 781 CURVE SMOOTH",
"143 781 OFFCURVE",
"109 753 OFFCURVE",
"109 705 CURVE SMOOTH"
);
},
{
closed = 1;
nodes = (
"324 657 OFFCURVE",
"358 628 OFFCURVE",
"401 628 CURVE SMOOTH",
"446 628 OFFCURVE",
"480 657 OFFCURVE",
"480 705 CURVE SMOOTH",
"480 753 OFFCURVE",
"446 781 OFFCURVE",
"401 781 CURVE SMOOTH",
"358 781 OFFCURVE",
"324 753 OFFCURVE",
"324 705 CURVE SMOOTH"
);
},
{
closed = 1;
nodes = (
"253 100 OFFCURVE",
"215 121 OFFCURVE",
"191 157 CURVE",
"553 249 LINE",
"548 397 OFFCURVE",
"460 530 OFFCURVE",
"297 530 CURVE SMOOTH",
"141 530 OFFCURVE",
"32 413 OFFCURVE",
"32 259 CURVE SMOOTH",
"32 100 OFFCURVE",
"144 -15 OFFCURVE",
"303 -15 CURVE SMOOTH",
"366 -15 OFFCURVE",
"444 2 OFFCURVE",
"503 43 CURVE",
"503 171 LINE",
"457 128 OFFCURVE",
"376 100 OFFCURVE",
"307 100 CURVE SMOOTH"
);
},
{
closed = 1;
nodes = (
"178 266 LINE",
"178 335 OFFCURVE",
"211 413 OFFCURVE",
"290 413 CURVE SMOOTH",
"347 413 OFFCURVE",
"388 376 OFFCURVE",
"401 318 CURVE",
"180 261 LINE"
);
}
);
width = 584;
}
);
unicode = 00EB;
},
{
glyphname = igrave;
layers = (
{
hints = (
{
horizontal = 1;
place = "{0, 21}";
target = up;
type = BottomGhost;
},
{
place = "{66, 153}";
type = Stem;
}
);
layerId = "5589ED66-9AD9-444D-B825-B0F286D52CD7";
paths = (
{
closed = 1;
nodes = (
"115 616 LINE",
"225 616 LINE",
"124 789 LINE",
"-25 744 LINE"
);
},
{
closed = 1;
nodes = (
"219 521 LINE",
"66 521 LINE",
"66 0 LINE",
"219 0 LINE"
);
}
);
width = 274;
}
);
unicode = 00EC;
},
{
glyphname = iacute;
layers = (
{
hints = (
{
horizontal = 1;
place = "{0, 21}";
target = up;
type = BottomGhost;
},
{
place = "{41, 153}";
type = Stem;
}
);
layerId = "5589ED66-9AD9-444D-B825-B0F286D52CD7";
paths = (
{
closed = 1;
nodes = (
"55 616 LINE",
"164 616 LINE",
"305 744 LINE",
"155 789 LINE"
);
},
{
closed = 1;
nodes = (
"194 521 LINE",
"41 521 LINE",
"41 0 LINE",
"194 0 LINE"
);
}
);
width = 286;
}
);
unicode = 00ED;
},
{
glyphname = icircumflex;
layers = (
{
hints = (
{
horizontal = 1;
place = "{0, 21}";
target = up;
type = BottomGhost;
},
{
horizontal = 1;
place = "{617, 171}";
type = Stem;
},
{
place = "{52, 153}";
type = Stem;
}
);
layerId = "5589ED66-9AD9-444D-B825-B0F286D52CD7";
paths = (
{
closed = 1;
nodes = (
"172 788 LINE",
"82 788 LINE",
"-47 617 LINE",
"62 617 LINE",
"127 685 LINE",
"192 617 LINE",
"301 617 LINE"
);
},
{
closed = 1;
nodes = (
"205 521 LINE",
"52 521 LINE",
"52 0 LINE",
"205 0 LINE"
);
}
);
width = 256;
}
);
unicode = 00EE;
},
{
glyphname = idieresis;
layers = (
{
hints = (
{
place = "{-46, 157}";
type = Stem;
},
{
place = "{62, 153}";
type = Stem;
},
{
place = "{169, 156}";
type = Stem;
},
{
horizontal = 1;
place = "{0, 21}";
target = up;
type = BottomGhost;
},
{
horizontal = 1;
place = "{628, 153}";
type = Stem;
}
);
layerId = "5589ED66-9AD9-444D-B825-B0F286D52CD7";
paths = (
{
closed = 1;
nodes = (
"-46 657 OFFCURVE",
"-12 628 OFFCURVE",
"32 628 CURVE SMOOTH",
"76 628 OFFCURVE",
"111 657 OFFCURVE",
"111 705 CURVE SMOOTH",
"111 753 OFFCURVE",
"76 781 OFFCURVE",
"32 781 CURVE SMOOTH",
"-12 781 OFFCURVE",
"-46 753 OFFCURVE",
"-46 705 CURVE SMOOTH"
);
},
{
closed = 1;
nodes = (
"169 657 OFFCURVE",
"203 628 OFFCURVE",
"246 628 CURVE SMOOTH",
"291 628 OFFCURVE",
"325 657 OFFCURVE",
"325 705 CURVE SMOOTH",
"325 753 OFFCURVE",
"291 781 OFFCURVE",
"246 781 CURVE SMOOTH",
"203 781 OFFCURVE",
"169 753 OFFCURVE",
"169 705 CURVE SMOOTH"
);
},
{
closed = 1;
nodes = (
"215 521 LINE",
"62 521 LINE",
"62 0 LINE",
"215 0 LINE"
);
}
);
width = 278;
}
);
unicode = 00EF;
},
{
glyphname = eth;
layers = (
{
hints = (
{
horizontal = 1;
place = "{-12, 160}";
type = Stem;
},
{
horizontal = 1;
place = "{318, 154}";
type = Stem;
},
{
horizontal = 1;
place = "{705, -20}";
target = down;
type = TopGhost;
},
{
horizontal = 1;
place = "{717, -20}";
target = down;
type = TopGhost;
},
{
place = "{32, 179}";
type = Stem;
},
{
place = "{370, 177}";
type = Stem;
}
);
layerId = "5589ED66-9AD9-444D-B825-B0F286D52CD7";
paths = (
{
closed = 1;
nodes = (
"99 717 LINE",
"142 687 OFFCURVE",
"170 667 OFFCURVE",
"196 644 CURVE",
"82 575 LINE",
"132 523 LINE",
"251 595 LINE",
"299 550 OFFCURVE",
"339 503 OFFCURVE",
"368 443 CURVE",
"351 453 OFFCURVE",
"320 472 OFFCURVE",
"268 472 CURVE SMOOTH",
"140 472 OFFCURVE",
"32 375 OFFCURVE",
"32 233 CURVE SMOOTH",
"32 77 OFFCURVE",
"159 -12 OFFCURVE",
"289 -12 CURVE SMOOTH",
"405 -12 OFFCURVE",
"547 62 OFFCURVE",
"547 259 CURVE SMOOTH",
"547 430 OFFCURVE",
"456 565 OFFCURVE",
"357 656 CURVE",
"471 726 LINE",
"421 777 LINE",
"302 705 LINE",
"264 737 OFFCURVE",
"239 757 OFFCURVE",
"193 784 CURVE"
);
},
{
closed = 1;
nodes = (
"253 312 OFFCURVE",
"269 318 OFFCURVE",
"286 318 CURVE SMOOTH",
"309 318 OFFCURVE",
"331 307 OFFCURVE",
"349 287 CURVE SMOOTH",
"380 252 OFFCURVE",
"377 195 OFFCURVE",
"342 167 CURVE SMOOTH",
"327 154 OFFCURVE",
"310 148 OFFCURVE",
"293 148 CURVE SMOOTH",
"271 148 OFFCURVE",
"249 158 OFFCURVE",
"232 178 CURVE SMOOTH",
"203 212 OFFCURVE",
"204 268 OFFCURVE",
"238 300 CURVE"
);
}
);
width = 579;
}
);
unicode = 00F0;
},
{
glyphname = ntilde;
layers = (
{
hints = (
{
place = "{56, 154}";
type = Stem;
},
{
place = "{398, 154}";
type = Stem;
},
{
horizontal = 1;
place = "{0, 21}";
target = up;
type = BottomGhost;
},
{
horizontal = 1;
place = "{396, 137}";
type = Stem;
},
{
horizontal = 1;
place = "{606, 102}";
type = Stem;
},
{
horizontal = 1;
place = "{642, 102}";
type = Stem;
}
);
layerId = "5589ED66-9AD9-444D-B825-B0F286D52CD7";
paths = (
{
closed = 1;
nodes = (
"216 595 LINE",
"227 630 OFFCURVE",
"241 642 OFFCURVE",
"259 642 CURVE SMOOTH",
"291 642 OFFCURVE",
"330 606 OFFCURVE",
"376 606 CURVE SMOOTH",
"435 606 OFFCURVE",
"469 659 OFFCURVE",
"492 737 CURVE",
"406 753 LINE",
"397 722 OFFCURVE",
"386 708 OFFCURVE",
"370 708 CURVE SMOOTH",
"340 708 OFFCURVE",
"297 744 OFFCURVE",
"249 744 CURVE SMOOTH",
"190 744 OFFCURVE",
"151 690 OFFCURVE",
"130 611 CURVE"
);
},
{
closed = 1;
nodes = (
"297 533 OFFCURVE",
"246 495 OFFCURVE",
"211 450 CURVE",
"56 521 LINE",
"56 0 LINE",
"210 0 LINE",
"210 289 LINE SMOOTH",
"210 365 OFFCURVE",
"261 396 OFFCURVE",
"308 396 CURVE SMOOTH",
"355 396 OFFCURVE",
"398 364 OFFCURVE",
"398 289 CURVE SMOOTH",
"398 0 LINE",
"552 0 LINE",
"552 337 LINE SMOOTH",
"552 461 OFFCURVE",
"476 533 OFFCURVE",
"371 533 CURVE SMOOTH"
);
}
);
width = 604;
}
);
unicode = 00F1;
},
{
glyphname = ograve;
layers = (
{
hints = (
{
horizontal = 1;
place = "{-12, 130}";
type = Stem;
},
{
horizontal = 1;
place = "{403, 130}";
type = Stem;
},
{
place = "{32, 151}";
type = Stem;
},
{
place = "{451, 151}";
type = Stem;
}
);
layerId = "5589ED66-9AD9-444D-B825-B0F286D52CD7";
paths = (
{
closed = 1;
nodes = (
"267 616 LINE",
"377 616 LINE",
"276 789 LINE",
"127 744 LINE"
);
},
{
closed = 1;
nodes = (
"602 412 OFFCURVE",
"482 533 OFFCURVE",
"317 533 CURVE SMOOTH",
"152 533 OFFCURVE",
"32 411 OFFCURVE",
"32 260 CURVE SMOOTH",
"32 110 OFFCURVE",
"151 -12 OFFCURVE",
"316 -12 CURVE SMOOTH",
"481 -12 OFFCURVE",
"602 113 OFFCURVE",
"602 262 CURVE SMOOTH"
);
},
{
closed = 1;
nodes = (
"451 184 OFFCURVE",
"397 118 OFFCURVE",
"317 118 CURVE SMOOTH",
"240 118 OFFCURVE",
"183 183 OFFCURVE",
"183 262 CURVE SMOOTH",
"183 339 OFFCURVE",
"235 403 OFFCURVE",
"316 403 CURVE SMOOTH",
"395 403 OFFCURVE",
"451 338 OFFCURVE",
"451 260 CURVE SMOOTH"
);
}
);
width = 633;
}
);
unicode = 00F2;
},
{
glyphname = oacute;
layers = (
{
hints = (
{
horizontal = 1;
place = "{-12, 130}";
type = Stem;
},
{
horizontal = 1;
place = "{403, 130}";
type = Stem;
},
{
place = "{32, 151}";
type = Stem;
},
{
place = "{451, 151}";
type = Stem;
}
);
layerId = "5589ED66-9AD9-444D-B825-B0F286D52CD7";
paths = (
{
closed = 1;
nodes = (
"262 616 LINE",
"371 616 LINE",
"512 744 LINE",
"362 789 LINE"
);
},
{
closed = 1;
nodes = (
"602 412 OFFCURVE",
"482 533 OFFCURVE",
"317 533 CURVE SMOOTH",
"152 533 OFFCURVE",
"32 411 OFFCURVE",
"32 260 CURVE SMOOTH",
"32 110 OFFCURVE",
"151 -12 OFFCURVE",
"316 -12 CURVE SMOOTH",
"481 -12 OFFCURVE",
"602 113 OFFCURVE",
"602 262 CURVE SMOOTH"
);
},
{
closed = 1;
nodes = (
"451 184 OFFCURVE",
"397 118 OFFCURVE",
"317 118 CURVE SMOOTH",
"240 118 OFFCURVE",
"183 183 OFFCURVE",
"183 262 CURVE SMOOTH",
"183 339 OFFCURVE",
"235 403 OFFCURVE",
"316 403 CURVE SMOOTH",
"395 403 OFFCURVE",
"451 338 OFFCURVE",
"451 260 CURVE SMOOTH"
);
}
);
width = 633;
}
);
unicode = 00F3;
},
{
glyphname = ocircumflex;
layers = (
{
hints = (
{
horizontal = 1;
place = "{-12, 130}";
type = Stem;
},
{
horizontal = 1;
place = "{403, 130}";
type = Stem;
},
{
horizontal = 1;
place = "{617, 171}";
type = Stem;
},
{
place = "{32, 151}";
type = Stem;
},
{
place = "{451, 151}";
type = Stem;
}
);
layerId = "5589ED66-9AD9-444D-B825-B0F286D52CD7";
paths = (
{
closed = 1;
nodes = (
"363 788 LINE",
"273 788 LINE",
"144 617 LINE",
"253 617 LINE",
"318 685 LINE",
"383 617 LINE",
"492 617 LINE"
);
},
{
closed = 1;
nodes = (
"602 412 OFFCURVE",
"482 533 OFFCURVE",
"317 533 CURVE SMOOTH",
"152 533 OFFCURVE",
"32 411 OFFCURVE",
"32 260 CURVE SMOOTH",
"32 110 OFFCURVE",
"151 -12 OFFCURVE",
"316 -12 CURVE SMOOTH",
"481 -12 OFFCURVE",
"602 113 OFFCURVE",
"602 262 CURVE SMOOTH"
);
},
{
closed = 1;
nodes = (
"451 184 OFFCURVE",
"397 118 OFFCURVE",
"317 118 CURVE SMOOTH",
"240 118 OFFCURVE",
"183 183 OFFCURVE",
"183 262 CURVE SMOOTH",
"183 339 OFFCURVE",
"235 403 OFFCURVE",
"316 403 CURVE SMOOTH",
"395 403 OFFCURVE",
"451 338 OFFCURVE",
"451 260 CURVE SMOOTH"
);
}
);
width = 633;
}
);
unicode = 00F4;
},
{
glyphname = otilde;
layers = (
{
hints = (
{
place = "{32, 151}";
type = Stem;
},
{
place = "{451, 151}";
type = Stem;
},
{
horizontal = 1;
place = "{-12, 130}";
type = Stem;
},
{
horizontal = 1;
place = "{403, 130}";
type = Stem;
},
{
horizontal = 1;
place = "{606, 102}";
type = Stem;
},
{
horizontal = 1;
place = "{642, 102}";
type = Stem;
}
);
layerId = "5589ED66-9AD9-444D-B825-B0F286D52CD7";
paths = (
{
closed = 1;
nodes = (
"222 595 LINE",
"233 630 OFFCURVE",
"247 642 OFFCURVE",
"265 642 CURVE SMOOTH",
"297 642 OFFCURVE",
"336 606 OFFCURVE",
"382 606 CURVE SMOOTH",
"441 606 OFFCURVE",
"475 659 OFFCURVE",
"498 737 CURVE",
"412 753 LINE",
"403 722 OFFCURVE",
"392 708 OFFCURVE",
"376 708 CURVE SMOOTH",
"346 708 OFFCURVE",
"303 744 OFFCURVE",
"255 744 CURVE SMOOTH",
"196 744 OFFCURVE",
"157 690 OFFCURVE",
"136 611 CURVE"
);
},
{
closed = 1;
nodes = (
"602 412 OFFCURVE",
"482 533 OFFCURVE",
"317 533 CURVE SMOOTH",
"152 533 OFFCURVE",
"32 411 OFFCURVE",
"32 260 CURVE SMOOTH",
"32 110 OFFCURVE",
"151 -12 OFFCURVE",
"316 -12 CURVE SMOOTH",
"481 -12 OFFCURVE",
"602 113 OFFCURVE",
"602 262 CURVE SMOOTH"
);
},
{
closed = 1;
nodes = (
"451 184 OFFCURVE",
"397 118 OFFCURVE",
"317 118 CURVE SMOOTH",
"240 118 OFFCURVE",
"183 183 OFFCURVE",
"183 262 CURVE SMOOTH",
"183 339 OFFCURVE",
"235 403 OFFCURVE",
"316 403 CURVE SMOOTH",
"395 403 OFFCURVE",
"451 338 OFFCURVE",
"451 260 CURVE SMOOTH"
);
}
);
width = 633;
}
);
unicode = 00F5;
},
{
glyphname = odieresis;
layers = (
{
hints = (
{
place = "{32, 151}";
type = Stem;
},
{
place = "{132, 157}";
type = Stem;
},
{
place = "{347, 156}";
type = Stem;
},
{
place = "{451, 151}";
type = Stem;
},
{
horizontal = 1;
place = "{-12, 130}";
type = Stem;
},
{
horizontal = 1;
place = "{403, 130}";
type = Stem;
},
{
horizontal = 1;
place = "{628, 153}";
type = Stem;
}
);
layerId = "5589ED66-9AD9-444D-B825-B0F286D52CD7";
paths = (
{
closed = 1;
nodes = (
"132 657 OFFCURVE",
"166 628 OFFCURVE",
"210 628 CURVE SMOOTH",
"254 628 OFFCURVE",
"289 657 OFFCURVE",
"289 705 CURVE SMOOTH",
"289 753 OFFCURVE",
"254 781 OFFCURVE",
"210 781 CURVE SMOOTH",
"166 781 OFFCURVE",
"132 753 OFFCURVE",
"132 705 CURVE SMOOTH"
);
},
{
closed = 1;
nodes = (
"347 657 OFFCURVE",
"381 628 OFFCURVE",
"424 628 CURVE SMOOTH",
"469 628 OFFCURVE",
"503 657 OFFCURVE",
"503 705 CURVE SMOOTH",
"503 753 OFFCURVE",
"469 781 OFFCURVE",
"424 781 CURVE SMOOTH",
"381 781 OFFCURVE",
"347 753 OFFCURVE",
"347 705 CURVE SMOOTH"
);
},
{
closed = 1;
nodes = (
"602 412 OFFCURVE",
"482 533 OFFCURVE",
"317 533 CURVE SMOOTH",
"152 533 OFFCURVE",
"32 411 OFFCURVE",
"32 260 CURVE SMOOTH",
"32 110 OFFCURVE",
"151 -12 OFFCURVE",
"316 -12 CURVE SMOOTH",
"481 -12 OFFCURVE",
"602 113 OFFCURVE",
"602 262 CURVE SMOOTH"
);
},
{
closed = 1;
nodes = (
"451 184 OFFCURVE",
"397 118 OFFCURVE",
"317 118 CURVE SMOOTH",
"240 118 OFFCURVE",
"183 183 OFFCURVE",
"183 262 CURVE SMOOTH",
"183 339 OFFCURVE",
"235 403 OFFCURVE",
"316 403 CURVE SMOOTH",
"395 403 OFFCURVE",
"451 338 OFFCURVE",
"451 260 CURVE SMOOTH"
);
}
);
width = 633;
}
);
unicode = 00F6;
},
{
glyphname = divide;
layers = (
{
hints = (
{
horizontal = 1;
place = "{131, 134}";
type = Stem;
},
{
horizontal = 1;
place = "{308, 89}";
type = Stem;
},
{
horizontal = 1;
place = "{440, 135}";
type = Stem;
},
{
place = "{260, 138}";
type = Stem;
}
);
layerId = "5589ED66-9AD9-444D-B825-B0F286D52CD7";
paths = (
{
closed = 1;
nodes = (
"398 543 OFFCURVE",
"370 575 OFFCURVE",
"329 575 CURVE SMOOTH",
"288 575 OFFCURVE",
"260 543 OFFCURVE",
"260 507 CURVE SMOOTH",
"260 471 OFFCURVE",
"288 440 OFFCURVE",
"329 440 CURVE SMOOTH",
"370 440 OFFCURVE",
"398 471 OFFCURVE",
"398 507 CURVE SMOOTH"
);
},
{
closed = 1;
nodes = (
"588 397 LINE",
"70 397 LINE",
"70 308 LINE",
"588 308 LINE"
);
},
{
closed = 1;
nodes = (
"398 236 OFFCURVE",
"370 265 OFFCURVE",
"329 265 CURVE SMOOTH",
"288 265 OFFCURVE",
"260 236 OFFCURVE",
"260 199 CURVE SMOOTH",
"260 162 OFFCURVE",
"288 131 OFFCURVE",
"329 131 CURVE SMOOTH",
"370 131 OFFCURVE",
"398 162 OFFCURVE",
"398 199 CURVE SMOOTH"
);
}
);
width = 658;
}
);
unicode = 00F7;
},
{
glyphname = oslash;
layers = (
{
hints = (
{
place = "{39, 145}";
type = Stem;
},
{
place = "{461, 145}";
type = Stem;
},
{
horizontal = 1;
place = "{-13, 124}";
type = Stem;
},
{
horizontal = 1;
place = "{-2, 21}";
target = up;
type = BottomGhost;
},
{
horizontal = 1;
place = "{406, 124}";
type = Stem;
}
);
layerId = "5589ED66-9AD9-444D-B825-B0F286D52CD7";
paths = (
{
closed = 1;
nodes = (
"26 -2 LINE",
"84 -58 LINE",
"169 30 LINE",
"212 2 OFFCURVE",
"262 -13 OFFCURVE",
"321 -13 CURVE SMOOTH",
"486 -13 OFFCURVE",
"606 108 OFFCURVE",
"606 259 CURVE SMOOTH",
"606 329 OFFCURVE",
"582 388 OFFCURVE",
"541 435 CURVE",
"613 514 LINE",
"546 568 LINE",
"475 488 LINE",
"432 516 OFFCURVE",
"380 530 OFFCURVE",
"323 530 CURVE SMOOTH",
"158 530 OFFCURVE",
"39 409 OFFCURVE",
"39 259 CURVE SMOOTH",
"39 190 OFFCURVE",
"62 131 OFFCURVE",
"104 83 CURVE"
);
},
{
closed = 1;
nodes = (
"201 188 LINE",
"188 209 OFFCURVE",
"184 231 OFFCURVE",
"184 259 CURVE SMOOTH",
"184 340 OFFCURVE",
"238 406 OFFCURVE",
"322 406 CURVE SMOOTH",
"347 406 OFFCURVE",
"369 400 OFFCURVE",
"387 388 CURVE"
);
},
{
closed = 1;
nodes = (
"444 329 LINE",
"455 308 OFFCURVE",
"461 286 OFFCURVE",
"461 259 CURVE SMOOTH",
"461 177 OFFCURVE",
"406 111 OFFCURVE",
"322 111 CURVE SMOOTH",
"297 111 OFFCURVE",
"276 117 OFFCURVE",
"258 128 CURVE"
);
}
);
width = 641;
}
);
unicode = 00F8;
},
{
glyphname = ugrave;
layers = (
{
hints = (
{
place = "{52, 154}";
type = Stem;
},
{
place = "{394, 154}";
type = Stem;
},
{
horizontal = 1;
place = "{-11, 136}";
type = Stem;
},
{
horizontal = 1;
place = "{-8, 21}";
target = up;
type = BottomGhost;
},
{
horizontal = 1;
place = "{522, -20}";
target = down;
type = TopGhost;
}
);
layerId = "5589ED66-9AD9-444D-B825-B0F286D52CD7";
paths = (
{
closed = 1;
nodes = (
"276 616 LINE",
"386 616 LINE",
"285 789 LINE",
"136 744 LINE"
);
},
{
closed = 1;
nodes = (
"308 -11 OFFCURVE",
"360 20 OFFCURVE",
"393 62 CURVE",
"548 -8 LINE",
"548 522 LINE",
"394 522 LINE",
"394 233 LINE SMOOTH",
"394 157 OFFCURVE",
"346 125 OFFCURVE",
"297 125 CURVE SMOOTH",
"247 125 OFFCURVE",
"206 158 OFFCURVE",
"206 233 CURVE SMOOTH",
"206 522 LINE",
"52 522 LINE",
"52 185 LINE SMOOTH",
"52 60 OFFCURVE",
"120 -11 OFFCURVE",
"233 -11 CURVE SMOOTH"
);
}
);
width = 599;
}
);
unicode = 00F9;
},
{
glyphname = uacute;
layers = (
{
hints = (
{
place = "{52, 154}";
type = Stem;
},
{
place = "{394, 154}";
type = Stem;
},
{
horizontal = 1;
place = "{-11, 136}";
type = Stem;
},
{
horizontal = 1;
place = "{-8, 21}";
target = up;
type = BottomGhost;
},
{
horizontal = 1;
place = "{522, -20}";
target = down;
type = TopGhost;
}
);
layerId = "5589ED66-9AD9-444D-B825-B0F286D52CD7";
paths = (
{
closed = 1;
nodes = (
"248 616 LINE",
"357 616 LINE",
"498 744 LINE",
"348 789 LINE"
);
},
{
closed = 1;
nodes = (
"308 -11 OFFCURVE",
"360 20 OFFCURVE",
"393 62 CURVE",
"548 -8 LINE",
"548 522 LINE",
"394 522 LINE",
"394 233 LINE SMOOTH",
"394 157 OFFCURVE",
"346 125 OFFCURVE",
"297 125 CURVE SMOOTH",
"247 125 OFFCURVE",
"206 158 OFFCURVE",
"206 233 CURVE SMOOTH",
"206 522 LINE",
"52 522 LINE",
"52 185 LINE SMOOTH",
"52 60 OFFCURVE",
"120 -11 OFFCURVE",
"233 -11 CURVE SMOOTH"
);
}
);
width = 599;
}
);
unicode = 00FA;
},
{
glyphname = ucircumflex;
layers = (
{
hints = (
{
place = "{52, 154}";
type = Stem;
},
{
place = "{394, 154}";
type = Stem;
},
{
horizontal = 1;
place = "{-11, 136}";
type = Stem;
},
{
horizontal = 1;
place = "{-8, 21}";
target = up;
type = BottomGhost;
},
{
horizontal = 1;
place = "{522, -20}";
target = down;
type = TopGhost;
},
{
horizontal = 1;
place = "{617, 171}";
type = Stem;
}
);
layerId = "5589ED66-9AD9-444D-B825-B0F286D52CD7";
paths = (
{
closed = 1;
nodes = (
"344 788 LINE",
"254 788 LINE",
"125 617 LINE",
"234 617 LINE",
"299 685 LINE",
"364 617 LINE",
"473 617 LINE"
);
},
{
closed = 1;
nodes = (
"308 -11 OFFCURVE",
"360 20 OFFCURVE",
"393 62 CURVE",
"548 -8 LINE",
"548 522 LINE",
"394 522 LINE",
"394 233 LINE SMOOTH",
"394 157 OFFCURVE",
"346 125 OFFCURVE",
"297 125 CURVE SMOOTH",
"247 125 OFFCURVE",
"206 158 OFFCURVE",
"206 233 CURVE SMOOTH",
"206 522 LINE",
"52 522 LINE",
"52 185 LINE SMOOTH",
"52 60 OFFCURVE",
"120 -11 OFFCURVE",
"233 -11 CURVE SMOOTH"
);
}
);
width = 599;
}
);
unicode = 00FB;
},
{
glyphname = udieresis;
layers = (
{
hints = (
{
place = "{52, 154}";
type = Stem;
},
{
place = "{114, 157}";
type = Stem;
},
{
place = "{329, 156}";
type = Stem;
},
{
place = "{394, 154}";
type = Stem;
},
{
horizontal = 1;
place = "{-11, 136}";
type = Stem;
},
{
horizontal = 1;
place = "{-8, 21}";
target = up;
type = BottomGhost;
},
{
horizontal = 1;
place = "{522, -20}";
target = down;
type = TopGhost;
},
{
horizontal = 1;
place = "{628, 153}";
type = Stem;
}
);
layerId = "5589ED66-9AD9-444D-B825-B0F286D52CD7";
paths = (
{
closed = 1;
nodes = (
"114 657 OFFCURVE",
"148 628 OFFCURVE",
"192 628 CURVE SMOOTH",
"236 628 OFFCURVE",
"271 657 OFFCURVE",
"271 705 CURVE SMOOTH",
"271 753 OFFCURVE",
"236 781 OFFCURVE",
"192 781 CURVE SMOOTH",
"148 781 OFFCURVE",
"114 753 OFFCURVE",
"114 705 CURVE SMOOTH"
);
},
{
closed = 1;
nodes = (
"329 657 OFFCURVE",
"363 628 OFFCURVE",
"406 628 CURVE SMOOTH",
"451 628 OFFCURVE",
"485 657 OFFCURVE",
"485 705 CURVE SMOOTH",
"485 753 OFFCURVE",
"451 781 OFFCURVE",
"406 781 CURVE SMOOTH",
"363 781 OFFCURVE",
"329 753 OFFCURVE",
"329 705 CURVE SMOOTH"
);
},
{
closed = 1;
nodes = (
"308 -11 OFFCURVE",
"360 20 OFFCURVE",
"393 62 CURVE",
"548 -8 LINE",
"548 522 LINE",
"394 522 LINE",
"394 233 LINE SMOOTH",
"394 157 OFFCURVE",
"346 125 OFFCURVE",
"297 125 CURVE SMOOTH",
"247 125 OFFCURVE",
"206 158 OFFCURVE",
"206 233 CURVE SMOOTH",
"206 522 LINE",
"52 522 LINE",
"52 185 LINE SMOOTH",
"52 60 OFFCURVE",
"120 -11 OFFCURVE",
"233 -11 CURVE SMOOTH"
);
}
);
width = 599;
}
);
unicode = 00FC;
},
{
glyphname = yacute;
layers = (
{
hints = (
{
horizontal = 1;
place = "{-169, 21}";
target = up;
type = BottomGhost;
},
{
place = "{-5, 566}";
type = Stem;
}
);
layerId = "5589ED66-9AD9-444D-B825-B0F286D52CD7";
paths = (
{
closed = 1;
nodes = (
"222 616 LINE",
"331 616 LINE",
"472 744 LINE",
"322 789 LINE"
);
},
{
closed = 1;
nodes = (
"220 -4 LINE",
"162 -169 LINE",
"295 -169 LINE",
"561 521 LINE",
"402 521 LINE",
"284 163 LINE",
"157 521 LINE",
"-5 521 LINE"
);
}
);
width = 556;
}
);
unicode = 00FD;
},
{
glyphname = thorn;
layers = (
{
hints = (
{
horizontal = 1;
place = "{-11, 123}";
type = Stem;
},
{
horizontal = 1;
place = "{354, 123}";
type = Stem;
},
{
place = "{57, 149}";
type = Stem;
},
{
place = "{408, 150}";
type = Stem;
}
);
layerId = "5589ED66-9AD9-444D-B825-B0F286D52CD7";
paths = (
{
closed = 1;
nodes = (
"57 -232 LINE",
"206 -232 LINE",
"206 -17 LINE",
"203 57 LINE",
"206 57 LINE",
"231 21 OFFCURVE",
"276 -3 OFFCURVE",
"322 -9 CURVE SMOOTH",
"336 -11 OFFCURVE",
"349 -12 OFFCURVE",
"362 -11 CURVE SMOOTH",
"487 -4 OFFCURVE",
"558 117 OFFCURVE",
"558 235 CURVE SMOOTH",
"558 353 OFFCURVE",
"488 469 OFFCURVE",
"363 477 CURVE SMOOTH",
"348 478 OFFCURVE",
"334 477 OFFCURVE",
"319 474 CURVE SMOOTH",
"270 464 OFFCURVE",
"228 436 OFFCURVE",
"203 404 CURVE",
"202 404 LINE",
"203 429 OFFCURVE",
"203 455 OFFCURVE",
"204 481 CURVE",
"204 511 OFFCURVE",
"205 541 OFFCURVE",
"206 569 CURVE",
"206 775 LINE",
"57 775 LINE"
);
},
{
closed = 1;
nodes = (
"236 112 OFFCURVE",
"197 172 OFFCURVE",
"197 235 CURVE SMOOTH",
"197 295 OFFCURVE",
"238 354 OFFCURVE",
"301 354 CURVE SMOOTH",
"368 354 OFFCURVE",
"408 297 OFFCURVE",
"408 235 CURVE SMOOTH",
"408 174 OFFCURVE",
"369 112 OFFCURVE",
"302 112 CURVE SMOOTH"
);
}
);
width = 588;
}
);
unicode = 00FE;
},
{
glyphname = ydieresis;
layers = (
{
hints = (
{
horizontal = 1;
place = "{-169, 21}";
target = up;
type = BottomGhost;
},
{
horizontal = 1;
place = "{628, 153}";
type = Stem;
},
{
place = "{98, 157}";
type = Stem;
},
{
place = "{313, 156}";
type = Stem;
}
);
layerId = "5589ED66-9AD9-444D-B825-B0F286D52CD7";
paths = (
{
closed = 1;
nodes = (
"98 657 OFFCURVE",
"132 628 OFFCURVE",
"176 628 CURVE SMOOTH",
"220 628 OFFCURVE",
"255 657 OFFCURVE",
"255 705 CURVE SMOOTH",
"255 753 OFFCURVE",
"220 781 OFFCURVE",
"176 781 CURVE SMOOTH",
"132 781 OFFCURVE",
"98 753 OFFCURVE",
"98 705 CURVE SMOOTH"
);
},
{
closed = 1;
nodes = (
"313 657 OFFCURVE",
"347 628 OFFCURVE",
"390 628 CURVE SMOOTH",
"435 628 OFFCURVE",
"469 657 OFFCURVE",
"469 705 CURVE SMOOTH",
"469 753 OFFCURVE",
"435 781 OFFCURVE",
"390 781 CURVE SMOOTH",
"347 781 OFFCURVE",
"313 753 OFFCURVE",
"313 705 CURVE SMOOTH"
);
},
{
closed = 1;
nodes = (
"220 -4 LINE",
"162 -169 LINE",
"295 -169 LINE",
"561 521 LINE",
"402 521 LINE",
"284 163 LINE",
"157 521 LINE",
"-5 521 LINE"
);
}
);
width = 556;
}
);
unicode = 00FF;
},
{
glyphname = Amacron;
layers = (
{
hints = (
{
horizontal = 1;
place = "{0, 21}";
target = up;
type = BottomGhost;
},
{
horizontal = 1;
place = "{149, 126}";
type = Stem;
},
{
horizontal = 1;
place = "{705, -20}";
target = down;
type = TopGhost;
},
{
horizontal = 1;
place = "{755, 97}";
type = Stem;
},
{
place = "{-7, 751}";
type = Stem;
}
);
layerId = "5589ED66-9AD9-444D-B825-B0F286D52CD7";
paths = (
{
closed = 1;
nodes = (
"542 852 LINE",
"194 852 LINE",
"194 755 LINE",
"542 755 LINE"
);
},
{
closed = 1;
nodes = (
"512 149 LINE",
"574 0 LINE",
"744 0 LINE",
"442 705 LINE",
"294 705 LINE",
"-7 0 LINE",
"159 0 LINE",
"221 149 LINE"
);
},
{
closed = 1;
nodes = (
"367 519 LINE",
"464 275 LINE",
"269 275 LINE"
);
}
);
width = 737;
}
);
unicode = 0100;
},
{
glyphname = amacron;
layers = (
{
hints = (
{
place = "{31, 151}";
type = Stem;
},
{
place = "{382, 150}";
type = Stem;
},
{
horizontal = 1;
place = "{-12, 102}";
type = Stem;
},
{
horizontal = 1;
place = "{-8, 21}";
target = up;
type = BottomGhost;
},
{
horizontal = 1;
place = "{245, 84}";
type = Stem;
},
{
horizontal = 1;
place = "{410, 120}";
type = Stem;
},
{
horizontal = 1;
place = "{590, 97}";
type = Stem;
}
);
layerId = "5589ED66-9AD9-444D-B825-B0F286D52CD7";
paths = (
{
closed = 1;
nodes = (
"458 687 LINE",
"110 687 LINE",
"110 590 LINE",
"458 590 LINE"
);
},
{
closed = 1;
nodes = (
"532 -8 LINE",
"532 310 LINE SMOOTH",
"532 454 OFFCURVE",
"443 530 OFFCURVE",
"279 530 CURVE SMOOTH",
"196 530 OFFCURVE",
"130 511 OFFCURVE",
"73 488 CURVE",
"73 373 LINE",
"133 400 OFFCURVE",
"188 410 OFFCURVE",
"245 410 CURVE SMOOTH",
"332 410 OFFCURVE",
"382 383 OFFCURVE",
"382 316 CURVE SMOOTH",
"382 304 LINE",
"347 319 OFFCURVE",
"297 329 OFFCURVE",
"243 329 CURVE SMOOTH",
"126 329 OFFCURVE",
"31 278 OFFCURVE",
"31 162 CURVE SMOOTH",
"31 51 OFFCURVE",
"120 -12 OFFCURVE",
"221 -12 CURVE SMOOTH",
"291 -12 OFFCURVE",
"341 13 OFFCURVE",
"380 54 CURVE"
);
},
{
closed = 1;
nodes = (
"382 133 LINE",
"353 105 OFFCURVE",
"318 90 OFFCURVE",
"275 90 CURVE SMOOTH",
"225 90 OFFCURVE",
"182 119 OFFCURVE",
"182 167 CURVE SMOOTH",
"182 217 OFFCURVE",
"229 245 OFFCURVE",
"288 245 CURVE SMOOTH",
"327 245 OFFCURVE",
"359 235 OFFCURVE",
"382 223 CURVE"
);
}
);
width = 590;
}
);
unicode = 0101;
},
{
glyphname = Abreve;
layers = (
{
hints = (
{
horizontal = 1;
place = "{0, 21}";
target = up;
type = BottomGhost;
},
{
horizontal = 1;
place = "{149, 126}";
type = Stem;
},
{
horizontal = 1;
place = "{705, -20}";
target = down;
type = TopGhost;
},
{
horizontal = 1;
place = "{761, 100}";
type = Stem;
},
{
place = "{-7, 751}";
type = Stem;
}
);
layerId = "5589ED66-9AD9-444D-B825-B0F286D52CD7";
paths = (
{
closed = 1;
nodes = (
"444 930 LINE",
"432 887 OFFCURVE",
"405 861 OFFCURVE",
"370 861 CURVE SMOOTH",
"334 861 OFFCURVE",
"305 887 OFFCURVE",
"293 930 CURVE",
"206 930 LINE",
"215 830 OFFCURVE",
"279 761 OFFCURVE",
"368 761 CURVE SMOOTH",
"457 761 OFFCURVE",
"523 830 OFFCURVE",
"531 930 CURVE"
);
},
{
closed = 1;
nodes = (
"512 149 LINE",
"574 0 LINE",
"744 0 LINE",
"442 705 LINE",
"294 705 LINE",
"-7 0 LINE",
"159 0 LINE",
"221 149 LINE"
);
},
{
closed = 1;
nodes = (
"367 519 LINE",
"464 275 LINE",
"269 275 LINE"
);
}
);
width = 737;
}
);
unicode = 0102;
},
{
glyphname = abreve;
layers = (
{
hints = (
{
place = "{31, 151}";
type = Stem;
},
{
place = "{382, 150}";
type = Stem;
},
{
horizontal = 1;
place = "{-12, 102}";
type = Stem;
},
{
horizontal = 1;
place = "{-8, 21}";
target = up;
type = BottomGhost;
},
{
horizontal = 1;
place = "{245, 84}";
type = Stem;
},
{
horizontal = 1;
place = "{410, 120}";
type = Stem;
},
{
horizontal = 1;
place = "{583, 100}";
type = Stem;
}
);
layerId = "5589ED66-9AD9-444D-B825-B0F286D52CD7";
paths = (
{
closed = 1;
nodes = (
"375 752 LINE",
"363 709 OFFCURVE",
"336 683 OFFCURVE",
"301 683 CURVE SMOOTH",
"265 683 OFFCURVE",
"236 709 OFFCURVE",
"224 752 CURVE",
"137 752 LINE",
"146 652 OFFCURVE",
"210 583 OFFCURVE",
"299 583 CURVE SMOOTH",
"388 583 OFFCURVE",
"454 652 OFFCURVE",
"462 752 CURVE"
);
},
{
closed = 1;
nodes = (
"532 -8 LINE",
"532 310 LINE SMOOTH",
"532 454 OFFCURVE",
"443 530 OFFCURVE",
"279 530 CURVE SMOOTH",
"196 530 OFFCURVE",
"130 511 OFFCURVE",
"73 488 CURVE",
"73 373 LINE",
"133 400 OFFCURVE",
"188 410 OFFCURVE",
"245 410 CURVE SMOOTH",
"332 410 OFFCURVE",
"382 383 OFFCURVE",
"382 316 CURVE SMOOTH",
"382 304 LINE",
"347 319 OFFCURVE",
"297 329 OFFCURVE",
"243 329 CURVE SMOOTH",
"126 329 OFFCURVE",
"31 278 OFFCURVE",
"31 162 CURVE SMOOTH",
"31 51 OFFCURVE",
"120 -12 OFFCURVE",
"221 -12 CURVE SMOOTH",
"291 -12 OFFCURVE",
"341 13 OFFCURVE",
"380 54 CURVE"
);
},
{
closed = 1;
nodes = (
"382 133 LINE",
"353 105 OFFCURVE",
"318 90 OFFCURVE",
"275 90 CURVE SMOOTH",
"225 90 OFFCURVE",
"182 119 OFFCURVE",
"182 167 CURVE SMOOTH",
"182 217 OFFCURVE",
"229 245 OFFCURVE",
"288 245 CURVE SMOOTH",
"327 245 OFFCURVE",
"359 235 OFFCURVE",
"382 223 CURVE"
);
}
);
width = 590;
}
);
unicode = 0103;
},
{
glyphname = Aogonek;
layers = (
{
hints = (
{
horizontal = 1;
place = "{-224, 86}";
type = Stem;
},
{
horizontal = 1;
place = "{0, 21}";
target = up;
type = BottomGhost;
},
{
horizontal = 1;
place = "{149, 126}";
type = Stem;
},
{
horizontal = 1;
place = "{705, -20}";
target = down;
type = TopGhost;
},
{
place = "{516, 104}";
type = Stem;
}
);
layerId = "5589ED66-9AD9-444D-B825-B0F286D52CD7";
paths = (
{
closed = 1;
nodes = (
"512 149 LINE",
"574 0 LINE",
"546 -33 OFFCURVE",
"516 -73 OFFCURVE",
"516 -120 CURVE SMOOTH",
"516 -185 OFFCURVE",
"568 -224 OFFCURVE",
"638 -224 CURVE SMOOTH",
"667 -224 OFFCURVE",
"699 -218 OFFCURVE",
"730 -201 CURVE",
"712 -125 LINE",
"686 -135 OFFCURVE",
"671 -138 OFFCURVE",
"660 -138 CURVE SMOOTH",
"637 -138 OFFCURVE",
"620 -125 OFFCURVE",
"620 -103 CURVE SMOOTH",
"620 -83 OFFCURVE",
"633 -57 OFFCURVE",
"678 0 CURVE",
"744 0 LINE",
"442 705 LINE",
"294 705 LINE",
"-7 0 LINE",
"159 0 LINE",
"221 149 LINE"
);
},
{
closed = 1;
nodes = (
"367 519 LINE",
"464 275 LINE",
"269 275 LINE"
);
}
);
width = 743;
}
);
unicode = 0104;
},
{
glyphname = aogonek;
layers = (
{
hints = (
{
place = "{31, 151}";
type = Stem;
},
{
place = "{370, 104}";
type = Stem;
},
{
place = "{382, 150}";
type = Stem;
},
{
horizontal = 1;
place = "{-224, 86}";
type = Stem;
},
{
horizontal = 1;
place = "{-12, 102}";
type = Stem;
},
{
horizontal = 1;
place = "{245, 84}";
type = Stem;
},
{
horizontal = 1;
place = "{410, 120}";
type = Stem;
}
);
layerId = "5589ED66-9AD9-444D-B825-B0F286D52CD7";
paths = (
{
closed = 1;
nodes = (
"532 -8 LINE",
"532 310 LINE SMOOTH",
"532 454 OFFCURVE",
"443 530 OFFCURVE",
"279 530 CURVE SMOOTH",
"196 530 OFFCURVE",
"130 511 OFFCURVE",
"73 488 CURVE",
"73 373 LINE",
"133 400 OFFCURVE",
"188 410 OFFCURVE",
"245 410 CURVE SMOOTH",
"332 410 OFFCURVE",
"382 383 OFFCURVE",
"382 316 CURVE SMOOTH",
"382 304 LINE",
"347 319 OFFCURVE",
"297 329 OFFCURVE",
"243 329 CURVE SMOOTH",
"126 329 OFFCURVE",
"31 278 OFFCURVE",
"31 162 CURVE SMOOTH",
"31 51 OFFCURVE",
"120 -12 OFFCURVE",
"221 -12 CURVE SMOOTH",
"291 -12 OFFCURVE",
"341 13 OFFCURVE",
"380 54 CURVE",
"450 25 LINE",
"397 -32 OFFCURVE",
"370 -73 OFFCURVE",
"370 -119 CURVE SMOOTH",
"370 -184 OFFCURVE",
"422 -224 OFFCURVE",
"492 -224 CURVE SMOOTH",
"521 -224 OFFCURVE",
"553 -218 OFFCURVE",
"584 -201 CURVE",
"566 -125 LINE",
"540 -135 OFFCURVE",
"525 -138 OFFCURVE",
"514 -138 CURVE SMOOTH",
"490 -138 OFFCURVE",
"474 -124 OFFCURVE",
"474 -102 CURVE SMOOTH",
"474 -84 OFFCURVE",
"487 -56 OFFCURVE",
"532 -8 CURVE",
"530 -7 LINE"
);
},
{
closed = 1;
nodes = (
"382 133 LINE",
"353 105 OFFCURVE",
"318 90 OFFCURVE",
"275 90 CURVE SMOOTH",
"225 90 OFFCURVE",
"182 119 OFFCURVE",
"182 167 CURVE SMOOTH",
"182 217 OFFCURVE",
"229 245 OFFCURVE",
"288 245 CURVE SMOOTH",
"327 245 OFFCURVE",
"359 235 OFFCURVE",
"382 223 CURVE"
);
}
);
width = 622;
}
);
unicode = 0105;
},
{
glyphname = Cacute;
layers = (
{
hints = (
{
horizontal = 1;
place = "{-14, 144}";
type = Stem;
},
{
horizontal = 1;
place = "{572, 144}";
type = Stem;
},
{
place = "{42, 162}";
type = Stem;
}
);
layerId = "5589ED66-9AD9-444D-B825-B0F286D52CD7";
paths = (
{
closed = 1;
nodes = (
"330 781 LINE",
"439 781 LINE",
"580 909 LINE",
"430 954 LINE"
);
},
{
closed = 1;
nodes = (
"630 224 LINE",
"567 167 OFFCURVE",
"503 130 OFFCURVE",
"419 130 CURVE SMOOTH",
"287 130 OFFCURVE",
"204 227 OFFCURVE",
"204 352 CURVE SMOOTH",
"204 473 OFFCURVE",
"287 572 OFFCURVE",
"419 572 CURVE SMOOTH",
"508 572 OFFCURVE",
"575 536 OFFCURVE",
"622 486 CURVE",
"622 649 LINE",
"567 690 OFFCURVE",
"499 716 OFFCURVE",
"409 716 CURVE SMOOTH",
"198 716 OFFCURVE",
"42 555 OFFCURVE",
"42 350 CURVE SMOOTH",
"42 142 OFFCURVE",
"201 -14 OFFCURVE",
"403 -14 CURVE SMOOTH",
"495 -14 OFFCURVE",
"566 14 OFFCURVE",
"630 62 CURVE"
);
}
);
width = 679;
}
);
unicode = 0106;
},
{
glyphname = cacute;
layers = (
{
hints = (
{
horizontal = 1;
place = "{-12, 130}";
type = Stem;
},
{
horizontal = 1;
place = "{402, 130}";
type = Stem;
},
{
place = "{32, 151}";
type = Stem;
}
);
layerId = "5589ED66-9AD9-444D-B825-B0F286D52CD7";
paths = (
{
closed = 1;
nodes = (
"220 616 LINE",
"329 616 LINE",
"470 744 LINE",
"320 789 LINE"
);
},
{
closed = 1;
nodes = (
"428 509 LINE",
"395 525 OFFCURVE",
"349 532 OFFCURVE",
"308 532 CURVE SMOOTH",
"144 532 OFFCURVE",
"32 408 OFFCURVE",
"32 260 CURVE SMOOTH",
"32 110 OFFCURVE",
"150 -12 OFFCURVE",
"304 -12 CURVE SMOOTH",
"351 -12 OFFCURVE",
"398 0 OFFCURVE",
"433 16 CURVE",
"433 164 LINE",
"399 133 OFFCURVE",
"360 118 OFFCURVE",
"321 118 CURVE SMOOTH",
"243 118 OFFCURVE",
"183 183 OFFCURVE",
"183 262 CURVE SMOOTH",
"183 341 OFFCURVE",
"238 402 OFFCURVE",
"318 402 CURVE SMOOTH",
"361 402 OFFCURVE",
"396 385 OFFCURVE",
"428 356 CURVE"
);
}
);
width = 502;
}
);
unicode = 0107;
},
{
glyphname = Ccircumflex;
layers = (
{
hints = (
{
horizontal = 1;
place = "{-14, 144}";
type = Stem;
},
{
horizontal = 1;
place = "{572, 144}";
type = Stem;
},
{
horizontal = 1;
place = "{782, 171}";
type = Stem;
},
{
place = "{42, 162}";
type = Stem;
}
);
layerId = "5589ED66-9AD9-444D-B825-B0F286D52CD7";
paths = (
{
closed = 1;
nodes = (
"436 953 LINE",
"346 953 LINE",
"217 782 LINE",
"326 782 LINE",
"391 850 LINE",
"456 782 LINE",
"565 782 LINE"
);
},
{
closed = 1;
nodes = (
"630 224 LINE",
"567 167 OFFCURVE",
"503 130 OFFCURVE",
"419 130 CURVE SMOOTH",
"287 130 OFFCURVE",
"204 227 OFFCURVE",
"204 352 CURVE SMOOTH",
"204 473 OFFCURVE",
"287 572 OFFCURVE",
"419 572 CURVE SMOOTH",
"508 572 OFFCURVE",
"575 536 OFFCURVE",
"622 486 CURVE",
"622 649 LINE",
"567 690 OFFCURVE",
"499 716 OFFCURVE",
"409 716 CURVE SMOOTH",
"198 716 OFFCURVE",
"42 555 OFFCURVE",
"42 350 CURVE SMOOTH",
"42 142 OFFCURVE",
"201 -14 OFFCURVE",
"403 -14 CURVE SMOOTH",
"495 -14 OFFCURVE",
"566 14 OFFCURVE",
"630 62 CURVE"
);
}
);
width = 679;
}
);
unicode = 0108;
},
{
glyphname = ccircumflex;
layers = (
{
hints = (
{
horizontal = 1;
place = "{-12, 130}";
type = Stem;
},
{
horizontal = 1;
place = "{402, 130}";
type = Stem;
},
{
horizontal = 1;
place = "{617, 171}";
type = Stem;
},
{
place = "{32, 151}";
type = Stem;
}
);
layerId = "5589ED66-9AD9-444D-B825-B0F286D52CD7";
paths = (
{
closed = 1;
nodes = (
"326 788 LINE",
"236 788 LINE",
"107 617 LINE",
"216 617 LINE",
"281 685 LINE",
"346 617 LINE",
"455 617 LINE"
);
},
{
closed = 1;
nodes = (
"428 509 LINE",
"395 525 OFFCURVE",
"349 532 OFFCURVE",
"308 532 CURVE SMOOTH",
"144 532 OFFCURVE",
"32 408 OFFCURVE",
"32 260 CURVE SMOOTH",
"32 110 OFFCURVE",
"150 -12 OFFCURVE",
"304 -12 CURVE SMOOTH",
"351 -12 OFFCURVE",
"398 0 OFFCURVE",
"433 16 CURVE",
"433 164 LINE",
"399 133 OFFCURVE",
"360 118 OFFCURVE",
"321 118 CURVE SMOOTH",
"243 118 OFFCURVE",
"183 183 OFFCURVE",
"183 262 CURVE SMOOTH",
"183 341 OFFCURVE",
"238 402 OFFCURVE",
"318 402 CURVE SMOOTH",
"361 402 OFFCURVE",
"396 385 OFFCURVE",
"428 356 CURVE"
);
}
);
width = 462;
}
);
unicode = 0109;
},
{
glyphname = Cdotaccent;
layers = (
{
hints = (
{
horizontal = 1;
place = "{-14, 144}";
type = Stem;
},
{
horizontal = 1;
place = "{572, 144}";
type = Stem;
},
{
horizontal = 1;
place = "{777, 136}";
type = Stem;
},
{
place = "{37, 162}";
type = Stem;
},
{
place = "{331, 137}";
type = Stem;
}
);
layerId = "5589ED66-9AD9-444D-B825-B0F286D52CD7";
paths = (
{
closed = 1;
nodes = (
"468 885 OFFCURVE",
"434 913 OFFCURVE",
"399 913 CURVE SMOOTH",
"364 913 OFFCURVE",
"331 885 OFFCURVE",
"331 846 CURVE SMOOTH",
"331 804 OFFCURVE",
"364 777 OFFCURVE",
"399 777 CURVE SMOOTH",
"434 777 OFFCURVE",
"468 804 OFFCURVE",
"468 846 CURVE SMOOTH"
);
},
{
closed = 1;
nodes = (
"625 224 LINE",
"562 167 OFFCURVE",
"498 130 OFFCURVE",
"414 130 CURVE SMOOTH",
"282 130 OFFCURVE",
"199 227 OFFCURVE",
"199 352 CURVE SMOOTH",
"199 473 OFFCURVE",
"282 572 OFFCURVE",
"414 572 CURVE SMOOTH",
"503 572 OFFCURVE",
"570 536 OFFCURVE",
"617 486 CURVE",
"617 649 LINE",
"562 690 OFFCURVE",
"494 716 OFFCURVE",
"404 716 CURVE SMOOTH",
"193 716 OFFCURVE",
"37 555 OFFCURVE",
"37 350 CURVE SMOOTH",
"37 142 OFFCURVE",
"196 -14 OFFCURVE",
"398 -14 CURVE SMOOTH",
"490 -14 OFFCURVE",
"561 14 OFFCURVE",
"625 62 CURVE"
);
}
);
width = 642;
}
);
unicode = 010A;
},
{
glyphname = cdotaccent;
layers = (
{
hints = (
{
horizontal = 1;
place = "{-12, 130}";
type = Stem;
},
{
horizontal = 1;
place = "{402, 130}";
type = Stem;
},
{
horizontal = 1;
place = "{612, 136}";
type = Stem;
},
{
place = "{32, 151}";
type = Stem;
},
{
place = "{226, 137}";
type = Stem;
}
);
layerId = "5589ED66-9AD9-444D-B825-B0F286D52CD7";
paths = (
{
closed = 1;
nodes = (
"363 720 OFFCURVE",
"329 748 OFFCURVE",
"294 748 CURVE SMOOTH",
"259 748 OFFCURVE",
"226 720 OFFCURVE",
"226 681 CURVE SMOOTH",
"226 639 OFFCURVE",
"259 612 OFFCURVE",
"294 612 CURVE SMOOTH",
"329 612 OFFCURVE",
"363 639 OFFCURVE",
"363 681 CURVE SMOOTH"
);
},
{
closed = 1;
nodes = (
"428 509 LINE",
"395 525 OFFCURVE",
"349 532 OFFCURVE",
"308 532 CURVE SMOOTH",
"144 532 OFFCURVE",
"32 408 OFFCURVE",
"32 260 CURVE SMOOTH",
"32 110 OFFCURVE",
"150 -12 OFFCURVE",
"304 -12 CURVE SMOOTH",
"351 -12 OFFCURVE",
"398 0 OFFCURVE",
"433 16 CURVE",
"433 164 LINE",
"399 133 OFFCURVE",
"360 118 OFFCURVE",
"321 118 CURVE SMOOTH",
"243 118 OFFCURVE",
"183 183 OFFCURVE",
"183 262 CURVE SMOOTH",
"183 341 OFFCURVE",
"238 402 OFFCURVE",
"318 402 CURVE SMOOTH",
"361 402 OFFCURVE",
"396 385 OFFCURVE",
"428 356 CURVE"
);
}
);
width = 452;
}
);
unicode = 010B;
},
{
glyphname = Ccaron;
layers = (
{
hints = (
{
horizontal = 1;
place = "{-14, 144}";
type = Stem;
},
{
horizontal = 1;
place = "{572, 144}";
type = Stem;
},
{
horizontal = 1;
place = "{760, 173}";
type = Stem;
},
{
place = "{42, 162}";
type = Stem;
}
);
layerId = "5589ED66-9AD9-444D-B825-B0F286D52CD7";
paths = (
{
closed = 1;
nodes = (
"478 933 LINE",
"415 862 LINE",
"350 933 LINE",
"233 933 LINE",
"368 760 LINE",
"459 760 LINE",
"593 933 LINE"
);
},
{
closed = 1;
nodes = (
"630 224 LINE",
"567 167 OFFCURVE",
"503 130 OFFCURVE",
"419 130 CURVE SMOOTH",
"287 130 OFFCURVE",
"204 227 OFFCURVE",
"204 352 CURVE SMOOTH",
"204 473 OFFCURVE",
"287 572 OFFCURVE",
"419 572 CURVE SMOOTH",
"508 572 OFFCURVE",
"575 536 OFFCURVE",
"622 486 CURVE",
"622 649 LINE",
"567 690 OFFCURVE",
"499 716 OFFCURVE",
"409 716 CURVE SMOOTH",
"198 716 OFFCURVE",
"42 555 OFFCURVE",
"42 350 CURVE SMOOTH",
"42 142 OFFCURVE",
"201 -14 OFFCURVE",
"403 -14 CURVE SMOOTH",
"495 -14 OFFCURVE",
"566 14 OFFCURVE",
"630 62 CURVE"
);
}
);
width = 679;
}
);
unicode = 010C;
},
{
glyphname = ccaron;
layers = (
{
hints = (
{
horizontal = 1;
place = "{-12, 130}";
type = Stem;
},
{
horizontal = 1;
place = "{402, 130}";
type = Stem;
},
{
horizontal = 1;
place = "{595, 173}";
type = Stem;
},
{
place = "{32, 151}";
type = Stem;
}
);
layerId = "5589ED66-9AD9-444D-B825-B0F286D52CD7";
paths = (
{
closed = 1;
nodes = (
"350 768 LINE",
"287 697 LINE",
"222 768 LINE",
"105 768 LINE",
"240 595 LINE",
"331 595 LINE",
"465 768 LINE"
);
},
{
closed = 1;
nodes = (
"428 509 LINE",
"395 525 OFFCURVE",
"349 532 OFFCURVE",
"308 532 CURVE SMOOTH",
"144 532 OFFCURVE",
"32 408 OFFCURVE",
"32 260 CURVE SMOOTH",
"32 110 OFFCURVE",
"150 -12 OFFCURVE",
"304 -12 CURVE SMOOTH",
"351 -12 OFFCURVE",
"398 0 OFFCURVE",
"433 16 CURVE",
"433 164 LINE",
"399 133 OFFCURVE",
"360 118 OFFCURVE",
"321 118 CURVE SMOOTH",
"243 118 OFFCURVE",
"183 183 OFFCURVE",
"183 262 CURVE SMOOTH",
"183 341 OFFCURVE",
"238 402 OFFCURVE",
"318 402 CURVE SMOOTH",
"361 402 OFFCURVE",
"396 385 OFFCURVE",
"428 356 CURVE"
);
}
);
width = 472;
}
);
unicode = 010D;
},
{
glyphname = Dcaron;
layers = (
{
hints = (
{
horizontal = 1;
place = "{0, 140}";
type = Stem;
},
{
horizontal = 1;
place = "{561, 141}";
type = Stem;
},
{
horizontal = 1;
place = "{760, 173}";
type = Stem;
},
{
place = "{65, 158}";
type = Stem;
},
{
place = "{545, 162}";
type = Stem;
}
);
layerId = "5589ED66-9AD9-444D-B825-B0F286D52CD7";
paths = (
{
closed = 1;
nodes = (
"420 933 LINE",
"357 862 LINE",
"292 933 LINE",
"175 933 LINE",
"310 760 LINE",
"401 760 LINE",
"535 933 LINE"
);
},
{
closed = 1;
nodes = (
"65 0 LINE",
"316 0 LINE SMOOTH",
"559 0 OFFCURVE",
"707 150 OFFCURVE",
"707 354 CURVE SMOOTH",
"707 560 OFFCURVE",
"557 702 OFFCURVE",
"319 702 CURVE SMOOTH",
"65 702 LINE"
);
},
{
closed = 1;
nodes = (
"223 561 LINE",
"335 561 LINE SMOOTH",
"464 561 OFFCURVE",
"545 469 OFFCURVE",
"545 351 CURVE SMOOTH",
"545 222 OFFCURVE",
"459 140 OFFCURVE",
"319 140 CURVE SMOOTH",
"223 140 LINE"
);
}
);
width = 750;
}
);
unicode = 010E;
},
{
glyphname = dcaron;
layers = (
{
hints = (
{
place = "{31, 152}";
type = Stem;
},
{
place = "{440, 154}";
type = Stem;
},
{
horizontal = 1;
place = "{-11, 129}";
type = Stem;
},
{
horizontal = 1;
place = "{-8, 21}";
target = up;
type = BottomGhost;
},
{
horizontal = 1;
place = "{404, 129}";
type = Stem;
},
{
horizontal = 1;
place = "{588, 143}";
type = Stem;
}
);
layerId = "5589ED66-9AD9-444D-B825-B0F286D52CD7";
paths = (
{
closed = 1;
nodes = (
"777 800 LINE",
"666 800 LINE",
"629 588 LINE",
"716 588 LINE"
);
},
{
closed = 1;
nodes = (
"594 -8 LINE",
"594 731 LINE",
"440 731 LINE",
"440 449 LINE",
"403 496 OFFCURVE",
"350 533 OFFCURVE",
"269 533 CURVE SMOOTH",
"141 533 OFFCURVE",
"31 429 OFFCURVE",
"31 260 CURVE SMOOTH",
"31 93 OFFCURVE",
"141 -11 OFFCURVE",
"270 -11 CURVE SMOOTH",
"350 -11 OFFCURVE",
"398 26 OFFCURVE",
"437 74 CURVE"
);
},
{
closed = 1;
nodes = (
"183 346 OFFCURVE",
"242 404 OFFCURVE",
"312 404 CURVE SMOOTH",
"383 404 OFFCURVE",
"443 344 OFFCURVE",
"443 262 CURVE SMOOTH",
"443 177 OFFCURVE",
"384 118 OFFCURVE",
"312 118 CURVE SMOOTH",
"241 118 OFFCURVE",
"183 177 OFFCURVE",
"183 261 CURVE SMOOTH"
);
}
);
width = 625;
}
);
unicode = 010F;
},
{
glyphname = Dcroat;
layers = (
{
hints = (
{
horizontal = 1;
place = "{0, 140}";
type = Stem;
},
{
horizontal = 1;
place = "{272, 137}";
type = Stem;
},
{
horizontal = 1;
place = "{561, 141}";
type = Stem;
},
{
place = "{92, 157}";
type = Stem;
},
{
place = "{571, 163}";
type = Stem;
}
);
layerId = "5589ED66-9AD9-444D-B825-B0F286D52CD7";
paths = (
{
closed = 1;
nodes = (
"92 0 LINE",
"342 0 LINE SMOOTH",
"586 0 OFFCURVE",
"734 150 OFFCURVE",
"734 354 CURVE SMOOTH",
"734 560 OFFCURVE",
"584 702 OFFCURVE",
"345 702 CURVE SMOOTH",
"92 702 LINE",
"92 409 LINE",
"10 409 LINE",
"10 272 LINE",
"92 272 LINE"
);
},
{
closed = 1;
nodes = (
"249 561 LINE",
"362 561 LINE SMOOTH",
"491 561 OFFCURVE",
"571 469 OFFCURVE",
"571 351 CURVE SMOOTH",
"571 222 OFFCURVE",
"486 140 OFFCURVE",
"346 140 CURVE SMOOTH",
"249 140 LINE",
"249 272 LINE",
"319 272 LINE",
"319 409 LINE",
"249 409 LINE"
);
}
);
width = 776;
}
);
unicode = 0110;
},
{
glyphname = dcroat;
layers = (
{
hints = (
{
place = "{32, 152}";
type = Stem;
},
{
place = "{441, 154}";
type = Stem;
},
{
horizontal = 1;
place = "{-11, 129}";
type = Stem;
},
{
horizontal = 1;
place = "{-8, 21}";
target = up;
type = BottomGhost;
},
{
horizontal = 1;
place = "{404, 129}";
type = Stem;
},
{
horizontal = 1;
place = "{556, 137}";
type = Stem;
}
);
layerId = "5589ED66-9AD9-444D-B825-B0F286D52CD7";
paths = (
{
closed = 1;
nodes = (
"595 -8 LINE",
"595 556 LINE",
"652 556 LINE",
"652 693 LINE",
"595 693 LINE",
"595 731 LINE",
"441 731 LINE",
"441 693 LINE",
"343 693 LINE",
"343 556 LINE",
"441 556 LINE",
"441 449 LINE",
"404 496 OFFCURVE",
"351 533 OFFCURVE",
"270 533 CURVE SMOOTH",
"142 533 OFFCURVE",
"32 429 OFFCURVE",
"32 260 CURVE SMOOTH",
"32 93 OFFCURVE",
"142 -11 OFFCURVE",
"271 -11 CURVE SMOOTH",
"351 -11 OFFCURVE",
"399 26 OFFCURVE",
"438 74 CURVE"
);
},
{
closed = 1;
nodes = (
"184 346 OFFCURVE",
"243 404 OFFCURVE",
"313 404 CURVE SMOOTH",
"384 404 OFFCURVE",
"444 344 OFFCURVE",
"444 262 CURVE SMOOTH",
"444 177 OFFCURVE",
"385 118 OFFCURVE",
"313 118 CURVE SMOOTH",
"242 118 OFFCURVE",
"184 177 OFFCURVE",
"184 261 CURVE SMOOTH"
);
}
);
width = 648;
}
);
unicode = 0111;
},
{
glyphname = Emacron;
layers = (
{
hints = (
{
horizontal = 1;
place = "{0, 135}";
type = Stem;
},
{
horizontal = 1;
place = "{291, 127}";
type = Stem;
},
{
horizontal = 1;
place = "{566, 136}";
type = Stem;
},
{
horizontal = 1;
place = "{755, 97}";
type = Stem;
},
{
place = "{65, 157}";
type = Stem;
}
);
layerId = "5589ED66-9AD9-444D-B825-B0F286D52CD7";
paths = (
{
closed = 1;
nodes = (
"518 852 LINE",
"170 852 LINE",
"170 755 LINE",
"518 755 LINE"
);
},
{
closed = 1;
nodes = (
"222 291 LINE",
"561 291 LINE",
"561 418 LINE",
"222 418 LINE",
"222 566 LINE",
"594 566 LINE",
"594 702 LINE",
"65 702 LINE",
"65 0 LINE",
"601 0 LINE",
"601 135 LINE",
"222 135 LINE"
);
}
);
width = 656;
}
);
unicode = 0112;
},
{
glyphname = emacron;
layers = (
{
hints = (
{
horizontal = 1;
place = "{-15, 115}";
type = Stem;
},
{
horizontal = 1;
place = "{413, 117}";
type = Stem;
},
{
horizontal = 1;
place = "{590, 97}";
type = Stem;
},
{
place = "{32, 146}";
type = Stem;
}
);
layerId = "5589ED66-9AD9-444D-B825-B0F286D52CD7";
paths = (
{
closed = 1;
nodes = (
"465 687 LINE",
"117 687 LINE",
"117 590 LINE",
"465 590 LINE"
);
},
{
closed = 1;
nodes = (
"253 100 OFFCURVE",
"215 121 OFFCURVE",
"191 157 CURVE",
"553 249 LINE",
"548 397 OFFCURVE",
"460 530 OFFCURVE",
"297 530 CURVE SMOOTH",
"141 530 OFFCURVE",
"32 413 OFFCURVE",
"32 259 CURVE SMOOTH",
"32 100 OFFCURVE",
"144 -15 OFFCURVE",
"303 -15 CURVE SMOOTH",
"366 -15 OFFCURVE",
"444 2 OFFCURVE",
"503 43 CURVE",
"503 171 LINE",
"457 128 OFFCURVE",
"376 100 OFFCURVE",
"307 100 CURVE SMOOTH"
);
},
{
closed = 1;
nodes = (
"178 266 LINE",
"178 335 OFFCURVE",
"211 413 OFFCURVE",
"290 413 CURVE SMOOTH",
"347 413 OFFCURVE",
"388 376 OFFCURVE",
"401 318 CURVE",
"180 261 LINE"
);
}
);
width = 584;
}
);
unicode = 0113;
},
{
glyphname = Ebreve;
layers = (
{
hints = (
{
horizontal = 1;
place = "{0, 135}";
type = Stem;
},
{
horizontal = 1;
place = "{291, 127}";
type = Stem;
},
{
horizontal = 1;
place = "{566, 136}";
type = Stem;
},
{
horizontal = 1;
place = "{748, 100}";
type = Stem;
},
{
place = "{65, 157}";
type = Stem;
}
);
layerId = "5589ED66-9AD9-444D-B825-B0F286D52CD7";
paths = (
{
closed = 1;
nodes = (
"413 917 LINE",
"401 874 OFFCURVE",
"374 848 OFFCURVE",
"339 848 CURVE SMOOTH",
"303 848 OFFCURVE",
"274 874 OFFCURVE",
"262 917 CURVE",
"175 917 LINE",
"184 817 OFFCURVE",
"248 748 OFFCURVE",
"337 748 CURVE SMOOTH",
"426 748 OFFCURVE",
"492 817 OFFCURVE",
"500 917 CURVE"
);
},
{
closed = 1;
nodes = (
"222 291 LINE",
"561 291 LINE",
"561 418 LINE",
"222 418 LINE",
"222 566 LINE",
"594 566 LINE",
"594 702 LINE",
"65 702 LINE",
"65 0 LINE",
"601 0 LINE",
"601 135 LINE",
"222 135 LINE"
);
}
);
width = 656;
}
);
unicode = 0114;
},
{
glyphname = ebreve;
layers = (
{
hints = (
{
horizontal = 1;
place = "{-15, 115}";
type = Stem;
},
{
horizontal = 1;
place = "{413, 117}";
type = Stem;
},
{
horizontal = 1;
place = "{583, 100}";
type = Stem;
},
{
place = "{32, 146}";
type = Stem;
}
);
layerId = "5589ED66-9AD9-444D-B825-B0F286D52CD7";
paths = (
{
closed = 1;
nodes = (
"379 752 LINE",
"367 709 OFFCURVE",
"340 683 OFFCURVE",
"305 683 CURVE SMOOTH",
"269 683 OFFCURVE",
"240 709 OFFCURVE",
"228 752 CURVE",
"141 752 LINE",
"150 652 OFFCURVE",
"214 583 OFFCURVE",
"303 583 CURVE SMOOTH",
"392 583 OFFCURVE",
"458 652 OFFCURVE",
"466 752 CURVE"
);
},
{
closed = 1;
nodes = (
"253 100 OFFCURVE",
"215 121 OFFCURVE",
"191 157 CURVE",
"553 249 LINE",
"548 397 OFFCURVE",
"460 530 OFFCURVE",
"297 530 CURVE SMOOTH",
"141 530 OFFCURVE",
"32 413 OFFCURVE",
"32 259 CURVE SMOOTH",
"32 100 OFFCURVE",
"144 -15 OFFCURVE",
"303 -15 CURVE SMOOTH",
"366 -15 OFFCURVE",
"444 2 OFFCURVE",
"503 43 CURVE",
"503 171 LINE",
"457 128 OFFCURVE",
"376 100 OFFCURVE",
"307 100 CURVE SMOOTH"
);
},
{
closed = 1;
nodes = (
"178 266 LINE",
"178 335 OFFCURVE",
"211 413 OFFCURVE",
"290 413 CURVE SMOOTH",
"347 413 OFFCURVE",
"388 376 OFFCURVE",
"401 318 CURVE",
"180 261 LINE"
);
}
);
width = 584;
}
);
unicode = 0115;
},
{
glyphname = Edotaccent;
layers = (
{
hints = (
{
horizontal = 1;
place = "{0, 135}";
type = Stem;
},
{
horizontal = 1;
place = "{291, 127}";
type = Stem;
},
{
horizontal = 1;
place = "{566, 136}";
type = Stem;
},
{
horizontal = 1;
place = "{777, 136}";
type = Stem;
},
{
place = "{65, 157}";
type = Stem;
},
{
place = "{267, 137}";
type = Stem;
}
);
layerId = "5589ED66-9AD9-444D-B825-B0F286D52CD7";
paths = (
{
closed = 1;
nodes = (
"404 885 OFFCURVE",
"370 913 OFFCURVE",
"335 913 CURVE SMOOTH",
"300 913 OFFCURVE",
"267 885 OFFCURVE",
"267 846 CURVE SMOOTH",
"267 804 OFFCURVE",
"300 777 OFFCURVE",
"335 777 CURVE SMOOTH",
"370 777 OFFCURVE",
"404 804 OFFCURVE",
"404 846 CURVE SMOOTH"
);
},
{
closed = 1;
nodes = (
"222 291 LINE",
"561 291 LINE",
"561 418 LINE",
"222 418 LINE",
"222 566 LINE",
"594 566 LINE",
"594 702 LINE",
"65 702 LINE",
"65 0 LINE",
"601 0 LINE",
"601 135 LINE",
"222 135 LINE"
);
}
);
width = 656;
}
);
unicode = 0116;
},
{
glyphname = edotaccent;
layers = (
{
hints = (
{
horizontal = 1;
place = "{-15, 115}";
type = Stem;
},
{
horizontal = 1;
place = "{413, 117}";
type = Stem;
},
{
horizontal = 1;
place = "{612, 136}";
type = Stem;
},
{
place = "{32, 146}";
type = Stem;
},
{
place = "{221, 137}";
type = Stem;
}
);
layerId = "5589ED66-9AD9-444D-B825-B0F286D52CD7";
paths = (
{
closed = 1;
nodes = (
"358 720 OFFCURVE",
"324 748 OFFCURVE",
"289 748 CURVE SMOOTH",
"254 748 OFFCURVE",
"221 720 OFFCURVE",
"221 681 CURVE SMOOTH",
"221 639 OFFCURVE",
"254 612 OFFCURVE",
"289 612 CURVE SMOOTH",
"324 612 OFFCURVE",
"358 639 OFFCURVE",
"358 681 CURVE SMOOTH"
);
},
{
closed = 1;
nodes = (
"253 100 OFFCURVE",
"215 121 OFFCURVE",
"191 157 CURVE",
"553 249 LINE",
"548 397 OFFCURVE",
"460 530 OFFCURVE",
"297 530 CURVE SMOOTH",
"141 530 OFFCURVE",
"32 413 OFFCURVE",
"32 259 CURVE SMOOTH",
"32 100 OFFCURVE",
"144 -15 OFFCURVE",
"303 -15 CURVE SMOOTH",
"366 -15 OFFCURVE",
"444 2 OFFCURVE",
"503 43 CURVE",
"503 171 LINE",
"457 128 OFFCURVE",
"376 100 OFFCURVE",
"307 100 CURVE SMOOTH"
);
},
{
closed = 1;
nodes = (
"178 266 LINE",
"178 335 OFFCURVE",
"211 413 OFFCURVE",
"290 413 CURVE SMOOTH",
"347 413 OFFCURVE",
"388 376 OFFCURVE",
"401 318 CURVE",
"180 261 LINE"
);
}
);
width = 584;
}
);
unicode = 0117;
},
{
glyphname = Eogonek;
layers = (
{
hints = (
{
horizontal = 1;
place = "{-224, 86}";
type = Stem;
},
{
horizontal = 1;
place = "{0, 135}";
type = Stem;
},
{
horizontal = 1;
place = "{291, 127}";
type = Stem;
},
{
horizontal = 1;
place = "{566, 136}";
type = Stem;
},
{
place = "{65, 157}";
type = Stem;
},
{
place = "{439, 104}";
type = Stem;
}
);
layerId = "5589ED66-9AD9-444D-B825-B0F286D52CD7";
paths = (
{
closed = 1;
nodes = (
"222 291 LINE",
"561 291 LINE",
"561 418 LINE",
"222 418 LINE",
"222 566 LINE",
"594 566 LINE",
"594 702 LINE",
"65 702 LINE",
"65 0 LINE",
"497 0 LINE",
"469 -33 OFFCURVE",
"439 -73 OFFCURVE",
"439 -120 CURVE SMOOTH",
"439 -185 OFFCURVE",
"491 -224 OFFCURVE",
"561 -224 CURVE SMOOTH",
"590 -224 OFFCURVE",
"622 -218 OFFCURVE",
"653 -201 CURVE",
"635 -125 LINE",
"609 -135 OFFCURVE",
"594 -138 OFFCURVE",
"583 -138 CURVE SMOOTH",
"560 -138 OFFCURVE",
"543 -125 OFFCURVE",
"543 -103 CURVE SMOOTH",
"543 -83 OFFCURVE",
"556 -57 OFFCURVE",
"601 0 CURVE",
"601 135 LINE",
"222 135 LINE"
);
}
);
width = 708;
}
);
unicode = 0118;
},
{
glyphname = eogonek;
layers = (
{
hints = (
{
horizontal = 1;
place = "{-223, 86}";
type = Stem;
},
{
horizontal = 1;
place = "{-15, 115}";
type = Stem;
},
{
horizontal = 1;
place = "{413, 117}";
type = Stem;
},
{
place = "{32, 146}";
type = Stem;
},
{
place = "{301, 104}";
type = Stem;
}
);
layerId = "5589ED66-9AD9-444D-B825-B0F286D52CD7";
paths = (
{
closed = 1;
nodes = (
"497 -124 LINE",
"471 -134 OFFCURVE",
"456 -137 OFFCURVE",
"445 -137 CURVE SMOOTH",
"422 -137 OFFCURVE",
"405 -124 OFFCURVE",
"405 -100 CURVE SMOOTH",
"405 -79 OFFCURVE",
"416 -40 OFFCURVE",
"500 40 CURVE",
"501 41 OFFCURVE",
"502 42 OFFCURVE",
"503 43 CURVE",
"503 171 LINE",
"457 128 OFFCURVE",
"376 100 OFFCURVE",
"307 100 CURVE SMOOTH",
"253 100 OFFCURVE",
"215 121 OFFCURVE",
"191 157 CURVE",
"553 249 LINE",
"548 397 OFFCURVE",
"460 530 OFFCURVE",
"297 530 CURVE SMOOTH",
"141 530 OFFCURVE",
"32 413 OFFCURVE",
"32 259 CURVE SMOOTH",
"32 100 OFFCURVE",
"144 -15 OFFCURVE",
"303 -15 CURVE SMOOTH",
"317 -15 OFFCURVE",
"332 -14 OFFCURVE",
"347 -12 CURVE",
"322 -42 OFFCURVE",
"301 -78 OFFCURVE",
"301 -119 CURVE SMOOTH",
"301 -184 OFFCURVE",
"353 -223 OFFCURVE",
"423 -223 CURVE SMOOTH",
"452 -223 OFFCURVE",
"484 -217 OFFCURVE",
"515 -200 CURVE"
);
},
{
closed = 1;
nodes = (
"178 266 LINE",
"178 335 OFFCURVE",
"211 413 OFFCURVE",
"290 413 CURVE SMOOTH",
"347 413 OFFCURVE",
"388 376 OFFCURVE",
"401 318 CURVE",
"180 261 LINE"
);
}
);
width = 584;
}
);
unicode = 0119;
},
{
glyphname = Ecaron;
layers = (
{
hints = (
{
horizontal = 1;
place = "{0, 135}";
type = Stem;
},
{
horizontal = 1;
place = "{291, 127}";
type = Stem;
},
{
horizontal = 1;
place = "{566, 136}";
type = Stem;
},
{
horizontal = 1;
place = "{760, 173}";
type = Stem;
},
{
place = "{65, 157}";
type = Stem;
}
);
layerId = "5589ED66-9AD9-444D-B825-B0F286D52CD7";
paths = (
{
closed = 1;
nodes = (
"409 933 LINE",
"346 862 LINE",
"281 933 LINE",
"164 933 LINE",
"299 760 LINE",
"390 760 LINE",
"524 933 LINE"
);
},
{
closed = 1;
nodes = (
"222 291 LINE",
"561 291 LINE",
"561 418 LINE",
"222 418 LINE",
"222 566 LINE",
"594 566 LINE",
"594 702 LINE",
"65 702 LINE",
"65 0 LINE",
"601 0 LINE",
"601 135 LINE",
"222 135 LINE"
);
}
);
width = 656;
}
);
unicode = 011A;
},
